<svg xmlns="http://www.w3.org/2000/svg" xmlns:xlink="http://www.w3.org/1999/xlink" xml:space="preserve" width="950" height="1086.5416666667" viewBox="0 0 950 1086.5416666667">
    <rect width="100%" height="100%" fill="#ffffff" x="0" y="0" />
    <g transform="scale(39.583333333333)" fill="#d46360">
        <path
            d="M5.064,22.696c-.425,0-.8-.008-1.123-.023-1.082-.051-1.293-.174-1.355-.275-.28-.451-.481-5.033-.535-8.142,0-.037.029-.067.065-.067,0,0,0,0,.001,0,.036,0,.066.029.066.065.062,3.599.283,7.702.515,8.074.023.037.181.162,1.249.212.696.033,1.64.03,2.804-.008,2.091-.069,4.644-.248,6.504-.454,3.453-.384,7.874-.664,8.002-.672.117-.017.299-.168.499-.785.636-1.957.902-6.766.936-10.29.043-4.458-.241-7.871-.691-8.299-.481-.459-3.852-.672-9.017-.57-4.12.081-8.512.36-9.213.585-.427.137-.774.911-1.03,2.3-.007.036-.041.06-.077.053-.036-.007-.06-.041-.053-.077.27-1.462.636-2.248,1.12-2.403.724-.232,5.047-.508,9.251-.591,3.101-.061,8.408-.064,9.112.606.595.567.766,4.878.732,8.397-.034,3.533-.301,8.359-.942,10.33-.182.559-.381.845-.61.875h-.005c-.045.003-4.515.285-7.998.672-1.864.207-4.421.386-6.515.455-.629.021-1.195.031-1.692.031Z"
        />
        <path
            d="M7.485,22.392c-.621,0-1.2-.01-1.72-.03-.782-.03-1.411-.082-1.87-.155-.534-.085-.826-.193-.917-.34-.263-.424-1.013-4.331-1.363-7.417-.004-.036.022-.069.058-.073.037-.004.069.022.073.058.342,3.01,1.093,6.957,1.344,7.362.259.417,3.547.576,7.819.379,4.1-.19,9.548-.236,9.735-.238.103-.016.258-.142.424-.642.48-1.451.767-5.363.767-10.465,0-2.056-.048-4.058-.136-5.637-.13-2.34-.283-2.602-.313-2.63-.041-.04-.366-.176-2.847-.267-1.556-.057-3.663-.085-5.934-.08-4.163.01-8.746.137-9.45.363-.393.126-.718.793-.968,1.984-.008.036-.043.059-.079.051-.036-.008-.059-.043-.051-.079.264-1.258.609-1.94,1.057-2.083.75-.24,5.445-.36,9.49-.369,2.273-.005,4.382.023,5.939.08,2.724.1,2.877.248,2.935.304.053.051.123.195.204.854.056.46.106,1.087.149,1.864.088,1.581.136,3.585.136,5.644,0,2.294-.06,4.434-.174,6.187-.134,2.069-.336,3.522-.6,4.319-.154.465-.329.705-.536.733h-.008c-.055.001-5.586.047-9.734.238-1.208.056-2.379.084-3.431.084Z"
        />
        <path
            d="M1.778,12.201c-.012,0-.025-.004-.036-.011-.029-.02-.037-.06-.017-.089.011-.017,1.141-1.691.988-3.375-.035-.385-.17-.638-.312-.906-.16-.299-.325-.609-.343-1.111-.034-.951,1.099-1.664,1.148-1.693.03-.019.07-.009.088.021.019.03.009.07-.021.088-.011.007-1.118.704-1.087,1.58.017.472.168.755.328,1.055.142.267.29.544.327.954.082.906-.197,1.798-.446,2.387-.269.637-.552,1.054-.564,1.072-.012.018-.033.028-.053.028Z"
        />
        <path d="M2.404,7.267s-.491-.344-.969-.046c-.478.299-.29.896-.42,1.35-.13.454-.442.605-.442.605,0,0,.729.156,1.286-.254s.808-.789.544-1.655Z" style="fill: #779775;" />
        <path d="M2.286,4.074s.591-.691,1.122-.453c.531.238.604,1.281.128,1.775-.476.494-1.391,1.098-1.391,1.098,0,0-1.235-.723-1.464-1.629-.213-.844.302-1.275.576-1.329.632-.123.846.464,1.029.538Z" />
        <path d="M2.454,11.249s-.627-.292-1.105.049-.49,1.057-.622,1.454c-.132.397-.405.676-.359.688s.749.094,1.367-.301c.543-.347,1.224-1.21.72-1.89Z" style="fill: #779775;" />
        <path d="M2.59,8.838s.448-.151.748.117c.299.268.254.755.314,1.035.06.28.224.49.193.494-.032.005-.516.008-.907-.308-.343-.276-.741-.914-.347-1.339Z" style="fill: #779775;" />
    </g>
    <g fill="#000000">
        <g transform="translate(367,175) scale(4.12)"><rect width="6" height="6" /></g>
        <g transform="translate(415,175) scale(4.12)"><rect width="6" height="6" /></g>
        <g transform="translate(535,175) scale(4.12)"><rect width="6" height="6" /></g>
        <g transform="translate(559,175) scale(4.12)"><rect width="6" height="6" /></g>
        <g transform="translate(391,199) scale(4.12)"><rect width="6" height="6" /></g>
        <g transform="translate(463,199) scale(4.12)"><rect width="6" height="6" /></g>
        <g transform="translate(439,223) scale(4.12)"><rect width="6" height="6" /></g>
        <g transform="translate(511,223) scale(4.12)"><rect width="6" height="6" /></g>
        <g transform="translate(559,223) scale(4.12)"><rect width="6" height="6" /></g>
        <g transform="translate(391,247) scale(4.12)"><rect width="6" height="6" /></g>
        <g transform="translate(463,247) scale(4.12)"><rect width="6" height="6" /></g>
        <g transform="translate(367,271) scale(4.12)"><rect width="6" height="6" /></g>
        <g transform="translate(391,271) scale(4.12)"><rect width="6" height="6" /></g>
        <g transform="translate(487,271) scale(4.12)"><rect width="6" height="6" /></g>
        <g transform="translate(511,271) scale(4.12)"><rect width="6" height="6" /></g>
        <g transform="translate(535,271) scale(4.12)"><rect width="6" height="6" /></g>
        <g transform="translate(367,295) scale(4.12)"><rect width="6" height="6" /></g>
        <g transform="translate(391,295) scale(4.12)"><rect width="6" height="6" /></g>
        <g transform="translate(415,295) scale(4.12)"><rect width="6" height="6" /></g>
        <g transform="translate(463,295) scale(4.12)"><rect width="6" height="6" /></g>
        <g transform="translate(487,295) scale(4.12)"><rect width="6" height="6" /></g>
        <g transform="translate(511,295) scale(4.12)"><rect width="6" height="6" /></g>
        <g transform="translate(535,295) scale(4.12)"><rect width="6" height="6" /></g>
        <g transform="translate(559,295) scale(4.12)"><rect width="6" height="6" /></g>
        <g transform="translate(367,319) scale(4.12)"><rect width="6" height="6" /></g>
        <g transform="translate(415,319) scale(4.12)"><rect width="6" height="6" /></g>
        <g transform="translate(463,319) scale(4.12)"><rect width="6" height="6" /></g>
        <g transform="translate(511,319) scale(4.12)"><rect width="6" height="6" /></g>
        <g transform="translate(559,319) scale(4.12)"><rect width="6" height="6" /></g>
        <g transform="translate(391,343) scale(4.12)"><rect width="6" height="6" /></g>
        <g transform="translate(439,343) scale(4.12)"><rect width="6" height="6" /></g>
        <g transform="translate(487,343) scale(4.12)"><rect width="6" height="6" /></g>
        <g transform="translate(535,343) scale(4.12)"><rect width="6" height="6" /></g>
        <g transform="translate(559,343) scale(4.12)"><rect width="6" height="6" /></g>
        <g transform="translate(199,367) scale(4.12)"><rect width="6" height="6" /></g>
        <g transform="translate(223,367) scale(4.12)"><rect width="6" height="6" /></g>
        <g transform="translate(247,367) scale(4.12)"><rect width="6" height="6" /></g>
        <g transform="translate(271,367) scale(4.12)"><rect width="6" height="6" /></g>
        <g transform="translate(295,367) scale(4.12)"><rect width="6" height="6" /></g>
        <g transform="translate(319,367) scale(4.12)"><rect width="6" height="6" /></g>
        <g transform="translate(343,367) scale(4.12)"><rect width="6" height="6" /></g>
        <g transform="translate(391,367) scale(4.12)"><rect width="6" height="6" /></g>
        <g transform="translate(439,367) scale(4.12)"><rect width="6" height="6" /></g>
        <g transform="translate(463,367) scale(4.12)"><rect width="6" height="6" /></g>
        <g transform="translate(511,367) scale(4.12)"><rect width="6" height="6" /></g>
        <g transform="translate(631,367) scale(4.12)"><rect width="6" height="6" /></g>
        <g transform="translate(655,367) scale(4.12)"><rect width="6" height="6" /></g>
        <g transform="translate(751,367) scale(4.12)"><rect width="6" height="6" /></g>
        <g transform="translate(247,391) scale(4.12)"><rect width="6" height="6" /></g>
        <g transform="translate(271,391) scale(4.12)"><rect width="6" height="6" /></g>
        <g transform="translate(295,391) scale(4.12)"><rect width="6" height="6" /></g>
        <g transform="translate(367,391) scale(4.12)"><rect width="6" height="6" /></g>
        <g transform="translate(439,391) scale(4.12)"><rect width="6" height="6" /></g>
        <g transform="translate(559,391) scale(4.12)"><rect width="6" height="6" /></g>
        <g transform="translate(583,391) scale(4.12)"><rect width="6" height="6" /></g>
        <g transform="translate(727,391) scale(4.12)"><rect width="6" height="6" /></g>
        <g transform="translate(175,415) scale(4.12)"><rect width="6" height="6" /></g>
        <g transform="translate(199,415) scale(4.12)"><rect width="6" height="6" /></g>
        <g transform="translate(223,415) scale(4.12)"><rect width="6" height="6" /></g>
        <g transform="translate(271,415) scale(4.12)"><rect width="6" height="6" /></g>
        <g transform="translate(295,415) scale(4.12)"><rect width="6" height="6" /></g>
        <g transform="translate(319,415) scale(4.12)"><rect width="6" height="6" /></g>
        <g transform="translate(343,415) scale(4.12)"><rect width="6" height="6" /></g>
        <g transform="translate(391,415) scale(4.12)"><rect width="6" height="6" /></g>
        <g transform="translate(439,415) scale(4.12)"><rect width="6" height="6" /></g>
        <g transform="translate(535,415) scale(4.12)"><rect width="6" height="6" /></g>
        <g transform="translate(559,415) scale(4.12)"><rect width="6" height="6" /></g>
        <g transform="translate(583,415) scale(4.12)"><rect width="6" height="6" /></g>
        <g transform="translate(607,415) scale(4.12)"><rect width="6" height="6" /></g>
        <g transform="translate(631,415) scale(4.12)"><rect width="6" height="6" /></g>
        <g transform="translate(655,415) scale(4.12)"><rect width="6" height="6" /></g>
        <g transform="translate(679,415) scale(4.12)"><rect width="6" height="6" /></g>
        <g transform="translate(727,415) scale(4.12)"><rect width="6" height="6" /></g>
        <g transform="translate(751,415) scale(4.12)"><rect width="6" height="6" /></g>
        <g transform="translate(175,439) scale(4.12)"><rect width="6" height="6" /></g>
        <g transform="translate(223,439) scale(4.12)"><rect width="6" height="6" /></g>
        <g transform="translate(271,439) scale(4.12)"><rect width="6" height="6" /></g>
        <g transform="translate(367,439) scale(4.12)"><rect width="6" height="6" /></g>
        <g transform="translate(391,439) scale(4.12)"><rect width="6" height="6" /></g>
        <g transform="translate(439,439) scale(4.12)"><rect width="6" height="6" /></g>
        <g transform="translate(511,439) scale(4.12)"><rect width="6" height="6" /></g>
        <g transform="translate(559,439) scale(4.12)"><rect width="6" height="6" /></g>
        <g transform="translate(607,439) scale(4.12)"><rect width="6" height="6" /></g>
        <g transform="translate(751,439) scale(4.12)"><rect width="6" height="6" /></g>
        <g transform="translate(319,463) scale(4.12)"><rect width="6" height="6" /></g>
        <g transform="translate(343,463) scale(4.12)"><rect width="6" height="6" /></g>
        <g transform="translate(391,463) scale(4.12)"><rect width="6" height="6" /></g>
        <g transform="translate(415,463) scale(4.12)"><rect width="6" height="6" /></g>
        <g transform="translate(583,463) scale(4.12)"><rect width="6" height="6" /></g>
        <g transform="translate(607,463) scale(4.12)"><rect width="6" height="6" /></g>
        <g transform="translate(631,463) scale(4.12)"><rect width="6" height="6" /></g>
        <g transform="translate(655,463) scale(4.12)"><rect width="6" height="6" /></g>
        <g transform="translate(703,463) scale(4.12)"><rect width="6" height="6" /></g>
        <g transform="translate(727,463) scale(4.12)"><rect width="6" height="6" /></g>
        <g transform="translate(751,463) scale(4.12)"><rect width="6" height="6" /></g>
        <g transform="translate(175,487) scale(4.12)"><rect width="6" height="6" /></g>
        <g transform="translate(199,487) scale(4.12)"><rect width="6" height="6" /></g>
        <g transform="translate(223,487) scale(4.12)"><rect width="6" height="6" /></g>
        <g transform="translate(247,487) scale(4.12)"><rect width="6" height="6" /></g>
        <g transform="translate(271,487) scale(4.12)"><rect width="6" height="6" /></g>
        <g transform="translate(343,487) scale(4.12)"><rect width="6" height="6" /></g>
        <g transform="translate(415,487) scale(4.12)"><rect width="6" height="6" /></g>
        <g transform="translate(439,487) scale(4.12)"><rect width="6" height="6" /></g>
        <g transform="translate(463,487) scale(4.12)"><rect width="6" height="6" /></g>
        <g transform="translate(511,487) scale(4.12)"><rect width="6" height="6" /></g>
        <g transform="translate(559,487) scale(4.12)"><rect width="6" height="6" /></g>
        <g transform="translate(583,487) scale(4.12)"><rect width="6" height="6" /></g>
        <g transform="translate(679,487) scale(4.12)"><rect width="6" height="6" /></g>
        <g transform="translate(727,487) scale(4.12)"><rect width="6" height="6" /></g>
        <g transform="translate(175,511) scale(4.12)"><rect width="6" height="6" /></g>
        <g transform="translate(223,511) scale(4.12)"><rect width="6" height="6" /></g>
        <g transform="translate(295,511) scale(4.12)"><rect width="6" height="6" /></g>
        <g transform="translate(319,511) scale(4.12)"><rect width="6" height="6" /></g>
        <g transform="translate(391,511) scale(4.12)"><rect width="6" height="6" /></g>
        <g transform="translate(415,511) scale(4.12)"><rect width="6" height="6" /></g>
        <g transform="translate(535,511) scale(4.12)"><rect width="6" height="6" /></g>
        <g transform="translate(559,511) scale(4.12)"><rect width="6" height="6" /></g>
        <g transform="translate(607,511) scale(4.12)"><rect width="6" height="6" /></g>
        <g transform="translate(631,511) scale(4.12)"><rect width="6" height="6" /></g>
        <g transform="translate(655,511) scale(4.12)"><rect width="6" height="6" /></g>
        <g transform="translate(679,511) scale(4.12)"><rect width="6" height="6" /></g>
        <g transform="translate(727,511) scale(4.12)"><rect width="6" height="6" /></g>
        <g transform="translate(751,511) scale(4.12)"><rect width="6" height="6" /></g>
        <g transform="translate(175,535) scale(4.12)"><rect width="6" height="6" /></g>
        <g transform="translate(223,535) scale(4.12)"><rect width="6" height="6" /></g>
        <g transform="translate(295,535) scale(4.12)"><rect width="6" height="6" /></g>
        <g transform="translate(343,535) scale(4.12)"><rect width="6" height="6" /></g>
        <g transform="translate(367,535) scale(4.12)"><rect width="6" height="6" /></g>
        <g transform="translate(391,535) scale(4.12)"><rect width="6" height="6" /></g>
        <g transform="translate(439,535) scale(4.12)"><rect width="6" height="6" /></g>
        <g transform="translate(511,535) scale(4.12)"><rect width="6" height="6" /></g>
        <g transform="translate(583,535) scale(4.12)"><rect width="6" height="6" /></g>
        <g transform="translate(607,535) scale(4.12)"><rect width="6" height="6" /></g>
        <g transform="translate(631,535) scale(4.12)"><rect width="6" height="6" /></g>
        <g transform="translate(655,535) scale(4.12)"><rect width="6" height="6" /></g>
        <g transform="translate(751,535) scale(4.12)"><rect width="6" height="6" /></g>
        <g transform="translate(175,559) scale(4.12)"><rect width="6" height="6" /></g>
        <g transform="translate(247,559) scale(4.12)"><rect width="6" height="6" /></g>
        <g transform="translate(271,559) scale(4.12)"><rect width="6" height="6" /></g>
        <g transform="translate(295,559) scale(4.12)"><rect width="6" height="6" /></g>
        <g transform="translate(319,559) scale(4.12)"><rect width="6" height="6" /></g>
        <g transform="translate(391,559) scale(4.12)"><rect width="6" height="6" /></g>
        <g transform="translate(415,559) scale(4.12)"><rect width="6" height="6" /></g>
        <g transform="translate(439,559) scale(4.12)"><rect width="6" height="6" /></g>
        <g transform="translate(463,559) scale(4.12)"><rect width="6" height="6" /></g>
        <g transform="translate(487,559) scale(4.12)"><rect width="6" height="6" /></g>
        <g transform="translate(535,559) scale(4.12)"><rect width="6" height="6" /></g>
        <g transform="translate(559,559) scale(4.12)"><rect width="6" height="6" /></g>
        <g transform="translate(583,559) scale(4.12)"><rect width="6" height="6" /></g>
        <g transform="translate(607,559) scale(4.12)"><rect width="6" height="6" /></g>
        <g transform="translate(631,559) scale(4.12)"><rect width="6" height="6" /></g>
        <g transform="translate(655,559) scale(4.12)"><rect width="6" height="6" /></g>
        <g transform="translate(703,559) scale(4.12)"><rect width="6" height="6" /></g>
        <g transform="translate(367,583) scale(4.12)"><rect width="6" height="6" /></g>
        <g transform="translate(415,583) scale(4.12)"><rect width="6" height="6" /></g>
        <g transform="translate(439,583) scale(4.12)"><rect width="6" height="6" /></g>
        <g transform="translate(463,583) scale(4.12)"><rect width="6" height="6" /></g>
        <g transform="translate(535,583) scale(4.12)"><rect width="6" height="6" /></g>
        <g transform="translate(559,583) scale(4.12)"><rect width="6" height="6" /></g>
        <g transform="translate(655,583) scale(4.12)"><rect width="6" height="6" /></g>
        <g transform="translate(679,583) scale(4.12)"><rect width="6" height="6" /></g>
        <g transform="translate(367,607) scale(4.12)"><rect width="6" height="6" /></g>
        <g transform="translate(391,607) scale(4.12)"><rect width="6" height="6" /></g>
        <g transform="translate(415,607) scale(4.12)"><rect width="6" height="6" /></g>
        <g transform="translate(439,607) scale(4.12)"><rect width="6" height="6" /></g>
        <g transform="translate(559,607) scale(4.12)"><rect width="6" height="6" /></g>
        <g transform="translate(607,607) scale(4.12)"><rect width="6" height="6" /></g>
        <g transform="translate(655,607) scale(4.12)"><rect width="6" height="6" /></g>
        <g transform="translate(703,607) scale(4.12)"><rect width="6" height="6" /></g>
        <g transform="translate(727,607) scale(4.12)"><rect width="6" height="6" /></g>
        <g transform="translate(751,607) scale(4.12)"><rect width="6" height="6" /></g>
        <g transform="translate(367,631) scale(4.12)"><rect width="6" height="6" /></g>
        <g transform="translate(391,631) scale(4.12)"><rect width="6" height="6" /></g>
        <g transform="translate(439,631) scale(4.12)"><rect width="6" height="6" /></g>
        <g transform="translate(511,631) scale(4.12)"><rect width="6" height="6" /></g>
        <g transform="translate(559,631) scale(4.12)"><rect width="6" height="6" /></g>
        <g transform="translate(655,631) scale(4.12)"><rect width="6" height="6" /></g>
        <g transform="translate(679,631) scale(4.12)"><rect width="6" height="6" /></g>
        <g transform="translate(751,631) scale(4.12)"><rect width="6" height="6" /></g>
        <g transform="translate(367,655) scale(4.12)"><rect width="6" height="6" /></g>
        <g transform="translate(391,655) scale(4.12)"><rect width="6" height="6" /></g>
        <g transform="translate(415,655) scale(4.12)"><rect width="6" height="6" /></g>
        <g transform="translate(463,655) scale(4.12)"><rect width="6" height="6" /></g>
        <g transform="translate(487,655) scale(4.12)"><rect width="6" height="6" /></g>
        <g transform="translate(511,655) scale(4.12)"><rect width="6" height="6" /></g>
        <g transform="translate(535,655) scale(4.12)"><rect width="6" height="6" /></g>
        <g transform="translate(559,655) scale(4.12)"><rect width="6" height="6" /></g>
        <g transform="translate(583,655) scale(4.12)"><rect width="6" height="6" /></g>
        <g transform="translate(607,655) scale(4.12)"><rect width="6" height="6" /></g>
        <g transform="translate(631,655) scale(4.12)"><rect width="6" height="6" /></g>
        <g transform="translate(655,655) scale(4.12)"><rect width="6" height="6" /></g>
        <g transform="translate(703,655) scale(4.12)"><rect width="6" height="6" /></g>
        <g transform="translate(751,655) scale(4.12)"><rect width="6" height="6" /></g>
        <g transform="translate(367,679) scale(4.12)"><rect width="6" height="6" /></g>
        <g transform="translate(391,679) scale(4.12)"><rect width="6" height="6" /></g>
        <g transform="translate(487,679) scale(4.12)"><rect width="6" height="6" /></g>
        <g transform="translate(511,679) scale(4.12)"><rect width="6" height="6" /></g>
        <g transform="translate(535,679) scale(4.12)"><rect width="6" height="6" /></g>
        <g transform="translate(559,679) scale(4.12)"><rect width="6" height="6" /></g>
        <g transform="translate(583,679) scale(4.12)"><rect width="6" height="6" /></g>
        <g transform="translate(607,679) scale(4.12)"><rect width="6" height="6" /></g>
        <g transform="translate(655,679) scale(4.12)"><rect width="6" height="6" /></g>
        <g transform="translate(679,679) scale(4.12)"><rect width="6" height="6" /></g>
        <g transform="translate(703,679) scale(4.12)"><rect width="6" height="6" /></g>
        <g transform="translate(727,679) scale(4.12)"><rect width="6" height="6" /></g>
        <g transform="translate(751,679) scale(4.12)"><rect width="6" height="6" /></g>
        <g transform="translate(367,703) scale(4.12)"><rect width="6" height="6" /></g>
        <g transform="translate(391,703) scale(4.12)"><rect width="6" height="6" /></g>
        <g transform="translate(511,703) scale(4.12)"><rect width="6" height="6" /></g>
        <g transform="translate(559,703) scale(4.12)"><rect width="6" height="6" /></g>
        <g transform="translate(583,703) scale(4.12)"><rect width="6" height="6" /></g>
        <g transform="translate(679,703) scale(4.12)"><rect width="6" height="6" /></g>
        <g transform="translate(703,703) scale(4.12)"><rect width="6" height="6" /></g>
        <g transform="translate(751,703) scale(4.12)"><rect width="6" height="6" /></g>
        <g transform="translate(367,727) scale(4.12)"><rect width="6" height="6" /></g>
        <g transform="translate(391,727) scale(4.12)"><rect width="6" height="6" /></g>
        <g transform="translate(415,727) scale(4.12)"><rect width="6" height="6" /></g>
        <g transform="translate(487,727) scale(4.12)"><rect width="6" height="6" /></g>
        <g transform="translate(535,727) scale(4.12)"><rect width="6" height="6" /></g>
        <g transform="translate(559,727) scale(4.12)"><rect width="6" height="6" /></g>
        <g transform="translate(607,727) scale(4.12)"><rect width="6" height="6" /></g>
        <g transform="translate(631,727) scale(4.12)"><rect width="6" height="6" /></g>
        <g transform="translate(655,727) scale(4.12)"><rect width="6" height="6" /></g>
        <g transform="translate(679,727) scale(4.12)"><rect width="6" height="6" /></g>
        <g transform="translate(751,727) scale(4.12)"><rect width="6" height="6" /></g>
        <g transform="translate(391,751) scale(4.12)"><rect width="6" height="6" /></g>
        <g transform="translate(463,751) scale(4.12)"><rect width="6" height="6" /></g>
        <g transform="translate(487,751) scale(4.12)"><rect width="6" height="6" /></g>
        <g transform="translate(535,751) scale(4.12)"><rect width="6" height="6" /></g>
        <g transform="translate(631,751) scale(4.12)"><rect width="6" height="6" /></g>
        <g transform="translate(655,751) scale(4.12)"><rect width="6" height="6" /></g>
        <g transform="translate(679,751) scale(4.12)"><rect width="6" height="6" /></g>
        <g transform="translate(703,751) scale(4.12)"><rect width="6" height="6" /></g>
        <g transform="translate(727,751) scale(4.12)"><rect width="6" height="6" /></g>
        <g transform="translate(751,751) scale(4.12)"><rect width="6" height="6" /></g>
        <g transform="translate(175,175)">
            <g transform="scale(12)"><path d="M0,0v14h14V0H0z M12,12H2V2h10V12z" /></g>
        </g>
        <g transform="translate(607,175)">
            <g transform="scale(12)"><path d="M0,0v14h14V0H0z M12,12H2V2h10V12z" /></g>
        </g>
        <g transform="translate(175,607)">
            <g transform="scale(12)"><path d="M0,0v14h14V0H0z M12,12H2V2h10V12z" /></g>
        </g>
        <g transform="translate(223,223)">
            <g transform="scale(12)"><rect width="6" height="6" /></g>
        </g>
        <g transform="translate(655,223)">
            <g transform="scale(12)"><rect width="6" height="6" /></g>
        </g>
        <g transform="translate(223,655)">
            <g transform="scale(12)"><rect width="6" height="6" /></g>
        </g>
    </g>
    <g fill="#d46360" transform="scale(39.583333333333)">
        <path
            d="M5.064,22.696c-.425,0-.8-.008-1.123-.023-1.082-.051-1.293-.174-1.355-.275-.28-.451-.481-5.033-.535-8.142,0-.037.029-.067.065-.067,0,0,0,0,.001,0,.036,0,.066.029.066.065.062,3.599.283,7.702.515,8.074.023.037.181.162,1.249.212.696.033,1.64.03,2.804-.008,2.091-.069,4.644-.248,6.504-.454,3.453-.384,7.874-.664,8.002-.672.117-.017.299-.168.499-.785.636-1.957.902-6.766.936-10.29.043-4.458-.241-7.871-.691-8.299-.481-.459-3.852-.672-9.017-.57-4.12.081-8.512.36-9.213.585-.427.137-.774.911-1.03,2.3-.007.036-.041.06-.077.053-.036-.007-.06-.041-.053-.077.27-1.462.636-2.248,1.12-2.403.724-.232,5.047-.508,9.251-.591,3.101-.061,8.408-.064,9.112.606.595.567.766,4.878.732,8.397-.034,3.533-.301,8.359-.942,10.33-.182.559-.381.845-.61.875h-.005c-.045.003-4.515.285-7.998.672-1.864.207-4.421.386-6.515.455-.629.021-1.195.031-1.692.031Z"
        />
        <path
            d="M7.485,22.392c-.621,0-1.2-.01-1.72-.03-.782-.03-1.411-.082-1.87-.155-.534-.085-.826-.193-.917-.34-.263-.424-1.013-4.331-1.363-7.417-.004-.036.022-.069.058-.073.037-.004.069.022.073.058.342,3.01,1.093,6.957,1.344,7.362.259.417,3.547.576,7.819.379,4.1-.19,9.548-.236,9.735-.238.103-.016.258-.142.424-.642.48-1.451.767-5.363.767-10.465,0-2.056-.048-4.058-.136-5.637-.13-2.34-.283-2.602-.313-2.63-.041-.04-.366-.176-2.847-.267-1.556-.057-3.663-.085-5.934-.08-4.163.01-8.746.137-9.45.363-.393.126-.718.793-.968,1.984-.008.036-.043.059-.079.051-.036-.008-.059-.043-.051-.079.264-1.258.609-1.94,1.057-2.083.75-.24,5.445-.36,9.49-.369,2.273-.005,4.382.023,5.939.08,2.724.1,2.877.248,2.935.304.053.051.123.195.204.854.056.46.106,1.087.149,1.864.088,1.581.136,3.585.136,5.644,0,2.294-.06,4.434-.174,6.187-.134,2.069-.336,3.522-.6,4.319-.154.465-.329.705-.536.733h-.008c-.055.001-5.586.047-9.734.238-1.208.056-2.379.084-3.431.084Z"
        />
        <path
            d="M1.778,12.201c-.012,0-.025-.004-.036-.011-.029-.02-.037-.06-.017-.089.011-.017,1.141-1.691.988-3.375-.035-.385-.17-.638-.312-.906-.16-.299-.325-.609-.343-1.111-.034-.951,1.099-1.664,1.148-1.693.03-.019.07-.009.088.021.019.03.009.07-.021.088-.011.007-1.118.704-1.087,1.58.017.472.168.755.328,1.055.142.267.29.544.327.954.082.906-.197,1.798-.446,2.387-.269.637-.552,1.054-.564,1.072-.012.018-.033.028-.053.028Z"
        />
        <path d="M2.404,7.267s-.491-.344-.969-.046c-.478.299-.29.896-.42,1.35-.13.454-.442.605-.442.605,0,0,.729.156,1.286-.254s.808-.789.544-1.655Z" style="fill: #779775;" />
        <path d="M2.286,4.074s.591-.691,1.122-.453c.531.238.604,1.281.128,1.775-.476.494-1.391,1.098-1.391,1.098,0,0-1.235-.723-1.464-1.629-.213-.844.302-1.275.576-1.329.632-.123.846.464,1.029.538Z" />
        <path d="M2.454,11.249s-.627-.292-1.105.049-.49,1.057-.622,1.454c-.132.397-.405.676-.359.688s.749.094,1.367-.301c.543-.347,1.224-1.21.72-1.89Z" style="fill: #779775;" />
        <path d="M2.59,8.838s.448-.151.748.117c.299.268.254.755.314,1.035.06.28.224.49.193.494-.032.005-.516.008-.907-.308-.343-.276-.741-.914-.347-1.339Z" style="fill: #779775;" />
    </g>
    <g><text fill="#000000" font-family="Arial, Helvetica, sans-serif" font-size="98.958333333333px" text-anchor="middle" x="475" y="87.540064102564" transform="translate(0,910.41666666667)">SCAN ME</text></g>
    <script xmlns="" />
</svg>
