<svg xmlns="http://www.w3.org/2000/svg" xmlns:xlink="http://www.w3.org/1999/xlink" xml:space="preserve" width="1027.0833333333" height="1148.46875" viewBox="0 0 1027.0833333333 1148.46875">
    <rect width="100%" height="100%" fill="#ffffff" x="0" y="0" />
    <g transform="scale(42.795138888889)" fill="#7f5b54">
        <path
            d="M21.481,9.205c-.789-4.177-2.954-5.664-4.726-5.664-.008,0-.015,0-.023,0-.835.006-1.362.344-1.92.701-.443.284-.893.549-1.401.701-1.311.394-2.807.217-3.983-.48-.115-.068-.228-.139-.338-.207-.559-.348-1.137-.709-1.91-.714-.008,0-.015,0-.023,0-3.498,0-4.902,4.635-4.849,7.451.043,2.292.813,4.528,1.947,6.52.125-.076.249-.152.374-.228-.835-1.505-1.485-3.128-1.753-4.828-.32-2.026-.044-4.135.903-5.966.63-1.218,1.707-2.38,3.153-2.497.075-.006.149-.009.224-.009.007,0,.013,0,.02,0,.647.005,1.125.302,1.679.647.112.07.228.142.347.212,1.494.885,3.524,1.013,5.084.223.264-.134.515-.292.764-.452.524-.336.977-.626,1.684-.631.007,0,.013,0,.02,0,1.594,0,3.551,1.392,4.29,5.303.346,1.83.009,3.71-.601,5.447-.528,1.503-1.155,2.54-1.162,2.55l.378.231c.026-.043.655-1.08,1.198-2.624.504-1.431,1.02-3.579.622-5.686Z"
        />
        <path
            d="M19.067,16.867l-.094-.059c.006-.01.611-.98,1.115-2.371.675-1.861.869-3.563.577-5.057-.706-3.619-2.572-4.908-4.082-4.908h-.018c-.666.005-1.097.272-1.595.581-.247.153-.489.301-.742.425-1.48.726-3.471.641-4.954-.21-.115-.066-.227-.134-.335-.199-.527-.318-.982-.592-1.591-.597h-.019c-.07,0-.141.003-.212.008-1.664.13-2.649,1.654-2.996,2.303-.873,1.636-1.18,3.602-.865,5.537.234,1.438.801,2.949,1.683,4.49l-.096.055c-.889-1.553-1.46-3.076-1.697-4.527-.319-1.959-.008-3.95.877-5.607.355-.665,1.366-2.227,3.085-2.361.074-.006.148-.009.22-.009h.019c.64.005,1.106.286,1.647.612.108.065.22.133.333.198,1.452.834,3.401.916,4.85.206.248-.122.488-.268.732-.419.513-.318.955-.593,1.652-.598h.019c1.555,0,3.472,1.313,4.191,4.997.295,1.515.1,3.236-.582,5.116-.508,1.402-1.119,2.382-1.125,2.392Z"
        />
        <path d="M2.656,12.295s-.088-1.165.578-2.245,1.279-1.328,1.279-1.328c0,0-.161,2.351-1.857,3.573Z" style="fill: #a4b541;" />
        <path d="M2.632,12.328s.283-.79,1.035-1.304,1.227-.498,1.227-.498c0,0-.792,1.496-2.262,1.802Z" style="fill: #d8c856;" />
        <path
            d="M1.431,8.726c-.347,1.106.131,2.231.63,3.206.151.296.311.588.482.874.027.046.099.004.072-.042-.287-.481-.552-.98-.78-1.492-.226-.506-.405-1.043-.434-1.6-.016-.313.017-.625.111-.925.016-.051-.064-.073-.08-.022h0Z"
            style="fill: #6a7f41;"
        />
        <path d="M2.234,12.175s-.512.171-.879-.333-.528-.798-.706-.853l-.177-.055s.681-.192,1.119.242.643.999.643.999Z" style="fill: #6a7f41;" />
        <path d="M1.799,11.296s-.477-.643-.877-.844-.944-.117-.944-.117c0,0,.151-.674.715-.467s1.106,1.427,1.106,1.427Z" style="fill: #6a7f41;" />
        <path d="M2.234,12.175s.012-.506.179-.891.859-.331.859-.331c0,0-.853-.789-1.195-.227s.157,1.448.157,1.448Z" style="fill: #6a7f41;" />
        <path d="M1.778,11.268s-.15-.865,0-1.269.559-.76.559-.76c0,0-.508-.248-.756.228s.197,1.8.197,1.8Z" style="fill: #3c4f2c;" />
        <path
            d="M1.37,9.229s-.768-.549-.699-.808.313-.051.313-.051c0,0-.051-.282.055-.371s.191.093.191.093c0,0,.014-.339.156-.427s.156.239.156.239c0,0,.147-.258.249-.167s.018.308.018.308c0,0,.175-.135.229.012s-.102.391-.102.391c0,0,.241-.118.243.071s-.393.559-.811.711Z"
            style="fill: #ffb871;"
        />
        <path
            d="M1.373,9.318s-.463-.33-.421-.487.189-.031.189-.031c0,0-.031-.17.033-.224s.115.056.115.056c0,0,.008-.204.094-.257s.094.144.094.144c0,0,.089-.156.15-.1s.011.185.011.185c0,0,.105-.081.138.007s-.061.235-.061.235c0,0,.145-.071.146.043s-.237.337-.488.428Z"
            style="fill: #c14f40;"
        />
        <path d="M3.533,6.495s.26-2.015.78-2.774,1.238-1.253,1.238-1.253c0,0-.714,2.146-1.146,2.761s-.871,1.266-.871,1.266Z" style="fill: #a4b541;" />
        <path d="M3.362,7.165s2.009-.493,2.78-.995,1.598-1.307,1.598-1.307c0,0-2.47,1.04-3.094,1.459s-1.284.844-1.284.844Z" style="fill: #d8c856;" />
        <path d="M7.031,3.068s-1.181.687-1.97,1.598c-.584.675-1.608,2.237-1.608,2.237-.171.135,1.152-.532,2.473-1.879.58-.591,1.104-1.956,1.104-1.956Z" style="fill: #a4b541;" />
        <path d="M3.211,7.228s.507-.59.254-1.74.233-1.817.233-1.817c0,0-.776.645-.827,2.325-.043,1.407-.201,1.979-.201,1.979l.541-.746Z" style="fill: #d8c856;" />
        <path d="M2.722,7.845s1.095-.661,1.97-.879,1.84-.267,2.604-.377c0,0-1.177.849-2.765,1.094-.92.142-1.809.162-1.809.162Z" style="fill: #a4b541;" />
        <path
            d="M4.351,4.534c-.212.358-.422.722-.557,1.117-.069.201-.094.412-.16.613-.066.204-.207.376-.309.562s-.19.379-.295.563c-.107.188-.227.368-.33.559-.193.358-.312.763-.317,1.172-.002.225.038.445.134.648.093.198.226.385.251.607.006.053.089.053.083,0-.02-.181-.101-.339-.185-.498-.099-.186-.174-.372-.193-.584-.037-.413.068-.845.252-1.214.095-.19.21-.368.319-.55s.201-.373.299-.561c.093-.179.213-.343.304-.522.095-.187.117-.395.172-.596.124-.457.364-.871.603-1.276.027-.046-.044-.088-.072-.042h0Z"
            style="fill: #6a7f41;"
        />
        <path d="M2.808,7.88c1-.307,2.022-.538,3.057-.69.053-.008.03-.088-.022-.08-1.035.152-2.057.383-3.057.69-.051.016-.029.096.022.08h0Z" style="fill: #6a7f41;" />
        <path
            d="M5.697,6.084c-.217.106-.439.205-.664.293-.214.084-.433.155-.647.239-.414.163-.795.388-1.196.576-.048.023-.006.094.042.072.411-.193.799-.424,1.225-.587.215-.082.434-.155.648-.24.215-.086.427-.18.635-.282.048-.023.006-.095-.042-.072h0Z"
            style="fill: #6a7f41;"
        />
        <path d="M3.137,5.666c.028.542.005,1.086-.071,1.623-.007.052.073.075.08.022.077-.545.103-1.095.074-1.645-.003-.053-.086-.053-.083,0h0Z" style="fill: #6a7f41;" />
        <path
            d="M5.434,4.68c-.199.411-.537.736-.854,1.058-.34.346-.686.686-1.033,1.025-.128.125-.256.249-.385.373-.039.037.02.096.059.059.612-.588,1.23-1.177,1.806-1.801.186-.202.359-.423.479-.671.023-.048-.048-.09-.072-.042h0Z"
            style="fill: #6a7f41;"
        />
        <path
            d="M1.024,13.016c.17,1.131,1.078,1.927,1.942,2.579.276.208.558.409.848.598.045.029.086-.043.042-.072-.487-.318-.962-.663-1.404-1.04-.415-.354-.799-.755-1.059-1.239-.143-.265-.243-.551-.288-.849-.008-.053-.088-.03-.08.022h0Z"
            style="fill: #6a7f41;"
        />
        <path d="M3.257,15.759s-.385.379-.936.087-.824-.485-1.008-.457l-.184.028s.528-.471,1.112-.273,1.016.615,1.016.615Z" style="fill: #3c4f2c;" />
        <path d="M2.48,15.16s-.711-.369-1.158-.374-.9.309-.9.309c0,0-.16-.672.438-.733s1.62.798,1.62.798Z" style="fill: #6a7f41;" />
        <path d="M3.257,15.759s-.211-.46-.23-.879.627-.674.627-.674c0,0-1.113-.334-1.174.32s.777,1.232.777,1.232Z" style="fill: #6a7f41;" />
        <path d="M2.449,15.144s-.515-.711-.557-1.14.17-.928.17-.928c0,0-.565,0-.579.537s.967,1.531.967,1.531Z" style="fill: #3c4f2c;" />
        <path
            d="M1.188,13.491s-.931-.156-.983-.42.259-.184.259-.184c0,0-.17-.231-.113-.358s.212,0,.212,0c0,0-.137-.311-.047-.452s.245.146.245.146c0,0,.019-.297.151-.259s.151.269.151.269c0,0,.098-.198.211-.09s.08.396.08.396c0,0,.165-.212.25-.042s-.107.675-.416.995Z"
            style="fill: #ffb871;"
        />
        <path
            d="M1.23,13.569s-.561-.094-.592-.253.156-.111.156-.111c0,0-.102-.139-.068-.216s.128,0,.128,0c0,0-.082-.187-.028-.272s.148.088.148.088c0,0,.011-.179.091-.156s.091.162.091.162c0,0,.059-.119.127-.054s.048.238.048.238c0,0,.099-.128.15-.026s-.065.407-.251.599Z"
            style="fill: #c14f40;"
        />
        <path
            d="M4.651,11.98c-.791.824-.872,2.024-.862,3.105.003.348.017.696.044,1.043.004.053.087.053.083,0-.046-.586-.063-1.179-.033-1.767.028-.55.114-1.106.346-1.609.121-.262.28-.505.48-.714.037-.039-.022-.097-.059-.059h0Z"
            style="fill: #6a7f41;"
        />
        <path d="M3.837,15.428s-.535-.074-.64-.689-.119-.949-.253-1.077l-.135-.128s.695.13.895.714.133,1.181.133,1.181Z" style="fill: #3c4f2c;" />
        <path d="M3.838,14.447s-.142-.788-.411-1.146-.794-.524-.794-.524c0,0,.435-.537.848-.101s.357,1.77.357,1.77Z" style="fill: #6a7f41;" />
        <path d="M3.837,15.428s.235-.448.556-.718.916.085.916.085c0,0-.414-1.086-.97-.734s-.502,1.367-.502,1.367Z" style="fill: #6a7f41;" />
        <path d="M3.831,14.413s.249-.842.563-1.137.839-.432.839-.432c0,0-.345-.448-.779-.131s-.622,1.7-.622,1.7Z" style="fill: #3c4f2c;" />
        <path
            d="M4.371,12.405s-.445-.833-.267-1.035.304.093.304.093c0,0,.079-.275.215-.308s.129.168.129.168c0,0,.163-.298.329-.313s.034.283.034.283c0,0,.247-.166.297-.039s-.12.284-.12.284c0,0,.217-.043.2.113s-.265.305-.265.305c0,0,.269.001.186.172s-.6.327-1.042.277Z"
            style="fill: #ffb871;"
        />
        <path
            d="M4.334,12.486s-.268-.502-.161-.623.183.056.183.056c0,0,.048-.166.129-.186s.078.101.078.101c0,0,.098-.179.198-.189s.02.171.02.171c0,0,.149-.1.179-.023s-.072.171-.072.171c0,0,.131-.026.12.068s-.159.184-.159.184c0,0,.162,0,.112.104s-.362.197-.628.167Z"
            style="fill: #c14f40;"
        />
        <path
            d="M2.307,10.206c-.159.22-.137.513.002.737.071.115.168.206.273.289.107.085.225.166.301.282.177.27.065.609-.117.843-.159.206-.418.366-.466.639-.044.247.078.511.301.629.047.025.089-.046.042-.072-.203-.108-.313-.357-.253-.58.035-.13.129-.233.221-.327.094-.096.189-.19.266-.301.146-.211.228-.483.144-.735-.083-.249-.314-.367-.495-.535-.226-.211-.344-.558-.147-.829.031-.043-.041-.085-.072-.042h0Z"
            style="fill: #6a7f41;"
        />
        <circle cx="2.835" cy="12.23" r=".22" style="fill: #f4f0ed;" />
        <circle cx="2.322" cy="11.444" r=".176" style="fill: #f4f0ed;" />
        <circle cx="2.396" cy="10.257" r=".119" style="fill: #f4f0ed;" />
        <circle cx="2.876" cy="9.362" r=".223" style="fill: #f4f0ed;" />
        <path d="M21.34,12.51s.088-1.165-.578-2.245-1.279-1.328-1.279-1.328c0,0,.161,2.351,1.857,3.573Z" style="fill: #a4b541;" />
        <path d="M21.364,12.544s-.283-.79-1.035-1.304-1.227-.498-1.227-.498c0,0,.792,1.496,2.262,1.802Z" style="fill: #d8c856;" />
        <path
            d="M22.485,8.964c.344,1.097-.144,2.213-.639,3.178-.146.284-.3.564-.464.839-.027.046.044.088.072.042.298-.499.573-1.018.806-1.551.221-.506.394-1.04.419-1.596.015-.315-.02-.632-.114-.934-.016-.051-.096-.029-.08.022h0Z"
            style="fill: #6a7f41;"
        />
        <path d="M21.762,12.391s.512.171.879-.333.528-.798.706-.853l.177-.055s-.681-.192-1.119.242-.643.999-.643.999Z" style="fill: #6a7f41;" />
        <path d="M22.197,11.512s.477-.643.877-.844.944-.117.944-.117c0,0-.151-.674-.715-.467s-1.106,1.427-1.106,1.427Z" style="fill: #6a7f41;" />
        <path d="M21.762,12.391s-.012-.506-.179-.891-.859-.331-.859-.331c0,0,.853-.789,1.195-.227s-.157,1.448-.157,1.448Z" style="fill: #6a7f41;" />
        <path d="M22.218,11.484s.15-.865,0-1.269-.559-.76-.559-.76c0,0,.508-.248.756.228s-.197,1.8-.197,1.8Z" style="fill: #3c4f2c;" />
        <path
            d="M22.626,9.445s.768-.549.699-.808-.313-.051-.313-.051c0,0,.051-.282-.055-.371s-.191.093-.191.093c0,0-.014-.339-.156-.427s-.156.239-.156.239c0,0-.147-.258-.249-.167s-.018.308-.018.308c0,0-.175-.135-.229.012s.102.391.102.391c0,0-.241-.118-.243.071s.393.559.811.711Z"
            style="fill: #ffb871;"
        />
        <path
            d="M22.623,9.534s.463-.33.421-.487-.189-.031-.189-.031c0,0,.031-.17-.033-.224s-.115.056-.115.056c0,0-.008-.204-.094-.257s-.094.144-.094.144c0,0-.089-.156-.15-.1s-.011.185-.011.185c0,0-.105-.081-.138.007s.061.235.061.235c0,0-.145-.071-.146.043s.237.337.488.428Z"
            style="fill: #c14f40;"
        />
        <path d="M20.463,6.711s-.26-2.015-.78-2.774-1.238-1.253-1.238-1.253c0,0,.714,2.146,1.146,2.761s.871,1.266.871,1.266Z" style="fill: #a4b541;" />
        <path d="M20.635,7.381s-2.009-.493-2.78-.995-1.598-1.307-1.598-1.307c0,0,2.47,1.04,3.094,1.459s1.284.844,1.284.844Z" style="fill: #d8c856;" />
        <path d="M16.965,3.284s1.181.687,1.97,1.598c.584.675,1.608,2.237,1.608,2.237.171.135-1.152-.532-2.473-1.879-.58-.591-1.104-1.956-1.104-1.956Z" style="fill: #a4b541;" />
        <path d="M20.786,7.444s-.507-.59-.254-1.74-.233-1.817-.233-1.817c0,0,.776.645.827,2.325.043,1.407.201,1.979.201,1.979l-.541-.746Z" style="fill: #d8c856;" />
        <path d="M21.274,8.06s-1.095-.661-1.97-.879-1.84-.267-2.604-.377c0,0,1.177.849,2.765,1.094.92.142,1.809.162,1.809.162Z" style="fill: #a4b541;" />
        <path
            d="M19.574,4.792c.214.363.429.731.56,1.133.066.201.087.416.16.614.068.185.191.342.286.512.104.185.191.378.295.563s.221.362.324.547c.204.365.331.779.33,1.199,0,.24-.058.46-.168.673-.093.179-.194.353-.217.558-.006.053.077.053.083,0,.021-.196.128-.365.216-.536.09-.176.147-.36.163-.558.033-.403-.066-.822-.237-1.186-.09-.192-.204-.371-.314-.552-.112-.186-.21-.378-.308-.571-.096-.188-.217-.36-.316-.545-.103-.194-.123-.413-.182-.622-.128-.455-.367-.868-.605-1.272-.027-.046-.099-.004-.072.042h0Z"
            style="fill: #6a7f41;"
        />
        <path d="M21.21,8.016c-1-.307-2.022-.538-3.057-.69-.052-.008-.075.072-.022.08,1.035.152,2.057.383,3.057.69.051.016.073-.064.022-.08h0Z" style="fill: #6a7f41;" />
        <path
            d="M18.257,6.371c.208.102.42.196.635.282.214.085.433.158.648.24.425.163.814.394,1.225.587.048.023.09-.049.042-.072-.401-.189-.782-.414-1.196-.576-.214-.084-.433-.156-.647-.239-.225-.088-.447-.186-.664-.293-.048-.023-.09.048-.042.072h0Z"
            style="fill: #6a7f41;"
        />
        <path d="M20.776,5.882c-.028.55-.003,1.1.074,1.645.007.053.087.03.08-.022-.076-.537-.099-1.081-.071-1.623.003-.053-.08-.053-.083,0h0Z" style="fill: #6a7f41;" />
        <path
            d="M18.491,4.938c.2.413.538.741.856,1.064.344.35.693.693,1.044,1.036.128.125.256.249.385.373.039.037.097-.022.059-.059-.607-.583-1.219-1.168-1.791-1.785-.187-.202-.361-.422-.481-.67-.023-.048-.095-.006-.072.042h0Z"
            style="fill: #6a7f41;"
        />
        <path
            d="M22.893,13.209c-.169,1.124-1.077,1.908-1.935,2.554-.266.2-.538.392-.816.574-.045.029-.003.101.042.072.496-.324.98-.676,1.431-1.061.42-.359.807-.767,1.068-1.258.143-.268.246-.557.291-.858.008-.052-.072-.075-.08-.022h0Z"
            style="fill: #6a7f41;"
        />
        <path d="M20.739,15.975s.385.379.936.087.824-.485,1.008-.457l.184.028s-.528-.471-1.112-.273-1.016.615-1.016.615Z" style="fill: #3c4f2c;" />
        <path d="M21.516,15.376s.711-.369,1.158-.374.9.309.9.309c0,0,.16-.672-.438-.733s-1.62.798-1.62.798Z" style="fill: #6a7f41;" />
        <path d="M20.739,15.975s.211-.46.23-.879-.627-.674-.627-.674c0,0,1.113-.334,1.174.32s-.777,1.232-.777,1.232Z" style="fill: #6a7f41;" />
        <path d="M21.547,15.36s.515-.711.557-1.14-.17-.928-.17-.928c0,0,.565,0,.579.537s-.967,1.531-.967,1.531Z" style="fill: #3c4f2c;" />
        <path
            d="M22.808,13.707s.931-.156.983-.42-.259-.184-.259-.184c0,0,.17-.231.113-.358s-.212,0-.212,0c0,0,.137-.311.047-.452s-.245.146-.245.146c0,0-.019-.297-.151-.259s-.151.269-.151.269c0,0-.098-.198-.211-.09s-.08.396-.08.396c0,0-.165-.212-.25-.042s.107.675.416.995Z"
            style="fill: #ffb871;"
        />
        <path
            d="M22.766,13.785s.561-.094.592-.253-.156-.111-.156-.111c0,0,.102-.139.068-.216s-.128,0-.128,0c0,0,.082-.187.028-.272s-.148.088-.148.088c0,0-.011-.179-.091-.156s-.091.162-.091.162c0,0-.059-.119-.127-.054s-.048.238-.048.238c0,0-.099-.128-.15-.026s.065.407.251.599Z"
            style="fill: #c14f40;"
        />
        <path
            d="M19.287,12.255c.781.814.849,2.008.837,3.074-.004.339-.018.678-.044,1.016-.004.053.079.053.083,0,.048-.608.065-1.224.03-1.833-.032-.551-.127-1.103-.364-1.605-.123-.261-.284-.502-.483-.71-.037-.039-.096.02-.059.059h0Z"
            style="fill: #6a7f41;"
        />
        <path d="M20.159,15.644s.535-.074.64-.689.119-.949.253-1.077l.135-.128s-.695.13-.895.714-.133,1.181-.133,1.181Z" style="fill: #3c4f2c;" />
        <path d="M20.159,14.663s.142-.788.411-1.146.794-.524.794-.524c0,0-.435-.537-.848-.101s-.357,1.77-.357,1.77Z" style="fill: #6a7f41;" />
        <path d="M20.159,15.644s-.235-.448-.556-.718-.916.085-.916.085c0,0,.414-1.086.97-.734s.502,1.367.502,1.367Z" style="fill: #6a7f41;" />
        <path d="M20.165,14.629s-.249-.842-.563-1.137-.839-.432-.839-.432c0,0,.345-.448.779-.131s.622,1.7.622,1.7Z" style="fill: #3c4f2c;" />
        <path
            d="M19.626,12.621s.445-.833.267-1.035-.304.093-.304.093c0,0-.079-.275-.215-.308s-.129.168-.129.168c0,0-.163-.298-.329-.313s-.034.283-.034.283c0,0-.247-.166-.297-.039s.12.284.12.284c0,0-.217-.043-.2.113s.265.305.265.305c0,0-.269.001-.186.172s.6.327,1.042.277Z"
            style="fill: #ffb871;"
        />
        <path
            d="M19.662,12.702s.268-.502.161-.623-.183.056-.183.056c0,0-.048-.166-.129-.186s-.078.101-.078.101c0,0-.098-.179-.198-.189s-.02.171-.02.171c0,0-.149-.1-.179-.023s.072.171.072.171c0,0-.131-.026-.12.068s.159.184.159.184c0,0-.162,0-.112.104s.362.197.628.167Z"
            style="fill: #c14f40;"
        />
        <path
            d="M21.617,10.464c.185.256.091.587-.116.799-.181.184-.431.297-.522.555-.096.27.004.563.168.784.085.114.189.208.285.312.083.089.178.201.172.33-.007.128-.081.251-.158.35-.08.102-.177.194-.292.255-.047.025-.005.096.042.072.2-.105.373-.304.455-.513.037-.094.053-.201.015-.298-.052-.132-.155-.237-.253-.335-.223-.224-.443-.51-.377-.848.061-.316.378-.429.569-.652.201-.236.278-.585.085-.851-.031-.043-.103-.001-.072.042h0Z"
            style="fill: #6a7f41;"
        />
        <circle cx="21.162" cy="12.445" r=".22" style="fill: #f4f0ed;" />
        <circle cx="21.674" cy="11.66" r=".176" style="fill: #f4f0ed;" />
        <circle cx="21.601" cy="10.473" r=".119" style="fill: #f4f0ed;" />
        <circle cx="21.121" cy="9.578" r=".223" style="fill: #f4f0ed;" />
        <path
            d="M10.52,24.268c-.516.142-1.032.25-1.565.327-2.329.337-3.749-.137-3.788-.209-.038-.073.3-.064.725-.137.425-.073,1.62-.517,1.691-.589.071-.073-.406.012-.979-.073-.573-.085-1.591-.461-1.72-.571-.129-.109-.103-.134,1.044-.376.478-.102,1.058-.277,1.863-.582.073-.028.147-.056.224-.086l2.505,2.296Z"
            style="fill: #6a7f41;"
        />
        <path
            d="M21.23,18.648c-.202.415-.514.74-.933.775-1.102.091-1.102.51-4.038,2.204-.372.215-.729.417-1.075.608-.623.343-1.206.648-1.765.916-1.02.491-1.958.859-2.899,1.118l-2.505-2.296c.486-.189,1.051-.423,1.717-.712.845-.367,1.854-.822,3.075-1.388.627-.291,1.175-.562,1.659-.813,2.606-1.357,3.337-2.17,4.435-2.672.605-.277,1.171-.212,1.604-.063,0,0,.002,0,.002,0,.033.027.367.305.413.702.048.419.067.674.183,1.148.03.121.079.285.128.473Z"
            style="fill: #869648;"
        />
        <path d="M13.419,23.151c-1.02.491-1.958.859-2.899,1.118l-2.505-2.296c.486-.189,1.051-.423,1.717-.712l3.688,1.89Z" style="fill: #3c4f2c;" />
        <path
            d="M19.627,22.77c-.129.109-1.146.486-1.719.571-.573.085-1.05,0-.979.073.071.073,1.266.516,1.691.589.425.073.764.063.725.137-.039.073-1.459.546-3.787.209-1.011-.146-1.968-.406-2.967-.792-1.301-.503-2.675-1.219-4.336-2.177-.55-.317-.997-.589-1.367-.823-1.609-1.016-1.776-1.307-2.671-1.38-1.101-.091-1.468-2.198-1.024-2.647,0,0,1.121-.983,2.422-.388,1.301.595,2.087,1.627,6.093,3.485.532.247,1.024.473,1.479.679h0c2.334,1.058,3.717,1.612,4.684,1.904.266.08.501.141.715.186,1.147.243,1.172.267,1.043.376Z"
            style="fill: #869648;"
        />
        <path d="M17.869,22.208l-5.28,1.349c-1.301-.503-2.675-1.219-4.336-2.177-.55-.317-.997-.589-1.367-.823.666-.071,3.536-.35,6.299-.252h0c2.334,1.058,3.717,1.612,4.684,1.904Z" style="fill: #6a7f41;" />
        <path
            d="M2.957,17.493c.017-.451.117-.812.233-.962-.022.04-.356.677.516.642.902-.036,2.653-.036,4.586.753,1.54.629,3.662,1.243,6.173,1.134.638-.028,1.302-.102,1.987-.235,3.381-.656,3.825-1.651,3.961-2.028.128-.355.095-.461.09-.472,0,0,0-.001,0-.001,0,0,0,0,.003.002.033.027.367.305.413.702.02.175.036.322.054.467-.476.512-1.535,1.172-4.015,1.685-.765.158-1.507.251-2.221.291-2.81.157-5.195-.501-6.93-1.184-1.979-.779-3.781-.83-4.85-.793Z"
            style="fill: #fff;"
        />
        <path
            d="M21.345,19.871c-.035.196-.11.378-.243.526-.417.463-2.38,1.444-5.918,1.838-1.055.118-2.251.183-3.588.166-1.473-.019-2.736-.149-3.805-.342-3.153-.567-4.616-1.672-4.774-2.026-.042-.093-.061-.186-.067-.281.751.565,2.169,1.303,4.38,1.773,1.129.24,2.465.411,4.025.452,1.416.038,2.684-.022,3.804-.146,3.501-.386,5.561-1.39,6.187-1.959Z"
            style="fill: #fff;"
        />
        <path
            d="M21.345,19.871c-.035.196-.11.378-.243.526-.417.463-2.38,1.444-5.918,1.838-1.055.118-2.251.183-3.588.166-1.473-.019-2.736-.149-3.805-.342-3.153-.567-4.616-1.672-4.774-2.026-.042-.093-.061-.186-.067-.281.751.565,2.169,1.303,4.38,1.773,1.129.24,2.465.411,4.025.452,1.416.038,2.684-.022,3.804-.146,3.501-.386,5.561-1.39,6.187-1.959Z"
            style="fill: #d8c856;"
        />
        <path
            d="M21.345,19.871c-.626.57-2.686,1.573-6.187,1.959-1.12.124-2.388.184-3.804.146-1.56-.042-2.896-.212-4.025-.452-2.212-.47-3.629-1.208-4.38-1.773-.022-.386.187-.806.067-1.449-.053-.284-.068-.56-.06-.809,1.069-.037,2.87.013,4.85.793,1.735.683,4.12,1.341,6.93,1.184.714-.04,1.456-.133,2.221-.291,2.481-.513,3.54-1.173,4.015-1.685.027.203.062.404.129.68.03.121.079.285.128.474.095.368.186.826.115,1.223Z"
            style="fill: #a4b541;"
        />
        <path
            d="M20.973,17.494c-.476.512-1.535,1.172-4.015,1.685-.765.158-1.507.251-2.221.291-2.81.157-5.195-.501-6.93-1.184-1.979-.779-3.781-.83-4.85-.793.017-.451.117-.812.233-.962-.022.04-.356.677.516.642.902-.036,2.653-.036,4.586.753,1.54.629,3.662,1.243,6.173,1.134.638-.028,1.302-.102,1.987-.235,3.381-.656,3.825-1.651,3.961-2.028.128-.355.095-.461.09-.472,0,0,0-.001,0-.001,0,0,0,0,.003.002.033.027.367.305.413.702.02.175.036.322.054.467Z"
            style="fill: #d8c856;"
        />
        <path
            d="M12.762,3.237c-.352.041-.625,1.059-.625,1.059,0,0-.117-.942-.404-.951s-.116,1.049-.116,1.049c0,0-.656-.669-.831-.49-.368.379.671.936.671.936,0,0-.976-.174-1.17.181-.207.379,1.243.159,1.243.159,0,0-.732.826-.431,1.103.301.276.767-.734.767-.734,0,0,.03,1.131.365,1.102.335-.029.217-1.17.217-1.17,0,0,.423.776.695.519.272-.258-.53-.81-.53-.81,0,0,1.195.397,1.107-.011-.088-.408-.996-.397-.996-.397,0,0,.903-.365.801-.642s-1.049.283-1.049.283c0,0,.577-1.219.285-1.185Z"
            style="fill: #e87e58;"
        />
        <path
            d="M12.162,2.963c-.34.171-.24,1.298-.24,1.298,0,0-.465-.906-.757-.81s.27,1.1.27,1.1c0,0-.908-.433-1.018-.188-.232.518,1.021.697,1.021.697,0,0-1.048.184-1.113.613-.069.458,1.312-.297,1.312-.297,0,0-.434,1.102-.029,1.27.405.168.502-1.022.502-1.022,0,0,.447,1.129.774.976.327-.153-.212-1.26-.212-1.26,0,0,.712.627.891.267.179-.36-.833-.622-.833-.622,0,0,1.35-.04,1.112-.418-.239-.379-1.15-.034-1.15-.034,0,0,.776-.7.571-.942s-.953.671-.953.671c0,0,.132-1.441-.149-1.299Z"
            style="fill: #ffb871;"
        />
        <path
            d="M12.624,5.067s.202.357.094.409c-.108.051-.344-.09-.344-.09,0,0-.051.325-.164.342-.113.017-.176-.185-.176-.185,0,0-.165.113-.272.058s-.028-.295-.028-.295c0,0-.358.036-.371-.05-.013-.086.298-.326.298-.326,0,0-.242-.07-.252-.139-.01-.069.297-.115.297-.115,0,0-.143-.296.016-.337.159-.041.236.035.236.035,0,0,.163-.236.314-.223.151.013.019.35.019.35,0,0,.437-.171.503-.058.066.113-.16.253-.16.253,0,0,.256-.056.263.102.007.158-.273.27-.273.27Z"
            style="fill: #c14f40;"
        />
        <path d="M12.058,5.267c-.185-.034-.308-.211-.275-.396s.211-.308.396-.275c.185.034.308.211.275.396s-.211.308-.396.275Z" style="fill: #82392f;" />
        <ellipse cx="20.534" cy="16.313" rx=".132" ry=".364" style="fill: #f4f0ed;" />
        <ellipse cx="20.534" cy="17.519" rx=".132" ry=".364" style="fill: #f4f0ed;" />
        <ellipse cx="19.895" cy="16.916" rx=".386" ry=".124" style="fill: #f4f0ed;" />
        <ellipse cx="21.174" cy="16.916" rx=".386" ry=".124" style="fill: #f4f0ed;" />
        <ellipse cx="21.088" cy="16.614" rx=".38" ry=".126" transform="translate(-5.348 11.935) rotate(-28.196)" style="fill: #e2ded9;" />
        <ellipse cx="19.981" cy="17.217" rx=".38" ry=".126" transform="translate(-5.764 11.483) rotate(-28.196)" style="fill: #e2ded9;" />
        <ellipse cx="20.215" cy="16.394" rx=".13" ry=".369" transform="translate(-5.61 13.158) rotate(-31.899)" style="fill: #e2ded9;" />
        <ellipse cx="20.854" cy="17.438" rx=".13" ry=".369" transform="translate(-6.065 13.654) rotate(-31.899)" style="fill: #e2ded9;" />
        <ellipse cx="20.854" cy="16.394" rx=".369" ry=".13" transform="translate(-4.084 25.436) rotate(-58.101)" style="fill: #ddd7d3;" />
        <ellipse cx="20.215" cy="17.438" rx=".369" ry=".13" transform="translate(-5.272 25.385) rotate(-58.101)" style="fill: #ddd7d3;" />
        <ellipse cx="19.981" cy="16.614" rx=".126" ry=".38" transform="translate(-4.103 26.374) rotate(-61.805)" style="fill: #ddd7d3;" />
        <ellipse cx="21.088" cy="17.217" rx=".126" ry=".38" transform="translate(-4.05 27.668) rotate(-61.805)" style="fill: #ddd7d3;" />
        <ellipse cx="20.534" cy="16.916" rx=".358" ry=".337" style="fill: #e87e58;" />
        <ellipse cx="20.526" cy="16.916" rx=".262" ry=".247" style="fill: #82392f;" />
    </g>
    <g fill="#000000">
        <g transform="translate(437.04166666667,301.04166666667) scale(2.9183333333333)"><rect width="6" height="6" /></g>
        <g transform="translate(471.04166666667,301.04166666667) scale(2.9183333333333)"><rect width="6" height="6" /></g>
        <g transform="translate(556.04166666667,301.04166666667) scale(2.9183333333333)"><rect width="6" height="6" /></g>
        <g transform="translate(573.04166666667,301.04166666667) scale(2.9183333333333)"><rect width="6" height="6" /></g>
        <g transform="translate(454.04166666667,318.04166666667) scale(2.9183333333333)"><rect width="6" height="6" /></g>
        <g transform="translate(505.04166666667,318.04166666667) scale(2.9183333333333)"><rect width="6" height="6" /></g>
        <g transform="translate(488.04166666667,335.04166666667) scale(2.9183333333333)"><rect width="6" height="6" /></g>
        <g transform="translate(539.04166666667,335.04166666667) scale(2.9183333333333)"><rect width="6" height="6" /></g>
        <g transform="translate(573.04166666667,335.04166666667) scale(2.9183333333333)"><rect width="6" height="6" /></g>
        <g transform="translate(454.04166666667,352.04166666667) scale(2.9183333333333)"><rect width="6" height="6" /></g>
        <g transform="translate(505.04166666667,352.04166666667) scale(2.9183333333333)"><rect width="6" height="6" /></g>
        <g transform="translate(437.04166666667,369.04166666667) scale(2.9183333333333)"><rect width="6" height="6" /></g>
        <g transform="translate(454.04166666667,369.04166666667) scale(2.9183333333333)"><rect width="6" height="6" /></g>
        <g transform="translate(522.04166666667,369.04166666667) scale(2.9183333333333)"><rect width="6" height="6" /></g>
        <g transform="translate(539.04166666667,369.04166666667) scale(2.9183333333333)"><rect width="6" height="6" /></g>
        <g transform="translate(556.04166666667,369.04166666667) scale(2.9183333333333)"><rect width="6" height="6" /></g>
        <g transform="translate(437.04166666667,386.04166666667) scale(2.9183333333333)"><rect width="6" height="6" /></g>
        <g transform="translate(454.04166666667,386.04166666667) scale(2.9183333333333)"><rect width="6" height="6" /></g>
        <g transform="translate(471.04166666667,386.04166666667) scale(2.9183333333333)"><rect width="6" height="6" /></g>
        <g transform="translate(505.04166666667,386.04166666667) scale(2.9183333333333)"><rect width="6" height="6" /></g>
        <g transform="translate(522.04166666667,386.04166666667) scale(2.9183333333333)"><rect width="6" height="6" /></g>
        <g transform="translate(539.04166666667,386.04166666667) scale(2.9183333333333)"><rect width="6" height="6" /></g>
        <g transform="translate(556.04166666667,386.04166666667) scale(2.9183333333333)"><rect width="6" height="6" /></g>
        <g transform="translate(573.04166666667,386.04166666667) scale(2.9183333333333)"><rect width="6" height="6" /></g>
        <g transform="translate(437.04166666667,403.04166666667) scale(2.9183333333333)"><rect width="6" height="6" /></g>
        <g transform="translate(471.04166666667,403.04166666667) scale(2.9183333333333)"><rect width="6" height="6" /></g>
        <g transform="translate(505.04166666667,403.04166666667) scale(2.9183333333333)"><rect width="6" height="6" /></g>
        <g transform="translate(539.04166666667,403.04166666667) scale(2.9183333333333)"><rect width="6" height="6" /></g>
        <g transform="translate(573.04166666667,403.04166666667) scale(2.9183333333333)"><rect width="6" height="6" /></g>
        <g transform="translate(454.04166666667,420.04166666667) scale(2.9183333333333)"><rect width="6" height="6" /></g>
        <g transform="translate(488.04166666667,420.04166666667) scale(2.9183333333333)"><rect width="6" height="6" /></g>
        <g transform="translate(522.04166666667,420.04166666667) scale(2.9183333333333)"><rect width="6" height="6" /></g>
        <g transform="translate(556.04166666667,420.04166666667) scale(2.9183333333333)"><rect width="6" height="6" /></g>
        <g transform="translate(573.04166666667,420.04166666667) scale(2.9183333333333)"><rect width="6" height="6" /></g>
        <g transform="translate(318.04166666667,437.04166666667) scale(2.9183333333333)"><rect width="6" height="6" /></g>
        <g transform="translate(335.04166666667,437.04166666667) scale(2.9183333333333)"><rect width="6" height="6" /></g>
        <g transform="translate(352.04166666667,437.04166666667) scale(2.9183333333333)"><rect width="6" height="6" /></g>
        <g transform="translate(369.04166666667,437.04166666667) scale(2.9183333333333)"><rect width="6" height="6" /></g>
        <g transform="translate(386.04166666667,437.04166666667) scale(2.9183333333333)"><rect width="6" height="6" /></g>
        <g transform="translate(403.04166666667,437.04166666667) scale(2.9183333333333)"><rect width="6" height="6" /></g>
        <g transform="translate(420.04166666667,437.04166666667) scale(2.9183333333333)"><rect width="6" height="6" /></g>
        <g transform="translate(454.04166666667,437.04166666667) scale(2.9183333333333)"><rect width="6" height="6" /></g>
        <g transform="translate(488.04166666667,437.04166666667) scale(2.9183333333333)"><rect width="6" height="6" /></g>
        <g transform="translate(505.04166666667,437.04166666667) scale(2.9183333333333)"><rect width="6" height="6" /></g>
        <g transform="translate(539.04166666667,437.04166666667) scale(2.9183333333333)"><rect width="6" height="6" /></g>
        <g transform="translate(624.04166666667,437.04166666667) scale(2.9183333333333)"><rect width="6" height="6" /></g>
        <g transform="translate(641.04166666667,437.04166666667) scale(2.9183333333333)"><rect width="6" height="6" /></g>
        <g transform="translate(709.04166666667,437.04166666667) scale(2.9183333333333)"><rect width="6" height="6" /></g>
        <g transform="translate(352.04166666667,454.04166666667) scale(2.9183333333333)"><rect width="6" height="6" /></g>
        <g transform="translate(369.04166666667,454.04166666667) scale(2.9183333333333)"><rect width="6" height="6" /></g>
        <g transform="translate(386.04166666667,454.04166666667) scale(2.9183333333333)"><rect width="6" height="6" /></g>
        <g transform="translate(437.04166666667,454.04166666667) scale(2.9183333333333)"><rect width="6" height="6" /></g>
        <g transform="translate(488.04166666667,454.04166666667) scale(2.9183333333333)"><rect width="6" height="6" /></g>
        <g transform="translate(573.04166666667,454.04166666667) scale(2.9183333333333)"><rect width="6" height="6" /></g>
        <g transform="translate(590.04166666667,454.04166666667) scale(2.9183333333333)"><rect width="6" height="6" /></g>
        <g transform="translate(692.04166666667,454.04166666667) scale(2.9183333333333)"><rect width="6" height="6" /></g>
        <g transform="translate(301.04166666667,471.04166666667) scale(2.9183333333333)"><rect width="6" height="6" /></g>
        <g transform="translate(318.04166666667,471.04166666667) scale(2.9183333333333)"><rect width="6" height="6" /></g>
        <g transform="translate(335.04166666667,471.04166666667) scale(2.9183333333333)"><rect width="6" height="6" /></g>
        <g transform="translate(369.04166666667,471.04166666667) scale(2.9183333333333)"><rect width="6" height="6" /></g>
        <g transform="translate(386.04166666667,471.04166666667) scale(2.9183333333333)"><rect width="6" height="6" /></g>
        <g transform="translate(403.04166666667,471.04166666667) scale(2.9183333333333)"><rect width="6" height="6" /></g>
        <g transform="translate(420.04166666667,471.04166666667) scale(2.9183333333333)"><rect width="6" height="6" /></g>
        <g transform="translate(454.04166666667,471.04166666667) scale(2.9183333333333)"><rect width="6" height="6" /></g>
        <g transform="translate(488.04166666667,471.04166666667) scale(2.9183333333333)"><rect width="6" height="6" /></g>
        <g transform="translate(556.04166666667,471.04166666667) scale(2.9183333333333)"><rect width="6" height="6" /></g>
        <g transform="translate(573.04166666667,471.04166666667) scale(2.9183333333333)"><rect width="6" height="6" /></g>
        <g transform="translate(590.04166666667,471.04166666667) scale(2.9183333333333)"><rect width="6" height="6" /></g>
        <g transform="translate(607.04166666667,471.04166666667) scale(2.9183333333333)"><rect width="6" height="6" /></g>
        <g transform="translate(624.04166666667,471.04166666667) scale(2.9183333333333)"><rect width="6" height="6" /></g>
        <g transform="translate(641.04166666667,471.04166666667) scale(2.9183333333333)"><rect width="6" height="6" /></g>
        <g transform="translate(658.04166666667,471.04166666667) scale(2.9183333333333)"><rect width="6" height="6" /></g>
        <g transform="translate(692.04166666667,471.04166666667) scale(2.9183333333333)"><rect width="6" height="6" /></g>
        <g transform="translate(709.04166666667,471.04166666667) scale(2.9183333333333)"><rect width="6" height="6" /></g>
        <g transform="translate(301.04166666667,488.04166666667) scale(2.9183333333333)"><rect width="6" height="6" /></g>
        <g transform="translate(335.04166666667,488.04166666667) scale(2.9183333333333)"><rect width="6" height="6" /></g>
        <g transform="translate(369.04166666667,488.04166666667) scale(2.9183333333333)"><rect width="6" height="6" /></g>
        <g transform="translate(437.04166666667,488.04166666667) scale(2.9183333333333)"><rect width="6" height="6" /></g>
        <g transform="translate(454.04166666667,488.04166666667) scale(2.9183333333333)"><rect width="6" height="6" /></g>
        <g transform="translate(488.04166666667,488.04166666667) scale(2.9183333333333)"><rect width="6" height="6" /></g>
        <g transform="translate(539.04166666667,488.04166666667) scale(2.9183333333333)"><rect width="6" height="6" /></g>
        <g transform="translate(573.04166666667,488.04166666667) scale(2.9183333333333)"><rect width="6" height="6" /></g>
        <g transform="translate(607.04166666667,488.04166666667) scale(2.9183333333333)"><rect width="6" height="6" /></g>
        <g transform="translate(709.04166666667,488.04166666667) scale(2.9183333333333)"><rect width="6" height="6" /></g>
        <g transform="translate(403.04166666667,505.04166666667) scale(2.9183333333333)"><rect width="6" height="6" /></g>
        <g transform="translate(420.04166666667,505.04166666667) scale(2.9183333333333)"><rect width="6" height="6" /></g>
        <g transform="translate(454.04166666667,505.04166666667) scale(2.9183333333333)"><rect width="6" height="6" /></g>
        <g transform="translate(471.04166666667,505.04166666667) scale(2.9183333333333)"><rect width="6" height="6" /></g>
        <g transform="translate(590.04166666667,505.04166666667) scale(2.9183333333333)"><rect width="6" height="6" /></g>
        <g transform="translate(607.04166666667,505.04166666667) scale(2.9183333333333)"><rect width="6" height="6" /></g>
        <g transform="translate(624.04166666667,505.04166666667) scale(2.9183333333333)"><rect width="6" height="6" /></g>
        <g transform="translate(641.04166666667,505.04166666667) scale(2.9183333333333)"><rect width="6" height="6" /></g>
        <g transform="translate(675.04166666667,505.04166666667) scale(2.9183333333333)"><rect width="6" height="6" /></g>
        <g transform="translate(692.04166666667,505.04166666667) scale(2.9183333333333)"><rect width="6" height="6" /></g>
        <g transform="translate(709.04166666667,505.04166666667) scale(2.9183333333333)"><rect width="6" height="6" /></g>
        <g transform="translate(301.04166666667,522.04166666667) scale(2.9183333333333)"><rect width="6" height="6" /></g>
        <g transform="translate(318.04166666667,522.04166666667) scale(2.9183333333333)"><rect width="6" height="6" /></g>
        <g transform="translate(335.04166666667,522.04166666667) scale(2.9183333333333)"><rect width="6" height="6" /></g>
        <g transform="translate(352.04166666667,522.04166666667) scale(2.9183333333333)"><rect width="6" height="6" /></g>
        <g transform="translate(369.04166666667,522.04166666667) scale(2.9183333333333)"><rect width="6" height="6" /></g>
        <g transform="translate(420.04166666667,522.04166666667) scale(2.9183333333333)"><rect width="6" height="6" /></g>
        <g transform="translate(471.04166666667,522.04166666667) scale(2.9183333333333)"><rect width="6" height="6" /></g>
        <g transform="translate(488.04166666667,522.04166666667) scale(2.9183333333333)"><rect width="6" height="6" /></g>
        <g transform="translate(505.04166666667,522.04166666667) scale(2.9183333333333)"><rect width="6" height="6" /></g>
        <g transform="translate(539.04166666667,522.04166666667) scale(2.9183333333333)"><rect width="6" height="6" /></g>
        <g transform="translate(573.04166666667,522.04166666667) scale(2.9183333333333)"><rect width="6" height="6" /></g>
        <g transform="translate(590.04166666667,522.04166666667) scale(2.9183333333333)"><rect width="6" height="6" /></g>
        <g transform="translate(658.04166666667,522.04166666667) scale(2.9183333333333)"><rect width="6" height="6" /></g>
        <g transform="translate(692.04166666667,522.04166666667) scale(2.9183333333333)"><rect width="6" height="6" /></g>
        <g transform="translate(301.04166666667,539.04166666667) scale(2.9183333333333)"><rect width="6" height="6" /></g>
        <g transform="translate(335.04166666667,539.04166666667) scale(2.9183333333333)"><rect width="6" height="6" /></g>
        <g transform="translate(386.04166666667,539.04166666667) scale(2.9183333333333)"><rect width="6" height="6" /></g>
        <g transform="translate(403.04166666667,539.04166666667) scale(2.9183333333333)"><rect width="6" height="6" /></g>
        <g transform="translate(454.04166666667,539.04166666667) scale(2.9183333333333)"><rect width="6" height="6" /></g>
        <g transform="translate(471.04166666667,539.04166666667) scale(2.9183333333333)"><rect width="6" height="6" /></g>
        <g transform="translate(556.04166666667,539.04166666667) scale(2.9183333333333)"><rect width="6" height="6" /></g>
        <g transform="translate(573.04166666667,539.04166666667) scale(2.9183333333333)"><rect width="6" height="6" /></g>
        <g transform="translate(607.04166666667,539.04166666667) scale(2.9183333333333)"><rect width="6" height="6" /></g>
        <g transform="translate(624.04166666667,539.04166666667) scale(2.9183333333333)"><rect width="6" height="6" /></g>
        <g transform="translate(641.04166666667,539.04166666667) scale(2.9183333333333)"><rect width="6" height="6" /></g>
        <g transform="translate(658.04166666667,539.04166666667) scale(2.9183333333333)"><rect width="6" height="6" /></g>
        <g transform="translate(692.04166666667,539.04166666667) scale(2.9183333333333)"><rect width="6" height="6" /></g>
        <g transform="translate(709.04166666667,539.04166666667) scale(2.9183333333333)"><rect width="6" height="6" /></g>
        <g transform="translate(301.04166666667,556.04166666667) scale(2.9183333333333)"><rect width="6" height="6" /></g>
        <g transform="translate(335.04166666667,556.04166666667) scale(2.9183333333333)"><rect width="6" height="6" /></g>
        <g transform="translate(386.04166666667,556.04166666667) scale(2.9183333333333)"><rect width="6" height="6" /></g>
        <g transform="translate(420.04166666667,556.04166666667) scale(2.9183333333333)"><rect width="6" height="6" /></g>
        <g transform="translate(437.04166666667,556.04166666667) scale(2.9183333333333)"><rect width="6" height="6" /></g>
        <g transform="translate(454.04166666667,556.04166666667) scale(2.9183333333333)"><rect width="6" height="6" /></g>
        <g transform="translate(488.04166666667,556.04166666667) scale(2.9183333333333)"><rect width="6" height="6" /></g>
        <g transform="translate(539.04166666667,556.04166666667) scale(2.9183333333333)"><rect width="6" height="6" /></g>
        <g transform="translate(590.04166666667,556.04166666667) scale(2.9183333333333)"><rect width="6" height="6" /></g>
        <g transform="translate(607.04166666667,556.04166666667) scale(2.9183333333333)"><rect width="6" height="6" /></g>
        <g transform="translate(624.04166666667,556.04166666667) scale(2.9183333333333)"><rect width="6" height="6" /></g>
        <g transform="translate(641.04166666667,556.04166666667) scale(2.9183333333333)"><rect width="6" height="6" /></g>
        <g transform="translate(709.04166666667,556.04166666667) scale(2.9183333333333)"><rect width="6" height="6" /></g>
        <g transform="translate(301.04166666667,573.04166666667) scale(2.9183333333333)"><rect width="6" height="6" /></g>
        <g transform="translate(352.04166666667,573.04166666667) scale(2.9183333333333)"><rect width="6" height="6" /></g>
        <g transform="translate(369.04166666667,573.04166666667) scale(2.9183333333333)"><rect width="6" height="6" /></g>
        <g transform="translate(386.04166666667,573.04166666667) scale(2.9183333333333)"><rect width="6" height="6" /></g>
        <g transform="translate(403.04166666667,573.04166666667) scale(2.9183333333333)"><rect width="6" height="6" /></g>
        <g transform="translate(454.04166666667,573.04166666667) scale(2.9183333333333)"><rect width="6" height="6" /></g>
        <g transform="translate(471.04166666667,573.04166666667) scale(2.9183333333333)"><rect width="6" height="6" /></g>
        <g transform="translate(488.04166666667,573.04166666667) scale(2.9183333333333)"><rect width="6" height="6" /></g>
        <g transform="translate(505.04166666667,573.04166666667) scale(2.9183333333333)"><rect width="6" height="6" /></g>
        <g transform="translate(522.04166666667,573.04166666667) scale(2.9183333333333)"><rect width="6" height="6" /></g>
        <g transform="translate(556.04166666667,573.04166666667) scale(2.9183333333333)"><rect width="6" height="6" /></g>
        <g transform="translate(573.04166666667,573.04166666667) scale(2.9183333333333)"><rect width="6" height="6" /></g>
        <g transform="translate(590.04166666667,573.04166666667) scale(2.9183333333333)"><rect width="6" height="6" /></g>
        <g transform="translate(607.04166666667,573.04166666667) scale(2.9183333333333)"><rect width="6" height="6" /></g>
        <g transform="translate(624.04166666667,573.04166666667) scale(2.9183333333333)"><rect width="6" height="6" /></g>
        <g transform="translate(641.04166666667,573.04166666667) scale(2.9183333333333)"><rect width="6" height="6" /></g>
        <g transform="translate(675.04166666667,573.04166666667) scale(2.9183333333333)"><rect width="6" height="6" /></g>
        <g transform="translate(437.04166666667,590.04166666667) scale(2.9183333333333)"><rect width="6" height="6" /></g>
        <g transform="translate(471.04166666667,590.04166666667) scale(2.9183333333333)"><rect width="6" height="6" /></g>
        <g transform="translate(488.04166666667,590.04166666667) scale(2.9183333333333)"><rect width="6" height="6" /></g>
        <g transform="translate(505.04166666667,590.04166666667) scale(2.9183333333333)"><rect width="6" height="6" /></g>
        <g transform="translate(556.04166666667,590.04166666667) scale(2.9183333333333)"><rect width="6" height="6" /></g>
        <g transform="translate(573.04166666667,590.04166666667) scale(2.9183333333333)"><rect width="6" height="6" /></g>
        <g transform="translate(641.04166666667,590.04166666667) scale(2.9183333333333)"><rect width="6" height="6" /></g>
        <g transform="translate(658.04166666667,590.04166666667) scale(2.9183333333333)"><rect width="6" height="6" /></g>
        <g transform="translate(437.04166666667,607.04166666667) scale(2.9183333333333)"><rect width="6" height="6" /></g>
        <g transform="translate(454.04166666667,607.04166666667) scale(2.9183333333333)"><rect width="6" height="6" /></g>
        <g transform="translate(471.04166666667,607.04166666667) scale(2.9183333333333)"><rect width="6" height="6" /></g>
        <g transform="translate(488.04166666667,607.04166666667) scale(2.9183333333333)"><rect width="6" height="6" /></g>
        <g transform="translate(573.04166666667,607.04166666667) scale(2.9183333333333)"><rect width="6" height="6" /></g>
        <g transform="translate(607.04166666667,607.04166666667) scale(2.9183333333333)"><rect width="6" height="6" /></g>
        <g transform="translate(641.04166666667,607.04166666667) scale(2.9183333333333)"><rect width="6" height="6" /></g>
        <g transform="translate(675.04166666667,607.04166666667) scale(2.9183333333333)"><rect width="6" height="6" /></g>
        <g transform="translate(692.04166666667,607.04166666667) scale(2.9183333333333)"><rect width="6" height="6" /></g>
        <g transform="translate(709.04166666667,607.04166666667) scale(2.9183333333333)"><rect width="6" height="6" /></g>
        <g transform="translate(437.04166666667,624.04166666667) scale(2.9183333333333)"><rect width="6" height="6" /></g>
        <g transform="translate(454.04166666667,624.04166666667) scale(2.9183333333333)"><rect width="6" height="6" /></g>
        <g transform="translate(488.04166666667,624.04166666667) scale(2.9183333333333)"><rect width="6" height="6" /></g>
        <g transform="translate(539.04166666667,624.04166666667) scale(2.9183333333333)"><rect width="6" height="6" /></g>
        <g transform="translate(573.04166666667,624.04166666667) scale(2.9183333333333)"><rect width="6" height="6" /></g>
        <g transform="translate(641.04166666667,624.04166666667) scale(2.9183333333333)"><rect width="6" height="6" /></g>
        <g transform="translate(658.04166666667,624.04166666667) scale(2.9183333333333)"><rect width="6" height="6" /></g>
        <g transform="translate(709.04166666667,624.04166666667) scale(2.9183333333333)"><rect width="6" height="6" /></g>
        <g transform="translate(437.04166666667,641.04166666667) scale(2.9183333333333)"><rect width="6" height="6" /></g>
        <g transform="translate(454.04166666667,641.04166666667) scale(2.9183333333333)"><rect width="6" height="6" /></g>
        <g transform="translate(471.04166666667,641.04166666667) scale(2.9183333333333)"><rect width="6" height="6" /></g>
        <g transform="translate(505.04166666667,641.04166666667) scale(2.9183333333333)"><rect width="6" height="6" /></g>
        <g transform="translate(522.04166666667,641.04166666667) scale(2.9183333333333)"><rect width="6" height="6" /></g>
        <g transform="translate(539.04166666667,641.04166666667) scale(2.9183333333333)"><rect width="6" height="6" /></g>
        <g transform="translate(556.04166666667,641.04166666667) scale(2.9183333333333)"><rect width="6" height="6" /></g>
        <g transform="translate(573.04166666667,641.04166666667) scale(2.9183333333333)"><rect width="6" height="6" /></g>
        <g transform="translate(590.04166666667,641.04166666667) scale(2.9183333333333)"><rect width="6" height="6" /></g>
        <g transform="translate(607.04166666667,641.04166666667) scale(2.9183333333333)"><rect width="6" height="6" /></g>
        <g transform="translate(624.04166666667,641.04166666667) scale(2.9183333333333)"><rect width="6" height="6" /></g>
        <g transform="translate(641.04166666667,641.04166666667) scale(2.9183333333333)"><rect width="6" height="6" /></g>
        <g transform="translate(675.04166666667,641.04166666667) scale(2.9183333333333)"><rect width="6" height="6" /></g>
        <g transform="translate(709.04166666667,641.04166666667) scale(2.9183333333333)"><rect width="6" height="6" /></g>
        <g transform="translate(437.04166666667,658.04166666667) scale(2.9183333333333)"><rect width="6" height="6" /></g>
        <g transform="translate(454.04166666667,658.04166666667) scale(2.9183333333333)"><rect width="6" height="6" /></g>
        <g transform="translate(522.04166666667,658.04166666667) scale(2.9183333333333)"><rect width="6" height="6" /></g>
        <g transform="translate(539.04166666667,658.04166666667) scale(2.9183333333333)"><rect width="6" height="6" /></g>
        <g transform="translate(556.04166666667,658.04166666667) scale(2.9183333333333)"><rect width="6" height="6" /></g>
        <g transform="translate(573.04166666667,658.04166666667) scale(2.9183333333333)"><rect width="6" height="6" /></g>
        <g transform="translate(590.04166666667,658.04166666667) scale(2.9183333333333)"><rect width="6" height="6" /></g>
        <g transform="translate(607.04166666667,658.04166666667) scale(2.9183333333333)"><rect width="6" height="6" /></g>
        <g transform="translate(641.04166666667,658.04166666667) scale(2.9183333333333)"><rect width="6" height="6" /></g>
        <g transform="translate(658.04166666667,658.04166666667) scale(2.9183333333333)"><rect width="6" height="6" /></g>
        <g transform="translate(675.04166666667,658.04166666667) scale(2.9183333333333)"><rect width="6" height="6" /></g>
        <g transform="translate(692.04166666667,658.04166666667) scale(2.9183333333333)"><rect width="6" height="6" /></g>
        <g transform="translate(709.04166666667,658.04166666667) scale(2.9183333333333)"><rect width="6" height="6" /></g>
        <g transform="translate(437.04166666667,675.04166666667) scale(2.9183333333333)"><rect width="6" height="6" /></g>
        <g transform="translate(454.04166666667,675.04166666667) scale(2.9183333333333)"><rect width="6" height="6" /></g>
        <g transform="translate(539.04166666667,675.04166666667) scale(2.9183333333333)"><rect width="6" height="6" /></g>
        <g transform="translate(573.04166666667,675.04166666667) scale(2.9183333333333)"><rect width="6" height="6" /></g>
        <g transform="translate(590.04166666667,675.04166666667) scale(2.9183333333333)"><rect width="6" height="6" /></g>
        <g transform="translate(658.04166666667,675.04166666667) scale(2.9183333333333)"><rect width="6" height="6" /></g>
        <g transform="translate(675.04166666667,675.04166666667) scale(2.9183333333333)"><rect width="6" height="6" /></g>
        <g transform="translate(709.04166666667,675.04166666667) scale(2.9183333333333)"><rect width="6" height="6" /></g>
        <g transform="translate(437.04166666667,692.04166666667) scale(2.9183333333333)"><rect width="6" height="6" /></g>
        <g transform="translate(454.04166666667,692.04166666667) scale(2.9183333333333)"><rect width="6" height="6" /></g>
        <g transform="translate(471.04166666667,692.04166666667) scale(2.9183333333333)"><rect width="6" height="6" /></g>
        <g transform="translate(522.04166666667,692.04166666667) scale(2.9183333333333)"><rect width="6" height="6" /></g>
        <g transform="translate(556.04166666667,692.04166666667) scale(2.9183333333333)"><rect width="6" height="6" /></g>
        <g transform="translate(573.04166666667,692.04166666667) scale(2.9183333333333)"><rect width="6" height="6" /></g>
        <g transform="translate(607.04166666667,692.04166666667) scale(2.9183333333333)"><rect width="6" height="6" /></g>
        <g transform="translate(624.04166666667,692.04166666667) scale(2.9183333333333)"><rect width="6" height="6" /></g>
        <g transform="translate(641.04166666667,692.04166666667) scale(2.9183333333333)"><rect width="6" height="6" /></g>
        <g transform="translate(658.04166666667,692.04166666667) scale(2.9183333333333)"><rect width="6" height="6" /></g>
        <g transform="translate(709.04166666667,692.04166666667) scale(2.9183333333333)"><rect width="6" height="6" /></g>
        <g transform="translate(454.04166666667,709.04166666667) scale(2.9183333333333)"><rect width="6" height="6" /></g>
        <g transform="translate(505.04166666667,709.04166666667) scale(2.9183333333333)"><rect width="6" height="6" /></g>
        <g transform="translate(522.04166666667,709.04166666667) scale(2.9183333333333)"><rect width="6" height="6" /></g>
        <g transform="translate(556.04166666667,709.04166666667) scale(2.9183333333333)"><rect width="6" height="6" /></g>
        <g transform="translate(624.04166666667,709.04166666667) scale(2.9183333333333)"><rect width="6" height="6" /></g>
        <g transform="translate(641.04166666667,709.04166666667) scale(2.9183333333333)"><rect width="6" height="6" /></g>
        <g transform="translate(658.04166666667,709.04166666667) scale(2.9183333333333)"><rect width="6" height="6" /></g>
        <g transform="translate(675.04166666667,709.04166666667) scale(2.9183333333333)"><rect width="6" height="6" /></g>
        <g transform="translate(692.04166666667,709.04166666667) scale(2.9183333333333)"><rect width="6" height="6" /></g>
        <g transform="translate(709.04166666667,709.04166666667) scale(2.9183333333333)"><rect width="6" height="6" /></g>
        <g transform="translate(301.04166666667,301.04166666667)">
            <g transform="scale(8.5)"><path d="M0,0v14h14V0H0z M12,12H2V2h10V12z" /></g>
        </g>
        <g transform="translate(607.04166666667,301.04166666667)">
            <g transform="scale(8.5)"><path d="M0,0v14h14V0H0z M12,12H2V2h10V12z" /></g>
        </g>
        <g transform="translate(301.04166666667,607.04166666667)">
            <g transform="scale(8.5)"><path d="M0,0v14h14V0H0z M12,12H2V2h10V12z" /></g>
        </g>
        <g transform="translate(335.04166666667,335.04166666667)">
            <g transform="scale(8.5)"><rect width="6" height="6" /></g>
        </g>
        <g transform="translate(641.04166666667,335.04166666667)">
            <g transform="scale(8.5)"><rect width="6" height="6" /></g>
        </g>
        <g transform="translate(335.04166666667,641.04166666667)">
            <g transform="scale(8.5)"><rect width="6" height="6" /></g>
        </g>
    </g>
    <g fill="#7f5b54" transform="scale(42.795138888889)">
        <path
            d="M21.481,9.205c-.789-4.177-2.954-5.664-4.726-5.664-.008,0-.015,0-.023,0-.835.006-1.362.344-1.92.701-.443.284-.893.549-1.401.701-1.311.394-2.807.217-3.983-.48-.115-.068-.228-.139-.338-.207-.559-.348-1.137-.709-1.91-.714-.008,0-.015,0-.023,0-3.498,0-4.902,4.635-4.849,7.451.043,2.292.813,4.528,1.947,6.52.125-.076.249-.152.374-.228-.835-1.505-1.485-3.128-1.753-4.828-.32-2.026-.044-4.135.903-5.966.63-1.218,1.707-2.38,3.153-2.497.075-.006.149-.009.224-.009.007,0,.013,0,.02,0,.647.005,1.125.302,1.679.647.112.07.228.142.347.212,1.494.885,3.524,1.013,5.084.223.264-.134.515-.292.764-.452.524-.336.977-.626,1.684-.631.007,0,.013,0,.02,0,1.594,0,3.551,1.392,4.29,5.303.346,1.83.009,3.71-.601,5.447-.528,1.503-1.155,2.54-1.162,2.55l.378.231c.026-.043.655-1.08,1.198-2.624.504-1.431,1.02-3.579.622-5.686Z"
        />
        <path
            d="M19.067,16.867l-.094-.059c.006-.01.611-.98,1.115-2.371.675-1.861.869-3.563.577-5.057-.706-3.619-2.572-4.908-4.082-4.908h-.018c-.666.005-1.097.272-1.595.581-.247.153-.489.301-.742.425-1.48.726-3.471.641-4.954-.21-.115-.066-.227-.134-.335-.199-.527-.318-.982-.592-1.591-.597h-.019c-.07,0-.141.003-.212.008-1.664.13-2.649,1.654-2.996,2.303-.873,1.636-1.18,3.602-.865,5.537.234,1.438.801,2.949,1.683,4.49l-.096.055c-.889-1.553-1.46-3.076-1.697-4.527-.319-1.959-.008-3.95.877-5.607.355-.665,1.366-2.227,3.085-2.361.074-.006.148-.009.22-.009h.019c.64.005,1.106.286,1.647.612.108.065.22.133.333.198,1.452.834,3.401.916,4.85.206.248-.122.488-.268.732-.419.513-.318.955-.593,1.652-.598h.019c1.555,0,3.472,1.313,4.191,4.997.295,1.515.1,3.236-.582,5.116-.508,1.402-1.119,2.382-1.125,2.392Z"
        />
        <path d="M2.656,12.295s-.088-1.165.578-2.245,1.279-1.328,1.279-1.328c0,0-.161,2.351-1.857,3.573Z" style="fill: #a4b541;" />
        <path d="M2.632,12.328s.283-.79,1.035-1.304,1.227-.498,1.227-.498c0,0-.792,1.496-2.262,1.802Z" style="fill: #d8c856;" />
        <path
            d="M1.431,8.726c-.347,1.106.131,2.231.63,3.206.151.296.311.588.482.874.027.046.099.004.072-.042-.287-.481-.552-.98-.78-1.492-.226-.506-.405-1.043-.434-1.6-.016-.313.017-.625.111-.925.016-.051-.064-.073-.08-.022h0Z"
            style="fill: #6a7f41;"
        />
        <path d="M2.234,12.175s-.512.171-.879-.333-.528-.798-.706-.853l-.177-.055s.681-.192,1.119.242.643.999.643.999Z" style="fill: #6a7f41;" />
        <path d="M1.799,11.296s-.477-.643-.877-.844-.944-.117-.944-.117c0,0,.151-.674.715-.467s1.106,1.427,1.106,1.427Z" style="fill: #6a7f41;" />
        <path d="M2.234,12.175s.012-.506.179-.891.859-.331.859-.331c0,0-.853-.789-1.195-.227s.157,1.448.157,1.448Z" style="fill: #6a7f41;" />
        <path d="M1.778,11.268s-.15-.865,0-1.269.559-.76.559-.76c0,0-.508-.248-.756.228s.197,1.8.197,1.8Z" style="fill: #3c4f2c;" />
        <path
            d="M1.37,9.229s-.768-.549-.699-.808.313-.051.313-.051c0,0-.051-.282.055-.371s.191.093.191.093c0,0,.014-.339.156-.427s.156.239.156.239c0,0,.147-.258.249-.167s.018.308.018.308c0,0,.175-.135.229.012s-.102.391-.102.391c0,0,.241-.118.243.071s-.393.559-.811.711Z"
            style="fill: #ffb871;"
        />
        <path
            d="M1.373,9.318s-.463-.33-.421-.487.189-.031.189-.031c0,0-.031-.17.033-.224s.115.056.115.056c0,0,.008-.204.094-.257s.094.144.094.144c0,0,.089-.156.15-.1s.011.185.011.185c0,0,.105-.081.138.007s-.061.235-.061.235c0,0,.145-.071.146.043s-.237.337-.488.428Z"
            style="fill: #c14f40;"
        />
        <path d="M3.533,6.495s.26-2.015.78-2.774,1.238-1.253,1.238-1.253c0,0-.714,2.146-1.146,2.761s-.871,1.266-.871,1.266Z" style="fill: #a4b541;" />
        <path d="M3.362,7.165s2.009-.493,2.78-.995,1.598-1.307,1.598-1.307c0,0-2.47,1.04-3.094,1.459s-1.284.844-1.284.844Z" style="fill: #d8c856;" />
        <path d="M7.031,3.068s-1.181.687-1.97,1.598c-.584.675-1.608,2.237-1.608,2.237-.171.135,1.152-.532,2.473-1.879.58-.591,1.104-1.956,1.104-1.956Z" style="fill: #a4b541;" />
        <path d="M3.211,7.228s.507-.59.254-1.74.233-1.817.233-1.817c0,0-.776.645-.827,2.325-.043,1.407-.201,1.979-.201,1.979l.541-.746Z" style="fill: #d8c856;" />
        <path d="M2.722,7.845s1.095-.661,1.97-.879,1.84-.267,2.604-.377c0,0-1.177.849-2.765,1.094-.92.142-1.809.162-1.809.162Z" style="fill: #a4b541;" />
        <path
            d="M4.351,4.534c-.212.358-.422.722-.557,1.117-.069.201-.094.412-.16.613-.066.204-.207.376-.309.562s-.19.379-.295.563c-.107.188-.227.368-.33.559-.193.358-.312.763-.317,1.172-.002.225.038.445.134.648.093.198.226.385.251.607.006.053.089.053.083,0-.02-.181-.101-.339-.185-.498-.099-.186-.174-.372-.193-.584-.037-.413.068-.845.252-1.214.095-.19.21-.368.319-.55s.201-.373.299-.561c.093-.179.213-.343.304-.522.095-.187.117-.395.172-.596.124-.457.364-.871.603-1.276.027-.046-.044-.088-.072-.042h0Z"
            style="fill: #6a7f41;"
        />
        <path d="M2.808,7.88c1-.307,2.022-.538,3.057-.69.053-.008.03-.088-.022-.08-1.035.152-2.057.383-3.057.69-.051.016-.029.096.022.08h0Z" style="fill: #6a7f41;" />
        <path
            d="M5.697,6.084c-.217.106-.439.205-.664.293-.214.084-.433.155-.647.239-.414.163-.795.388-1.196.576-.048.023-.006.094.042.072.411-.193.799-.424,1.225-.587.215-.082.434-.155.648-.24.215-.086.427-.18.635-.282.048-.023.006-.095-.042-.072h0Z"
            style="fill: #6a7f41;"
        />
        <path d="M3.137,5.666c.028.542.005,1.086-.071,1.623-.007.052.073.075.08.022.077-.545.103-1.095.074-1.645-.003-.053-.086-.053-.083,0h0Z" style="fill: #6a7f41;" />
        <path
            d="M5.434,4.68c-.199.411-.537.736-.854,1.058-.34.346-.686.686-1.033,1.025-.128.125-.256.249-.385.373-.039.037.02.096.059.059.612-.588,1.23-1.177,1.806-1.801.186-.202.359-.423.479-.671.023-.048-.048-.09-.072-.042h0Z"
            style="fill: #6a7f41;"
        />
        <path
            d="M1.024,13.016c.17,1.131,1.078,1.927,1.942,2.579.276.208.558.409.848.598.045.029.086-.043.042-.072-.487-.318-.962-.663-1.404-1.04-.415-.354-.799-.755-1.059-1.239-.143-.265-.243-.551-.288-.849-.008-.053-.088-.03-.08.022h0Z"
            style="fill: #6a7f41;"
        />
        <path d="M3.257,15.759s-.385.379-.936.087-.824-.485-1.008-.457l-.184.028s.528-.471,1.112-.273,1.016.615,1.016.615Z" style="fill: #3c4f2c;" />
        <path d="M2.48,15.16s-.711-.369-1.158-.374-.9.309-.9.309c0,0-.16-.672.438-.733s1.62.798,1.62.798Z" style="fill: #6a7f41;" />
        <path d="M3.257,15.759s-.211-.46-.23-.879.627-.674.627-.674c0,0-1.113-.334-1.174.32s.777,1.232.777,1.232Z" style="fill: #6a7f41;" />
        <path d="M2.449,15.144s-.515-.711-.557-1.14.17-.928.17-.928c0,0-.565,0-.579.537s.967,1.531.967,1.531Z" style="fill: #3c4f2c;" />
        <path
            d="M1.188,13.491s-.931-.156-.983-.42.259-.184.259-.184c0,0-.17-.231-.113-.358s.212,0,.212,0c0,0-.137-.311-.047-.452s.245.146.245.146c0,0,.019-.297.151-.259s.151.269.151.269c0,0,.098-.198.211-.09s.08.396.08.396c0,0,.165-.212.25-.042s-.107.675-.416.995Z"
            style="fill: #ffb871;"
        />
        <path
            d="M1.23,13.569s-.561-.094-.592-.253.156-.111.156-.111c0,0-.102-.139-.068-.216s.128,0,.128,0c0,0-.082-.187-.028-.272s.148.088.148.088c0,0,.011-.179.091-.156s.091.162.091.162c0,0,.059-.119.127-.054s.048.238.048.238c0,0,.099-.128.15-.026s-.065.407-.251.599Z"
            style="fill: #c14f40;"
        />
        <path
            d="M4.651,11.98c-.791.824-.872,2.024-.862,3.105.003.348.017.696.044,1.043.004.053.087.053.083,0-.046-.586-.063-1.179-.033-1.767.028-.55.114-1.106.346-1.609.121-.262.28-.505.48-.714.037-.039-.022-.097-.059-.059h0Z"
            style="fill: #6a7f41;"
        />
        <path d="M3.837,15.428s-.535-.074-.64-.689-.119-.949-.253-1.077l-.135-.128s.695.13.895.714.133,1.181.133,1.181Z" style="fill: #3c4f2c;" />
        <path d="M3.838,14.447s-.142-.788-.411-1.146-.794-.524-.794-.524c0,0,.435-.537.848-.101s.357,1.77.357,1.77Z" style="fill: #6a7f41;" />
        <path d="M3.837,15.428s.235-.448.556-.718.916.085.916.085c0,0-.414-1.086-.97-.734s-.502,1.367-.502,1.367Z" style="fill: #6a7f41;" />
        <path d="M3.831,14.413s.249-.842.563-1.137.839-.432.839-.432c0,0-.345-.448-.779-.131s-.622,1.7-.622,1.7Z" style="fill: #3c4f2c;" />
        <path
            d="M4.371,12.405s-.445-.833-.267-1.035.304.093.304.093c0,0,.079-.275.215-.308s.129.168.129.168c0,0,.163-.298.329-.313s.034.283.034.283c0,0,.247-.166.297-.039s-.12.284-.12.284c0,0,.217-.043.2.113s-.265.305-.265.305c0,0,.269.001.186.172s-.6.327-1.042.277Z"
            style="fill: #ffb871;"
        />
        <path
            d="M4.334,12.486s-.268-.502-.161-.623.183.056.183.056c0,0,.048-.166.129-.186s.078.101.078.101c0,0,.098-.179.198-.189s.02.171.02.171c0,0,.149-.1.179-.023s-.072.171-.072.171c0,0,.131-.026.12.068s-.159.184-.159.184c0,0,.162,0,.112.104s-.362.197-.628.167Z"
            style="fill: #c14f40;"
        />
        <path
            d="M2.307,10.206c-.159.22-.137.513.002.737.071.115.168.206.273.289.107.085.225.166.301.282.177.27.065.609-.117.843-.159.206-.418.366-.466.639-.044.247.078.511.301.629.047.025.089-.046.042-.072-.203-.108-.313-.357-.253-.58.035-.13.129-.233.221-.327.094-.096.189-.19.266-.301.146-.211.228-.483.144-.735-.083-.249-.314-.367-.495-.535-.226-.211-.344-.558-.147-.829.031-.043-.041-.085-.072-.042h0Z"
            style="fill: #6a7f41;"
        />
        <circle cx="2.835" cy="12.23" r=".22" style="fill: #f4f0ed;" />
        <circle cx="2.322" cy="11.444" r=".176" style="fill: #f4f0ed;" />
        <circle cx="2.396" cy="10.257" r=".119" style="fill: #f4f0ed;" />
        <circle cx="2.876" cy="9.362" r=".223" style="fill: #f4f0ed;" />
        <path d="M21.34,12.51s.088-1.165-.578-2.245-1.279-1.328-1.279-1.328c0,0,.161,2.351,1.857,3.573Z" style="fill: #a4b541;" />
        <path d="M21.364,12.544s-.283-.79-1.035-1.304-1.227-.498-1.227-.498c0,0,.792,1.496,2.262,1.802Z" style="fill: #d8c856;" />
        <path
            d="M22.485,8.964c.344,1.097-.144,2.213-.639,3.178-.146.284-.3.564-.464.839-.027.046.044.088.072.042.298-.499.573-1.018.806-1.551.221-.506.394-1.04.419-1.596.015-.315-.02-.632-.114-.934-.016-.051-.096-.029-.08.022h0Z"
            style="fill: #6a7f41;"
        />
        <path d="M21.762,12.391s.512.171.879-.333.528-.798.706-.853l.177-.055s-.681-.192-1.119.242-.643.999-.643.999Z" style="fill: #6a7f41;" />
        <path d="M22.197,11.512s.477-.643.877-.844.944-.117.944-.117c0,0-.151-.674-.715-.467s-1.106,1.427-1.106,1.427Z" style="fill: #6a7f41;" />
        <path d="M21.762,12.391s-.012-.506-.179-.891-.859-.331-.859-.331c0,0,.853-.789,1.195-.227s-.157,1.448-.157,1.448Z" style="fill: #6a7f41;" />
        <path d="M22.218,11.484s.15-.865,0-1.269-.559-.76-.559-.76c0,0,.508-.248.756.228s-.197,1.8-.197,1.8Z" style="fill: #3c4f2c;" />
        <path
            d="M22.626,9.445s.768-.549.699-.808-.313-.051-.313-.051c0,0,.051-.282-.055-.371s-.191.093-.191.093c0,0-.014-.339-.156-.427s-.156.239-.156.239c0,0-.147-.258-.249-.167s-.018.308-.018.308c0,0-.175-.135-.229.012s.102.391.102.391c0,0-.241-.118-.243.071s.393.559.811.711Z"
            style="fill: #ffb871;"
        />
        <path
            d="M22.623,9.534s.463-.33.421-.487-.189-.031-.189-.031c0,0,.031-.17-.033-.224s-.115.056-.115.056c0,0-.008-.204-.094-.257s-.094.144-.094.144c0,0-.089-.156-.15-.1s-.011.185-.011.185c0,0-.105-.081-.138.007s.061.235.061.235c0,0-.145-.071-.146.043s.237.337.488.428Z"
            style="fill: #c14f40;"
        />
        <path d="M20.463,6.711s-.26-2.015-.78-2.774-1.238-1.253-1.238-1.253c0,0,.714,2.146,1.146,2.761s.871,1.266.871,1.266Z" style="fill: #a4b541;" />
        <path d="M20.635,7.381s-2.009-.493-2.78-.995-1.598-1.307-1.598-1.307c0,0,2.47,1.04,3.094,1.459s1.284.844,1.284.844Z" style="fill: #d8c856;" />
        <path d="M16.965,3.284s1.181.687,1.97,1.598c.584.675,1.608,2.237,1.608,2.237.171.135-1.152-.532-2.473-1.879-.58-.591-1.104-1.956-1.104-1.956Z" style="fill: #a4b541;" />
        <path d="M20.786,7.444s-.507-.59-.254-1.74-.233-1.817-.233-1.817c0,0,.776.645.827,2.325.043,1.407.201,1.979.201,1.979l-.541-.746Z" style="fill: #d8c856;" />
        <path d="M21.274,8.06s-1.095-.661-1.97-.879-1.84-.267-2.604-.377c0,0,1.177.849,2.765,1.094.92.142,1.809.162,1.809.162Z" style="fill: #a4b541;" />
        <path
            d="M19.574,4.792c.214.363.429.731.56,1.133.066.201.087.416.16.614.068.185.191.342.286.512.104.185.191.378.295.563s.221.362.324.547c.204.365.331.779.33,1.199,0,.24-.058.46-.168.673-.093.179-.194.353-.217.558-.006.053.077.053.083,0,.021-.196.128-.365.216-.536.09-.176.147-.36.163-.558.033-.403-.066-.822-.237-1.186-.09-.192-.204-.371-.314-.552-.112-.186-.21-.378-.308-.571-.096-.188-.217-.36-.316-.545-.103-.194-.123-.413-.182-.622-.128-.455-.367-.868-.605-1.272-.027-.046-.099-.004-.072.042h0Z"
            style="fill: #6a7f41;"
        />
        <path d="M21.21,8.016c-1-.307-2.022-.538-3.057-.69-.052-.008-.075.072-.022.08,1.035.152,2.057.383,3.057.69.051.016.073-.064.022-.08h0Z" style="fill: #6a7f41;" />
        <path
            d="M18.257,6.371c.208.102.42.196.635.282.214.085.433.158.648.24.425.163.814.394,1.225.587.048.023.09-.049.042-.072-.401-.189-.782-.414-1.196-.576-.214-.084-.433-.156-.647-.239-.225-.088-.447-.186-.664-.293-.048-.023-.09.048-.042.072h0Z"
            style="fill: #6a7f41;"
        />
        <path d="M20.776,5.882c-.028.55-.003,1.1.074,1.645.007.053.087.03.08-.022-.076-.537-.099-1.081-.071-1.623.003-.053-.08-.053-.083,0h0Z" style="fill: #6a7f41;" />
        <path
            d="M18.491,4.938c.2.413.538.741.856,1.064.344.35.693.693,1.044,1.036.128.125.256.249.385.373.039.037.097-.022.059-.059-.607-.583-1.219-1.168-1.791-1.785-.187-.202-.361-.422-.481-.67-.023-.048-.095-.006-.072.042h0Z"
            style="fill: #6a7f41;"
        />
        <path
            d="M22.893,13.209c-.169,1.124-1.077,1.908-1.935,2.554-.266.2-.538.392-.816.574-.045.029-.003.101.042.072.496-.324.98-.676,1.431-1.061.42-.359.807-.767,1.068-1.258.143-.268.246-.557.291-.858.008-.052-.072-.075-.08-.022h0Z"
            style="fill: #6a7f41;"
        />
        <path d="M20.739,15.975s.385.379.936.087.824-.485,1.008-.457l.184.028s-.528-.471-1.112-.273-1.016.615-1.016.615Z" style="fill: #3c4f2c;" />
        <path d="M21.516,15.376s.711-.369,1.158-.374.9.309.9.309c0,0,.16-.672-.438-.733s-1.62.798-1.62.798Z" style="fill: #6a7f41;" />
        <path d="M20.739,15.975s.211-.46.23-.879-.627-.674-.627-.674c0,0,1.113-.334,1.174.32s-.777,1.232-.777,1.232Z" style="fill: #6a7f41;" />
        <path d="M21.547,15.36s.515-.711.557-1.14-.17-.928-.17-.928c0,0,.565,0,.579.537s-.967,1.531-.967,1.531Z" style="fill: #3c4f2c;" />
        <path
            d="M22.808,13.707s.931-.156.983-.42-.259-.184-.259-.184c0,0,.17-.231.113-.358s-.212,0-.212,0c0,0,.137-.311.047-.452s-.245.146-.245.146c0,0-.019-.297-.151-.259s-.151.269-.151.269c0,0-.098-.198-.211-.09s-.08.396-.08.396c0,0-.165-.212-.25-.042s.107.675.416.995Z"
            style="fill: #ffb871;"
        />
        <path
            d="M22.766,13.785s.561-.094.592-.253-.156-.111-.156-.111c0,0,.102-.139.068-.216s-.128,0-.128,0c0,0,.082-.187.028-.272s-.148.088-.148.088c0,0-.011-.179-.091-.156s-.091.162-.091.162c0,0-.059-.119-.127-.054s-.048.238-.048.238c0,0-.099-.128-.15-.026s.065.407.251.599Z"
            style="fill: #c14f40;"
        />
        <path
            d="M19.287,12.255c.781.814.849,2.008.837,3.074-.004.339-.018.678-.044,1.016-.004.053.079.053.083,0,.048-.608.065-1.224.03-1.833-.032-.551-.127-1.103-.364-1.605-.123-.261-.284-.502-.483-.71-.037-.039-.096.02-.059.059h0Z"
            style="fill: #6a7f41;"
        />
        <path d="M20.159,15.644s.535-.074.64-.689.119-.949.253-1.077l.135-.128s-.695.13-.895.714-.133,1.181-.133,1.181Z" style="fill: #3c4f2c;" />
        <path d="M20.159,14.663s.142-.788.411-1.146.794-.524.794-.524c0,0-.435-.537-.848-.101s-.357,1.77-.357,1.77Z" style="fill: #6a7f41;" />
        <path d="M20.159,15.644s-.235-.448-.556-.718-.916.085-.916.085c0,0,.414-1.086.97-.734s.502,1.367.502,1.367Z" style="fill: #6a7f41;" />
        <path d="M20.165,14.629s-.249-.842-.563-1.137-.839-.432-.839-.432c0,0,.345-.448.779-.131s.622,1.7.622,1.7Z" style="fill: #3c4f2c;" />
        <path
            d="M19.626,12.621s.445-.833.267-1.035-.304.093-.304.093c0,0-.079-.275-.215-.308s-.129.168-.129.168c0,0-.163-.298-.329-.313s-.034.283-.034.283c0,0-.247-.166-.297-.039s.12.284.12.284c0,0-.217-.043-.2.113s.265.305.265.305c0,0-.269.001-.186.172s.6.327,1.042.277Z"
            style="fill: #ffb871;"
        />
        <path
            d="M19.662,12.702s.268-.502.161-.623-.183.056-.183.056c0,0-.048-.166-.129-.186s-.078.101-.078.101c0,0-.098-.179-.198-.189s-.02.171-.02.171c0,0-.149-.1-.179-.023s.072.171.072.171c0,0-.131-.026-.12.068s.159.184.159.184c0,0-.162,0-.112.104s.362.197.628.167Z"
            style="fill: #c14f40;"
        />
        <path
            d="M21.617,10.464c.185.256.091.587-.116.799-.181.184-.431.297-.522.555-.096.27.004.563.168.784.085.114.189.208.285.312.083.089.178.201.172.33-.007.128-.081.251-.158.35-.08.102-.177.194-.292.255-.047.025-.005.096.042.072.2-.105.373-.304.455-.513.037-.094.053-.201.015-.298-.052-.132-.155-.237-.253-.335-.223-.224-.443-.51-.377-.848.061-.316.378-.429.569-.652.201-.236.278-.585.085-.851-.031-.043-.103-.001-.072.042h0Z"
            style="fill: #6a7f41;"
        />
        <circle cx="21.162" cy="12.445" r=".22" style="fill: #f4f0ed;" />
        <circle cx="21.674" cy="11.66" r=".176" style="fill: #f4f0ed;" />
        <circle cx="21.601" cy="10.473" r=".119" style="fill: #f4f0ed;" />
        <circle cx="21.121" cy="9.578" r=".223" style="fill: #f4f0ed;" />
        <path
            d="M10.52,24.268c-.516.142-1.032.25-1.565.327-2.329.337-3.749-.137-3.788-.209-.038-.073.3-.064.725-.137.425-.073,1.62-.517,1.691-.589.071-.073-.406.012-.979-.073-.573-.085-1.591-.461-1.72-.571-.129-.109-.103-.134,1.044-.376.478-.102,1.058-.277,1.863-.582.073-.028.147-.056.224-.086l2.505,2.296Z"
            style="fill: #6a7f41;"
        />
        <path
            d="M21.23,18.648c-.202.415-.514.74-.933.775-1.102.091-1.102.51-4.038,2.204-.372.215-.729.417-1.075.608-.623.343-1.206.648-1.765.916-1.02.491-1.958.859-2.899,1.118l-2.505-2.296c.486-.189,1.051-.423,1.717-.712.845-.367,1.854-.822,3.075-1.388.627-.291,1.175-.562,1.659-.813,2.606-1.357,3.337-2.17,4.435-2.672.605-.277,1.171-.212,1.604-.063,0,0,.002,0,.002,0,.033.027.367.305.413.702.048.419.067.674.183,1.148.03.121.079.285.128.473Z"
            style="fill: #869648;"
        />
        <path d="M13.419,23.151c-1.02.491-1.958.859-2.899,1.118l-2.505-2.296c.486-.189,1.051-.423,1.717-.712l3.688,1.89Z" style="fill: #3c4f2c;" />
        <path
            d="M19.627,22.77c-.129.109-1.146.486-1.719.571-.573.085-1.05,0-.979.073.071.073,1.266.516,1.691.589.425.073.764.063.725.137-.039.073-1.459.546-3.787.209-1.011-.146-1.968-.406-2.967-.792-1.301-.503-2.675-1.219-4.336-2.177-.55-.317-.997-.589-1.367-.823-1.609-1.016-1.776-1.307-2.671-1.38-1.101-.091-1.468-2.198-1.024-2.647,0,0,1.121-.983,2.422-.388,1.301.595,2.087,1.627,6.093,3.485.532.247,1.024.473,1.479.679h0c2.334,1.058,3.717,1.612,4.684,1.904.266.08.501.141.715.186,1.147.243,1.172.267,1.043.376Z"
            style="fill: #869648;"
        />
        <path d="M17.869,22.208l-5.28,1.349c-1.301-.503-2.675-1.219-4.336-2.177-.55-.317-.997-.589-1.367-.823.666-.071,3.536-.35,6.299-.252h0c2.334,1.058,3.717,1.612,4.684,1.904Z" style="fill: #6a7f41;" />
        <path
            d="M2.957,17.493c.017-.451.117-.812.233-.962-.022.04-.356.677.516.642.902-.036,2.653-.036,4.586.753,1.54.629,3.662,1.243,6.173,1.134.638-.028,1.302-.102,1.987-.235,3.381-.656,3.825-1.651,3.961-2.028.128-.355.095-.461.09-.472,0,0,0-.001,0-.001,0,0,0,0,.003.002.033.027.367.305.413.702.02.175.036.322.054.467-.476.512-1.535,1.172-4.015,1.685-.765.158-1.507.251-2.221.291-2.81.157-5.195-.501-6.93-1.184-1.979-.779-3.781-.83-4.85-.793Z"
            style="fill: #fff;"
        />
        <path
            d="M21.345,19.871c-.035.196-.11.378-.243.526-.417.463-2.38,1.444-5.918,1.838-1.055.118-2.251.183-3.588.166-1.473-.019-2.736-.149-3.805-.342-3.153-.567-4.616-1.672-4.774-2.026-.042-.093-.061-.186-.067-.281.751.565,2.169,1.303,4.38,1.773,1.129.24,2.465.411,4.025.452,1.416.038,2.684-.022,3.804-.146,3.501-.386,5.561-1.39,6.187-1.959Z"
            style="fill: #fff;"
        />
        <path
            d="M21.345,19.871c-.035.196-.11.378-.243.526-.417.463-2.38,1.444-5.918,1.838-1.055.118-2.251.183-3.588.166-1.473-.019-2.736-.149-3.805-.342-3.153-.567-4.616-1.672-4.774-2.026-.042-.093-.061-.186-.067-.281.751.565,2.169,1.303,4.38,1.773,1.129.24,2.465.411,4.025.452,1.416.038,2.684-.022,3.804-.146,3.501-.386,5.561-1.39,6.187-1.959Z"
            style="fill: #d8c856;"
        />
        <path
            d="M21.345,19.871c-.626.57-2.686,1.573-6.187,1.959-1.12.124-2.388.184-3.804.146-1.56-.042-2.896-.212-4.025-.452-2.212-.47-3.629-1.208-4.38-1.773-.022-.386.187-.806.067-1.449-.053-.284-.068-.56-.06-.809,1.069-.037,2.87.013,4.85.793,1.735.683,4.12,1.341,6.93,1.184.714-.04,1.456-.133,2.221-.291,2.481-.513,3.54-1.173,4.015-1.685.027.203.062.404.129.68.03.121.079.285.128.474.095.368.186.826.115,1.223Z"
            style="fill: #a4b541;"
        />
        <path
            d="M20.973,17.494c-.476.512-1.535,1.172-4.015,1.685-.765.158-1.507.251-2.221.291-2.81.157-5.195-.501-6.93-1.184-1.979-.779-3.781-.83-4.85-.793.017-.451.117-.812.233-.962-.022.04-.356.677.516.642.902-.036,2.653-.036,4.586.753,1.54.629,3.662,1.243,6.173,1.134.638-.028,1.302-.102,1.987-.235,3.381-.656,3.825-1.651,3.961-2.028.128-.355.095-.461.09-.472,0,0,0-.001,0-.001,0,0,0,0,.003.002.033.027.367.305.413.702.02.175.036.322.054.467Z"
            style="fill: #d8c856;"
        />
        <path
            d="M12.762,3.237c-.352.041-.625,1.059-.625,1.059,0,0-.117-.942-.404-.951s-.116,1.049-.116,1.049c0,0-.656-.669-.831-.49-.368.379.671.936.671.936,0,0-.976-.174-1.17.181-.207.379,1.243.159,1.243.159,0,0-.732.826-.431,1.103.301.276.767-.734.767-.734,0,0,.03,1.131.365,1.102.335-.029.217-1.17.217-1.17,0,0,.423.776.695.519.272-.258-.53-.81-.53-.81,0,0,1.195.397,1.107-.011-.088-.408-.996-.397-.996-.397,0,0,.903-.365.801-.642s-1.049.283-1.049.283c0,0,.577-1.219.285-1.185Z"
            style="fill: #e87e58;"
        />
        <path
            d="M12.162,2.963c-.34.171-.24,1.298-.24,1.298,0,0-.465-.906-.757-.81s.27,1.1.27,1.1c0,0-.908-.433-1.018-.188-.232.518,1.021.697,1.021.697,0,0-1.048.184-1.113.613-.069.458,1.312-.297,1.312-.297,0,0-.434,1.102-.029,1.27.405.168.502-1.022.502-1.022,0,0,.447,1.129.774.976.327-.153-.212-1.26-.212-1.26,0,0,.712.627.891.267.179-.36-.833-.622-.833-.622,0,0,1.35-.04,1.112-.418-.239-.379-1.15-.034-1.15-.034,0,0,.776-.7.571-.942s-.953.671-.953.671c0,0,.132-1.441-.149-1.299Z"
            style="fill: #ffb871;"
        />
        <path
            d="M12.624,5.067s.202.357.094.409c-.108.051-.344-.09-.344-.09,0,0-.051.325-.164.342-.113.017-.176-.185-.176-.185,0,0-.165.113-.272.058s-.028-.295-.028-.295c0,0-.358.036-.371-.05-.013-.086.298-.326.298-.326,0,0-.242-.07-.252-.139-.01-.069.297-.115.297-.115,0,0-.143-.296.016-.337.159-.041.236.035.236.035,0,0,.163-.236.314-.223.151.013.019.35.019.35,0,0,.437-.171.503-.058.066.113-.16.253-.16.253,0,0,.256-.056.263.102.007.158-.273.27-.273.27Z"
            style="fill: #c14f40;"
        />
        <path d="M12.058,5.267c-.185-.034-.308-.211-.275-.396s.211-.308.396-.275c.185.034.308.211.275.396s-.211.308-.396.275Z" style="fill: #82392f;" />
        <ellipse cx="20.534" cy="16.313" rx=".132" ry=".364" style="fill: #f4f0ed;" />
        <ellipse cx="20.534" cy="17.519" rx=".132" ry=".364" style="fill: #f4f0ed;" />
        <ellipse cx="19.895" cy="16.916" rx=".386" ry=".124" style="fill: #f4f0ed;" />
        <ellipse cx="21.174" cy="16.916" rx=".386" ry=".124" style="fill: #f4f0ed;" />
        <ellipse cx="21.088" cy="16.614" rx=".38" ry=".126" transform="translate(-5.348 11.935) rotate(-28.196)" style="fill: #e2ded9;" />
        <ellipse cx="19.981" cy="17.217" rx=".38" ry=".126" transform="translate(-5.764 11.483) rotate(-28.196)" style="fill: #e2ded9;" />
        <ellipse cx="20.215" cy="16.394" rx=".13" ry=".369" transform="translate(-5.61 13.158) rotate(-31.899)" style="fill: #e2ded9;" />
        <ellipse cx="20.854" cy="17.438" rx=".13" ry=".369" transform="translate(-6.065 13.654) rotate(-31.899)" style="fill: #e2ded9;" />
        <ellipse cx="20.854" cy="16.394" rx=".369" ry=".13" transform="translate(-4.084 25.436) rotate(-58.101)" style="fill: #ddd7d3;" />
        <ellipse cx="20.215" cy="17.438" rx=".369" ry=".13" transform="translate(-5.272 25.385) rotate(-58.101)" style="fill: #ddd7d3;" />
        <ellipse cx="19.981" cy="16.614" rx=".126" ry=".38" transform="translate(-4.103 26.374) rotate(-61.805)" style="fill: #ddd7d3;" />
        <ellipse cx="21.088" cy="17.217" rx=".126" ry=".38" transform="translate(-4.05 27.668) rotate(-61.805)" style="fill: #ddd7d3;" />
        <ellipse cx="20.534" cy="16.916" rx=".358" ry=".337" style="fill: #e87e58;" />
        <ellipse cx="20.526" cy="16.916" rx=".262" ry=".247" style="fill: #82392f;" />
    </g>
    <g><text fill="#FFFFFF" font-family="Arial, Helvetica, sans-serif" font-size="85.590277777778px" text-anchor="middle" x="513.54166666667" y="-74.068509615385" transform="translate(0,984.28819444444)">SCAN ME</text></g>
    <script xmlns="" />
</svg>
