<svg xmlns="http://www.w3.org/2000/svg" xmlns:xlink="http://www.w3.org/1999/xlink" xml:space="preserve" width="1041.6666666667" height="1231.9791666667" viewBox="0 0 1041.6666666667 1231.9791666667">
    <rect width="100%" height="100%" fill="#ffffff" x="0" y="0" />
    <g transform="scale(43.402777777778)" fill="#000000">
        <path
            d="M20.297,19.493c-.153-.045-.324-.185-.345-.439-.001-.014-.002-.034-.004-.06-.002-.042-.005-.101-.008-.172-.005-.138-.012-.321-.018-.504-.012-.364-.022-.728-.022-.728l-.002-.077.022-.074c.077-.261.396-.611,1.472-.796.182-.031.363-.043.543-.037.34-.406.756-.467,1.025-.387.22.065.383.229.437.439.04.156.016.316-.066.458.371.31.601.736.637,1.207.037.484-.128.913-.452,1.175-.31.251-.725.325-1.136.203-.189-.056-.369-.151-.535-.283-.273-.217-.442-.51-.501-.857-.344.27-.443.588-.448.606l-.354.397-.244-.072Z"
            style="fill: #d6546c;"
        />
        <path
            d="M22.402,18.088c.048-.468.218-.903.466-1.153.248-.249-.257-.473-.627.062-.37.536-.72,1.549-.097,2.044.623.495,1.411.182,1.344-.681-.067-.864-1.008-1.416-2.015-1.243-1.007.173-1.092.458-1.092.458,0,0,.042,1.49.053,1.455.01-.034.245-.826,1.204-1.172.959-.346,1.47.066,1.343.537-.127.471-.61-.005-.579-.308Z"
            style="fill: #ffa1ae;"
        />
        <path
            d="M19.001,3.396H4.873c-.831,0-1.505.674-1.505,1.505v14.128c0,.831.674,1.505,1.505,1.505h14.128c.831,0,1.505-.674,1.505-1.505V4.901c0-.831-.674-1.505-1.505-1.505ZM19.092,17.864c0,.694-.563,1.257-1.257,1.257H6.038c-.694,0-1.257-.563-1.257-1.257V6.067c0-.694.562-1.257,1.257-1.257h11.797c.694,0,1.257.563,1.257,1.257v11.797Z"
            style="fill: #d6546c;"
        />
        <path
            d="M19.001,20.932H4.873c-1.049,0-1.902-.853-1.902-1.902V4.901c0-1.049.853-1.902,1.902-1.902h14.128c1.049,0,1.902.853,1.902,1.902v14.128c0,1.049-.853,1.902-1.902,1.902ZM4.873,3.794c-.611,0-1.108.497-1.108,1.108v14.128c0,.611.497,1.108,1.108,1.108h14.128c.611,0,1.108-.497,1.108-1.108V4.901c0-.611-.497-1.108-1.108-1.108H4.873ZM17.835,19.518H6.038c-.912,0-1.654-.742-1.654-1.654V6.067c0-.912.742-1.654,1.654-1.654h11.797c.912,0,1.654.742,1.654,1.654v11.797c0,.912-.742,1.654-1.654,1.654ZM6.038,5.208c-.474,0-.859.386-.859.859v11.797c0,.474.385.859.859.859h11.797c.474,0,.859-.385.859-.859V6.067c0-.474-.385-.859-.859-.859H6.038Z"
            style="fill: #d6546c;"
        />
        <path
            d="M19.001,3.396H4.873c-.831,0-1.505.674-1.505,1.505v14.128c0,.831.674,1.505,1.505,1.505h14.128c.831,0,1.505-.674,1.505-1.505V4.901c0-.831-.674-1.505-1.505-1.505ZM19.092,17.864c0,.694-.563,1.257-1.257,1.257H6.038c-.694,0-1.257-.563-1.257-1.257V6.067c0-.694.562-1.257,1.257-1.257h11.797c.694,0,1.257.563,1.257,1.257v11.797Z"
            style="fill: #ffa1ae;"
        />
        <path
            d="M10.516,19.637c.168.347.519,1.02.534,1.076.071.188.458,1.285.15,2.013-.183.433-.485.498-.648.498-.27,0-.498-.167-.689-.349-.016.014-.033.029-.047.041-.084.074-.188.167-.316.234-.08.042-.167.063-.259.063-.284,0-.564-.197-.88-.62-.218-.291-.42-.65-.54-.96-.166-.429-.243-.645-.274-.738-.202-.506-.345-1.152-.458-1.56,0,0,.343.15.567.021.547-.315,2.86.28,2.86.28Z"
            style="fill: #d6546c;"
        />
        <path d="M7.368,19.208s-.378-.031-.231.223c.736,1.266,1.04,1.65,1.04,1.65,0,0,.412.251,1.452.197,1.04-.054,1.054-.434,1.054-.434l-.083-1.206s-1.793-.504-3.233-.429Z" style="fill: #ffa1ae;" />
        <path
            d="M10.684,20.844s.425,1.101.161,1.724c-.175.414-.444.253-.74-.043-.296-.296-.493.118-.774.265-.282.148-.884-.716-1.112-1.304-.228-.587-.284-.768-.284-.768,0,0,.924.346,1.919.391.576.026.83-.267.83-.267Z"
            style="fill: #8d0300;"
        />
        <path
            d="M9.043,21.012c.255.048.537.086.825.099.389.017.631-.11.747-.195.073.192.222.636.218,1.046-.005.541-.325.745-.546.578-.221-.167-.42-.411-.46-.316-.041.095-.149.131-.226-.158-.077-.289-.519-.953-.519-.953-.026-.04-.036-.074-.04-.101Z"
            style="fill: #af5046;"
        />
        <path
            d="M14.068,19.637c-.168.347-.519,1.02-.534,1.076-.071.188-.458,1.285-.15,2.013.183.433.485.498.648.498.27,0,.498-.167.689-.349.016.014.033.029.047.041.084.074.188.167.316.234.08.042.167.063.259.063.284,0,.564-.197.88-.62.218-.291.42-.65.54-.96.166-.429.243-.645.275-.738.202-.506.345-1.152.458-1.56,0,0-.343.15-.567.021-.547-.315-2.86.28-2.86.28Z"
            style="fill: #d6546c;"
        />
        <path d="M17.216,19.208s.378-.031.231.223c-.736,1.266-1.04,1.65-1.04,1.65,0,0-.412.251-1.452.197-1.04-.054-1.054-.434-1.054-.434l.083-1.206s1.793-.504,3.233-.429Z" style="fill: #ffa1ae;" />
        <path d="M13.9,20.844s-.425,1.101-.161,1.724c.175.414.444.253.74-.043.296-.296.493.118.774.265.282.148.884-.716,1.112-1.304.228-.587.284-.768.284-.768,0,0-.924.346-1.919.391-.576.026-.83-.267-.83-.267Z" style="fill: #8d0300;" />
        <path
            d="M15.542,21.012c-.255.048-.537.086-.825.099-.389.017-.631-.11-.747-.195-.073.192-.222.636-.218,1.046.005.541.325.745.546.578.221-.167.42-.411.46-.316.041.095.149.131.226-.158.077-.289.519-.953.519-.953.026-.04.037-.074.04-.101Z"
            style="fill: #af5046;"
        />
        <path
            d="M4.408,14.759c.059-.825.494-2.878-.01-3.114-.504-.236-1.495-.302-1.679-.22-.933.416-1.434,1.285-1.375,2.383.071,1.326.742,2.503,1.713,2.817.245.079.85.044,1.12-.064.033-.01.066-.02.097-.032.904-.334.077-.975.133-1.771Z"
            style="fill: #d6546c;"
        />
        <path d="M4.728,11.625c-.625-.059-1.257-.01-1.813.239-2.036.908-.848,4.035.467,4.461.294.095.784.136,1.346.105v-4.805Z" style="fill: #ffa1ae;" />
        <path
            d="M19.81,14.759c-.059-.825-.494-2.878.01-3.114.504-.236,1.495-.302,1.679-.22.933.416,1.434,1.285,1.375,2.383-.071,1.326-.742,2.503-1.713,2.817-.245.079-.85.044-1.12-.064-.033-.01-.066-.02-.097-.032-.904-.334-.077-.975-.133-1.771Z"
            style="fill: #d6546c;"
        />
        <path d="M19.489,11.625c.625-.059,1.257-.01,1.813.239,2.036.908.848,4.035-.467,4.461-.294.095-.784.136-1.346.105v-4.805Z" style="fill: #ffa1ae;" />
        <path d="M12.957,3.558c-2.945.107-4.944.511-2.598.897,2.346.386,4.296-.959,2.598-.897Z" style="fill: #ffc9d4;" />
        <path
            d="M23.769,4.366c-.424-.803-1.342-1.213-1.782-1.37-.053-.181-.165-.428-.404-.689-.54-.59-1.478-.999-2.788-1.215-.276-.045-.538-.068-.779-.068-.748,0-1.326.217-1.72.644-.668.726-.507,1.782-.5,1.826l.051.315h1.662c.034.292.083.829.124,1.74.037.824.407,1.895.99,2.865.288.479,1.048,1.617,1.891,1.828.236.059.409.087.545.087h0c.267,0,.407-.112.478-.205.158-.211.071-.436.013-.586-.01-.026-.025-.065-.034-.094.052-.066.164-.181.265-.285.466-.481,1.334-1.377,1.991-2.905.296-.688.295-1.323-.002-1.886ZM23.037,5.976c-.604,1.406-1.38,2.206-1.843,2.684-.281.29-.436.45-.47.655-.012.074-.009.145.002.212-.002,0-.004-.001-.006-.002-.743-.186-2.221-2.376-2.295-4.009-.074-1.635-.171-2.106-.182-2.155l-.066-.294h-1.609c.011-.266.076-.646.331-.921.236-.255.612-.384,1.117-.384.195,0,.41.019.641.057,1.342.221,1.978.62,2.274.915.274.273.306.499.309.538l-.023.277.313.081c.011.003,1.132.312,1.528,1.062.196.371.188.79-.023,1.282Z"
            style="fill: #d6546c;"
        />
        <path
            d="M18.03,5.532c.075,1.652,1.567,4.095,2.587,4.351,1.02.256.448-.209.498-.512.05-.302,1.368-1.117,2.289-3.257.921-2.141-1.766-2.839-1.766-2.839,0,0,.025-1.335-2.911-1.819-2.936-.484-2.538,1.717-2.538,1.717l-1.997.913,3.332.025v-1.185s.432.955.506,2.607Z"
            style="fill: #ffa1ae;"
        />
        <path d="M20.35,1.754s.758.404,1.227,1.629c.328.856.346,1.505.346,1.505,0,0,.083-.503,0-1.036-.109-.703-.32-1.259-.32-1.259l-1.253-.839Z" style="fill: #d6546c;" />
        <path
            d="M.205,6.082c.609,1.415,1.412,2.245,1.844,2.69.093.096.197.203.245.264-.009.027-.022.063-.032.087-.054.138-.135.347.012.542.065.087.195.19.442.19h0c.126,0,.286-.026.505-.08.78-.196,1.485-1.249,1.751-1.693.539-.898.882-1.89.916-2.653.038-.844.084-1.341.115-1.611h1.539l.047-.292c.007-.041.156-1.019-.463-1.691-.364-.396-.9-.597-1.593-.597-.223,0-.465.021-.721.063-1.213.2-2.082.579-2.582,1.125-.221.242-.325.471-.374.639-.408.145-1.258.525-1.65,1.269-.275.521-.276,1.109-.002,1.747ZM.864,4.639c.367-.694,1.405-.981,1.415-.983l.29-.075-.021-.257c.003-.036.032-.245.286-.498.275-.274.863-.643,2.106-.848.214-.035.413-.053.594-.053.468,0,.816.12,1.035.356.236.255.297.607.307.853h-1.49l-.061.272c-.01.045-.1.481-.169,1.995-.068,1.512-1.437,3.54-2.125,3.713-.002,0-.004.001-.006.001.01-.062.013-.128.002-.196-.031-.19-.175-.338-.435-.607-.429-.443-1.147-1.184-1.707-2.485-.196-.455-.203-.843-.021-1.187Z"
            style="fill: #d6546c;"
        />
        <path
            d="M5.522,5.415c-.069,1.53-1.452,3.792-2.396,4.029-.945.237-.415-.194-.461-.474-.046-.28-1.267-1.034-2.12-3.017-.852-1.982,1.636-2.629,1.636-2.629,0,0-.023-1.237,2.696-1.685,2.719-.448,2.35,1.59,2.35,1.59l1.85.846-3.086.023v-1.098s-.4.884-.469,2.414Z"
            style="fill: #ffa1ae;"
        />
        <path
            d="M21.532,4.987c-.831-.07-.575-1.307-1.212-2.211-.637-.904-2.089-1.202-2.894-.481,0,0,1.24.947,1.227,2.63-.013,1.683.38,3.169,1.233,3.728.853.559,1.148.768,1.052.028-.096-.74.309-2.502,1.008-3.028.699-.526.417-.596-.414-.666Z"
            style="fill: #ffc9d4;"
        />
        <path d="M23.143,4.555c-.333-.707-1.219-.942-1.219-.942,0,0,.435.489.572,1.117.137.628.98.532.647-.175Z" style="fill: #ffc9d4;" />
        <path
            d="M3.401,2.863c-.589.837-.353,1.982-1.122,2.047-.77.065-1.03.13-.383.617.647.487,1.022,2.12.933,2.804-.089.685.184.491.974-.026.79-.518,1.154-1.893,1.142-3.452-.012-1.559,1.137-2.436,1.137-2.436-.745-.668-2.091-.392-2.68.445Z"
            style="fill: #ffc9d4;"
        />
        <path d="M.787,4.51c-.309.654.472.743.599.162.127-.582.53-1.034.53-1.034,0,0-.82.218-1.129.873Z" style="fill: #ffc9d4;" />
        <path d="M3.373,1.916s-.702.374-1.136,1.508c-.304.793-.321,1.394-.321,1.394,0,0-.076-.466,0-.96.101-.651.296-1.166.296-1.166l1.161-.777Z" style="fill: #d6546c;" />
        <path
            d="M14.018,19.586c-.284-.643-.897-1.284-1.354-1.434-.046-.051-.182-.082-.486-.082-.461,0-1.246.79-1.567,1.516-.321.727-.042,1.719.762,1.747.67.023.888-.08.942-.114.054.035.272.138.942.114.804-.028,1.083-1.02.762-1.747Z"
            style="fill: #ff71a3;"
        />
        <path d="M11.896,19.204s-.102.587-.074,1.015c.028.429-.503.699-.643.149-.14-.55.354-.764.717-1.165Z" style="fill: #ec4986;" />
        <path d="M12.692,19.204s.103.587.075,1.015c-.028.429.503.699.643.149.14-.55-.354-.764-.717-1.165Z" style="fill: #ec4986;" />
        <path d="M10.722,19.745s.995-1.332,1.592-1.351c.597-.019,1.548,1.453,1.548,1.453,0,0-.411-1.431-1.491-1.686-.671-.158-1.649,1.584-1.649,1.584Z" style="fill: #ff9ec4;" />
        <path
            d="M14.036,19.629c-.012.403-.102.904-.453,1.048-.615.25-1.29-.197-1.29-.197,0,0-.212.615-1.138.401-.458-.106-.61-.547-.646-.965-.127.665.177,1.393.863,1.417.67.023.888-.08.942-.114.054.035.272.138.942.114.788-.027,1.071-.981.779-1.704Z"
            style="fill: #ff5b97;"
        />
    </g>
    <g fill="#000000">
        <g transform="translate(430.83333333333,270.83333333333) scale(3.4333333333333)"><rect width="6" height="6" /></g>
        <g transform="translate(470.83333333333,270.83333333333) scale(3.4333333333333)"><rect width="6" height="6" /></g>
        <g transform="translate(570.83333333333,270.83333333333) scale(3.4333333333333)"><rect width="6" height="6" /></g>
        <g transform="translate(590.83333333333,270.83333333333) scale(3.4333333333333)"><rect width="6" height="6" /></g>
        <g transform="translate(450.83333333333,290.83333333333) scale(3.4333333333333)"><rect width="6" height="6" /></g>
        <g transform="translate(510.83333333333,290.83333333333) scale(3.4333333333333)"><rect width="6" height="6" /></g>
        <g transform="translate(490.83333333333,310.83333333333) scale(3.4333333333333)"><rect width="6" height="6" /></g>
        <g transform="translate(550.83333333333,310.83333333333) scale(3.4333333333333)"><rect width="6" height="6" /></g>
        <g transform="translate(590.83333333333,310.83333333333) scale(3.4333333333333)"><rect width="6" height="6" /></g>
        <g transform="translate(450.83333333333,330.83333333333) scale(3.4333333333333)"><rect width="6" height="6" /></g>
        <g transform="translate(510.83333333333,330.83333333333) scale(3.4333333333333)"><rect width="6" height="6" /></g>
        <g transform="translate(430.83333333333,350.83333333333) scale(3.4333333333333)"><rect width="6" height="6" /></g>
        <g transform="translate(450.83333333333,350.83333333333) scale(3.4333333333333)"><rect width="6" height="6" /></g>
        <g transform="translate(530.83333333333,350.83333333333) scale(3.4333333333333)"><rect width="6" height="6" /></g>
        <g transform="translate(550.83333333333,350.83333333333) scale(3.4333333333333)"><rect width="6" height="6" /></g>
        <g transform="translate(570.83333333333,350.83333333333) scale(3.4333333333333)"><rect width="6" height="6" /></g>
        <g transform="translate(430.83333333333,370.83333333333) scale(3.4333333333333)"><rect width="6" height="6" /></g>
        <g transform="translate(450.83333333333,370.83333333333) scale(3.4333333333333)"><rect width="6" height="6" /></g>
        <g transform="translate(470.83333333333,370.83333333333) scale(3.4333333333333)"><rect width="6" height="6" /></g>
        <g transform="translate(510.83333333333,370.83333333333) scale(3.4333333333333)"><rect width="6" height="6" /></g>
        <g transform="translate(530.83333333333,370.83333333333) scale(3.4333333333333)"><rect width="6" height="6" /></g>
        <g transform="translate(550.83333333333,370.83333333333) scale(3.4333333333333)"><rect width="6" height="6" /></g>
        <g transform="translate(570.83333333333,370.83333333333) scale(3.4333333333333)"><rect width="6" height="6" /></g>
        <g transform="translate(590.83333333333,370.83333333333) scale(3.4333333333333)"><rect width="6" height="6" /></g>
        <g transform="translate(430.83333333333,390.83333333333) scale(3.4333333333333)"><rect width="6" height="6" /></g>
        <g transform="translate(470.83333333333,390.83333333333) scale(3.4333333333333)"><rect width="6" height="6" /></g>
        <g transform="translate(510.83333333333,390.83333333333) scale(3.4333333333333)"><rect width="6" height="6" /></g>
        <g transform="translate(550.83333333333,390.83333333333) scale(3.4333333333333)"><rect width="6" height="6" /></g>
        <g transform="translate(590.83333333333,390.83333333333) scale(3.4333333333333)"><rect width="6" height="6" /></g>
        <g transform="translate(450.83333333333,410.83333333333) scale(3.4333333333333)"><rect width="6" height="6" /></g>
        <g transform="translate(490.83333333333,410.83333333333) scale(3.4333333333333)"><rect width="6" height="6" /></g>
        <g transform="translate(530.83333333333,410.83333333333) scale(3.4333333333333)"><rect width="6" height="6" /></g>
        <g transform="translate(570.83333333333,410.83333333333) scale(3.4333333333333)"><rect width="6" height="6" /></g>
        <g transform="translate(590.83333333333,410.83333333333) scale(3.4333333333333)"><rect width="6" height="6" /></g>
        <g transform="translate(290.83333333333,430.83333333333) scale(3.4333333333333)"><rect width="6" height="6" /></g>
        <g transform="translate(310.83333333333,430.83333333333) scale(3.4333333333333)"><rect width="6" height="6" /></g>
        <g transform="translate(330.83333333333,430.83333333333) scale(3.4333333333333)"><rect width="6" height="6" /></g>
        <g transform="translate(350.83333333333,430.83333333333) scale(3.4333333333333)"><rect width="6" height="6" /></g>
        <g transform="translate(370.83333333333,430.83333333333) scale(3.4333333333333)"><rect width="6" height="6" /></g>
        <g transform="translate(390.83333333333,430.83333333333) scale(3.4333333333333)"><rect width="6" height="6" /></g>
        <g transform="translate(410.83333333333,430.83333333333) scale(3.4333333333333)"><rect width="6" height="6" /></g>
        <g transform="translate(450.83333333333,430.83333333333) scale(3.4333333333333)"><rect width="6" height="6" /></g>
        <g transform="translate(490.83333333333,430.83333333333) scale(3.4333333333333)"><rect width="6" height="6" /></g>
        <g transform="translate(510.83333333333,430.83333333333) scale(3.4333333333333)"><rect width="6" height="6" /></g>
        <g transform="translate(550.83333333333,430.83333333333) scale(3.4333333333333)"><rect width="6" height="6" /></g>
        <g transform="translate(650.83333333333,430.83333333333) scale(3.4333333333333)"><rect width="6" height="6" /></g>
        <g transform="translate(670.83333333333,430.83333333333) scale(3.4333333333333)"><rect width="6" height="6" /></g>
        <g transform="translate(750.83333333333,430.83333333333) scale(3.4333333333333)"><rect width="6" height="6" /></g>
        <g transform="translate(330.83333333333,450.83333333333) scale(3.4333333333333)"><rect width="6" height="6" /></g>
        <g transform="translate(350.83333333333,450.83333333333) scale(3.4333333333333)"><rect width="6" height="6" /></g>
        <g transform="translate(370.83333333333,450.83333333333) scale(3.4333333333333)"><rect width="6" height="6" /></g>
        <g transform="translate(430.83333333333,450.83333333333) scale(3.4333333333333)"><rect width="6" height="6" /></g>
        <g transform="translate(490.83333333333,450.83333333333) scale(3.4333333333333)"><rect width="6" height="6" /></g>
        <g transform="translate(590.83333333333,450.83333333333) scale(3.4333333333333)"><rect width="6" height="6" /></g>
        <g transform="translate(610.83333333333,450.83333333333) scale(3.4333333333333)"><rect width="6" height="6" /></g>
        <g transform="translate(730.83333333333,450.83333333333) scale(3.4333333333333)"><rect width="6" height="6" /></g>
        <g transform="translate(270.83333333333,470.83333333333) scale(3.4333333333333)"><rect width="6" height="6" /></g>
        <g transform="translate(290.83333333333,470.83333333333) scale(3.4333333333333)"><rect width="6" height="6" /></g>
        <g transform="translate(310.83333333333,470.83333333333) scale(3.4333333333333)"><rect width="6" height="6" /></g>
        <g transform="translate(350.83333333333,470.83333333333) scale(3.4333333333333)"><rect width="6" height="6" /></g>
        <g transform="translate(370.83333333333,470.83333333333) scale(3.4333333333333)"><rect width="6" height="6" /></g>
        <g transform="translate(390.83333333333,470.83333333333) scale(3.4333333333333)"><rect width="6" height="6" /></g>
        <g transform="translate(410.83333333333,470.83333333333) scale(3.4333333333333)"><rect width="6" height="6" /></g>
        <g transform="translate(450.83333333333,470.83333333333) scale(3.4333333333333)"><rect width="6" height="6" /></g>
        <g transform="translate(490.83333333333,470.83333333333) scale(3.4333333333333)"><rect width="6" height="6" /></g>
        <g transform="translate(570.83333333333,470.83333333333) scale(3.4333333333333)"><rect width="6" height="6" /></g>
        <g transform="translate(590.83333333333,470.83333333333) scale(3.4333333333333)"><rect width="6" height="6" /></g>
        <g transform="translate(610.83333333333,470.83333333333) scale(3.4333333333333)"><rect width="6" height="6" /></g>
        <g transform="translate(630.83333333333,470.83333333333) scale(3.4333333333333)"><rect width="6" height="6" /></g>
        <g transform="translate(650.83333333333,470.83333333333) scale(3.4333333333333)"><rect width="6" height="6" /></g>
        <g transform="translate(670.83333333333,470.83333333333) scale(3.4333333333333)"><rect width="6" height="6" /></g>
        <g transform="translate(690.83333333333,470.83333333333) scale(3.4333333333333)"><rect width="6" height="6" /></g>
        <g transform="translate(730.83333333333,470.83333333333) scale(3.4333333333333)"><rect width="6" height="6" /></g>
        <g transform="translate(750.83333333333,470.83333333333) scale(3.4333333333333)"><rect width="6" height="6" /></g>
        <g transform="translate(270.83333333333,490.83333333333) scale(3.4333333333333)"><rect width="6" height="6" /></g>
        <g transform="translate(310.83333333333,490.83333333333) scale(3.4333333333333)"><rect width="6" height="6" /></g>
        <g transform="translate(350.83333333333,490.83333333333) scale(3.4333333333333)"><rect width="6" height="6" /></g>
        <g transform="translate(430.83333333333,490.83333333333) scale(3.4333333333333)"><rect width="6" height="6" /></g>
        <g transform="translate(450.83333333333,490.83333333333) scale(3.4333333333333)"><rect width="6" height="6" /></g>
        <g transform="translate(490.83333333333,490.83333333333) scale(3.4333333333333)"><rect width="6" height="6" /></g>
        <g transform="translate(550.83333333333,490.83333333333) scale(3.4333333333333)"><rect width="6" height="6" /></g>
        <g transform="translate(590.83333333333,490.83333333333) scale(3.4333333333333)"><rect width="6" height="6" /></g>
        <g transform="translate(630.83333333333,490.83333333333) scale(3.4333333333333)"><rect width="6" height="6" /></g>
        <g transform="translate(750.83333333333,490.83333333333) scale(3.4333333333333)"><rect width="6" height="6" /></g>
        <g transform="translate(390.83333333333,510.83333333333) scale(3.4333333333333)"><rect width="6" height="6" /></g>
        <g transform="translate(410.83333333333,510.83333333333) scale(3.4333333333333)"><rect width="6" height="6" /></g>
        <g transform="translate(450.83333333333,510.83333333333) scale(3.4333333333333)"><rect width="6" height="6" /></g>
        <g transform="translate(470.83333333333,510.83333333333) scale(3.4333333333333)"><rect width="6" height="6" /></g>
        <g transform="translate(610.83333333333,510.83333333333) scale(3.4333333333333)"><rect width="6" height="6" /></g>
        <g transform="translate(630.83333333333,510.83333333333) scale(3.4333333333333)"><rect width="6" height="6" /></g>
        <g transform="translate(650.83333333333,510.83333333333) scale(3.4333333333333)"><rect width="6" height="6" /></g>
        <g transform="translate(670.83333333333,510.83333333333) scale(3.4333333333333)"><rect width="6" height="6" /></g>
        <g transform="translate(710.83333333333,510.83333333333) scale(3.4333333333333)"><rect width="6" height="6" /></g>
        <g transform="translate(730.83333333333,510.83333333333) scale(3.4333333333333)"><rect width="6" height="6" /></g>
        <g transform="translate(750.83333333333,510.83333333333) scale(3.4333333333333)"><rect width="6" height="6" /></g>
        <g transform="translate(270.83333333333,530.83333333333) scale(3.4333333333333)"><rect width="6" height="6" /></g>
        <g transform="translate(290.83333333333,530.83333333333) scale(3.4333333333333)"><rect width="6" height="6" /></g>
        <g transform="translate(310.83333333333,530.83333333333) scale(3.4333333333333)"><rect width="6" height="6" /></g>
        <g transform="translate(330.83333333333,530.83333333333) scale(3.4333333333333)"><rect width="6" height="6" /></g>
        <g transform="translate(350.83333333333,530.83333333333) scale(3.4333333333333)"><rect width="6" height="6" /></g>
        <g transform="translate(410.83333333333,530.83333333333) scale(3.4333333333333)"><rect width="6" height="6" /></g>
        <g transform="translate(470.83333333333,530.83333333333) scale(3.4333333333333)"><rect width="6" height="6" /></g>
        <g transform="translate(490.83333333333,530.83333333333) scale(3.4333333333333)"><rect width="6" height="6" /></g>
        <g transform="translate(510.83333333333,530.83333333333) scale(3.4333333333333)"><rect width="6" height="6" /></g>
        <g transform="translate(550.83333333333,530.83333333333) scale(3.4333333333333)"><rect width="6" height="6" /></g>
        <g transform="translate(590.83333333333,530.83333333333) scale(3.4333333333333)"><rect width="6" height="6" /></g>
        <g transform="translate(610.83333333333,530.83333333333) scale(3.4333333333333)"><rect width="6" height="6" /></g>
        <g transform="translate(690.83333333333,530.83333333333) scale(3.4333333333333)"><rect width="6" height="6" /></g>
        <g transform="translate(730.83333333333,530.83333333333) scale(3.4333333333333)"><rect width="6" height="6" /></g>
        <g transform="translate(270.83333333333,550.83333333333) scale(3.4333333333333)"><rect width="6" height="6" /></g>
        <g transform="translate(310.83333333333,550.83333333333) scale(3.4333333333333)"><rect width="6" height="6" /></g>
        <g transform="translate(370.83333333333,550.83333333333) scale(3.4333333333333)"><rect width="6" height="6" /></g>
        <g transform="translate(390.83333333333,550.83333333333) scale(3.4333333333333)"><rect width="6" height="6" /></g>
        <g transform="translate(450.83333333333,550.83333333333) scale(3.4333333333333)"><rect width="6" height="6" /></g>
        <g transform="translate(470.83333333333,550.83333333333) scale(3.4333333333333)"><rect width="6" height="6" /></g>
        <g transform="translate(570.83333333333,550.83333333333) scale(3.4333333333333)"><rect width="6" height="6" /></g>
        <g transform="translate(590.83333333333,550.83333333333) scale(3.4333333333333)"><rect width="6" height="6" /></g>
        <g transform="translate(630.83333333333,550.83333333333) scale(3.4333333333333)"><rect width="6" height="6" /></g>
        <g transform="translate(650.83333333333,550.83333333333) scale(3.4333333333333)"><rect width="6" height="6" /></g>
        <g transform="translate(670.83333333333,550.83333333333) scale(3.4333333333333)"><rect width="6" height="6" /></g>
        <g transform="translate(690.83333333333,550.83333333333) scale(3.4333333333333)"><rect width="6" height="6" /></g>
        <g transform="translate(730.83333333333,550.83333333333) scale(3.4333333333333)"><rect width="6" height="6" /></g>
        <g transform="translate(750.83333333333,550.83333333333) scale(3.4333333333333)"><rect width="6" height="6" /></g>
        <g transform="translate(270.83333333333,570.83333333333) scale(3.4333333333333)"><rect width="6" height="6" /></g>
        <g transform="translate(310.83333333333,570.83333333333) scale(3.4333333333333)"><rect width="6" height="6" /></g>
        <g transform="translate(370.83333333333,570.83333333333) scale(3.4333333333333)"><rect width="6" height="6" /></g>
        <g transform="translate(410.83333333333,570.83333333333) scale(3.4333333333333)"><rect width="6" height="6" /></g>
        <g transform="translate(430.83333333333,570.83333333333) scale(3.4333333333333)"><rect width="6" height="6" /></g>
        <g transform="translate(450.83333333333,570.83333333333) scale(3.4333333333333)"><rect width="6" height="6" /></g>
        <g transform="translate(490.83333333333,570.83333333333) scale(3.4333333333333)"><rect width="6" height="6" /></g>
        <g transform="translate(550.83333333333,570.83333333333) scale(3.4333333333333)"><rect width="6" height="6" /></g>
        <g transform="translate(610.83333333333,570.83333333333) scale(3.4333333333333)"><rect width="6" height="6" /></g>
        <g transform="translate(630.83333333333,570.83333333333) scale(3.4333333333333)"><rect width="6" height="6" /></g>
        <g transform="translate(650.83333333333,570.83333333333) scale(3.4333333333333)"><rect width="6" height="6" /></g>
        <g transform="translate(670.83333333333,570.83333333333) scale(3.4333333333333)"><rect width="6" height="6" /></g>
        <g transform="translate(750.83333333333,570.83333333333) scale(3.4333333333333)"><rect width="6" height="6" /></g>
        <g transform="translate(270.83333333333,590.83333333333) scale(3.4333333333333)"><rect width="6" height="6" /></g>
        <g transform="translate(330.83333333333,590.83333333333) scale(3.4333333333333)"><rect width="6" height="6" /></g>
        <g transform="translate(350.83333333333,590.83333333333) scale(3.4333333333333)"><rect width="6" height="6" /></g>
        <g transform="translate(370.83333333333,590.83333333333) scale(3.4333333333333)"><rect width="6" height="6" /></g>
        <g transform="translate(390.83333333333,590.83333333333) scale(3.4333333333333)"><rect width="6" height="6" /></g>
        <g transform="translate(450.83333333333,590.83333333333) scale(3.4333333333333)"><rect width="6" height="6" /></g>
        <g transform="translate(470.83333333333,590.83333333333) scale(3.4333333333333)"><rect width="6" height="6" /></g>
        <g transform="translate(490.83333333333,590.83333333333) scale(3.4333333333333)"><rect width="6" height="6" /></g>
        <g transform="translate(510.83333333333,590.83333333333) scale(3.4333333333333)"><rect width="6" height="6" /></g>
        <g transform="translate(530.83333333333,590.83333333333) scale(3.4333333333333)"><rect width="6" height="6" /></g>
        <g transform="translate(570.83333333333,590.83333333333) scale(3.4333333333333)"><rect width="6" height="6" /></g>
        <g transform="translate(590.83333333333,590.83333333333) scale(3.4333333333333)"><rect width="6" height="6" /></g>
        <g transform="translate(610.83333333333,590.83333333333) scale(3.4333333333333)"><rect width="6" height="6" /></g>
        <g transform="translate(630.83333333333,590.83333333333) scale(3.4333333333333)"><rect width="6" height="6" /></g>
        <g transform="translate(650.83333333333,590.83333333333) scale(3.4333333333333)"><rect width="6" height="6" /></g>
        <g transform="translate(670.83333333333,590.83333333333) scale(3.4333333333333)"><rect width="6" height="6" /></g>
        <g transform="translate(710.83333333333,590.83333333333) scale(3.4333333333333)"><rect width="6" height="6" /></g>
        <g transform="translate(430.83333333333,610.83333333333) scale(3.4333333333333)"><rect width="6" height="6" /></g>
        <g transform="translate(470.83333333333,610.83333333333) scale(3.4333333333333)"><rect width="6" height="6" /></g>
        <g transform="translate(490.83333333333,610.83333333333) scale(3.4333333333333)"><rect width="6" height="6" /></g>
        <g transform="translate(510.83333333333,610.83333333333) scale(3.4333333333333)"><rect width="6" height="6" /></g>
        <g transform="translate(570.83333333333,610.83333333333) scale(3.4333333333333)"><rect width="6" height="6" /></g>
        <g transform="translate(590.83333333333,610.83333333333) scale(3.4333333333333)"><rect width="6" height="6" /></g>
        <g transform="translate(670.83333333333,610.83333333333) scale(3.4333333333333)"><rect width="6" height="6" /></g>
        <g transform="translate(690.83333333333,610.83333333333) scale(3.4333333333333)"><rect width="6" height="6" /></g>
        <g transform="translate(430.83333333333,630.83333333333) scale(3.4333333333333)"><rect width="6" height="6" /></g>
        <g transform="translate(450.83333333333,630.83333333333) scale(3.4333333333333)"><rect width="6" height="6" /></g>
        <g transform="translate(470.83333333333,630.83333333333) scale(3.4333333333333)"><rect width="6" height="6" /></g>
        <g transform="translate(490.83333333333,630.83333333333) scale(3.4333333333333)"><rect width="6" height="6" /></g>
        <g transform="translate(590.83333333333,630.83333333333) scale(3.4333333333333)"><rect width="6" height="6" /></g>
        <g transform="translate(630.83333333333,630.83333333333) scale(3.4333333333333)"><rect width="6" height="6" /></g>
        <g transform="translate(670.83333333333,630.83333333333) scale(3.4333333333333)"><rect width="6" height="6" /></g>
        <g transform="translate(710.83333333333,630.83333333333) scale(3.4333333333333)"><rect width="6" height="6" /></g>
        <g transform="translate(730.83333333333,630.83333333333) scale(3.4333333333333)"><rect width="6" height="6" /></g>
        <g transform="translate(750.83333333333,630.83333333333) scale(3.4333333333333)"><rect width="6" height="6" /></g>
        <g transform="translate(430.83333333333,650.83333333333) scale(3.4333333333333)"><rect width="6" height="6" /></g>
        <g transform="translate(450.83333333333,650.83333333333) scale(3.4333333333333)"><rect width="6" height="6" /></g>
        <g transform="translate(490.83333333333,650.83333333333) scale(3.4333333333333)"><rect width="6" height="6" /></g>
        <g transform="translate(550.83333333333,650.83333333333) scale(3.4333333333333)"><rect width="6" height="6" /></g>
        <g transform="translate(590.83333333333,650.83333333333) scale(3.4333333333333)"><rect width="6" height="6" /></g>
        <g transform="translate(670.83333333333,650.83333333333) scale(3.4333333333333)"><rect width="6" height="6" /></g>
        <g transform="translate(690.83333333333,650.83333333333) scale(3.4333333333333)"><rect width="6" height="6" /></g>
        <g transform="translate(750.83333333333,650.83333333333) scale(3.4333333333333)"><rect width="6" height="6" /></g>
        <g transform="translate(430.83333333333,670.83333333333) scale(3.4333333333333)"><rect width="6" height="6" /></g>
        <g transform="translate(450.83333333333,670.83333333333) scale(3.4333333333333)"><rect width="6" height="6" /></g>
        <g transform="translate(470.83333333333,670.83333333333) scale(3.4333333333333)"><rect width="6" height="6" /></g>
        <g transform="translate(510.83333333333,670.83333333333) scale(3.4333333333333)"><rect width="6" height="6" /></g>
        <g transform="translate(530.83333333333,670.83333333333) scale(3.4333333333333)"><rect width="6" height="6" /></g>
        <g transform="translate(550.83333333333,670.83333333333) scale(3.4333333333333)"><rect width="6" height="6" /></g>
        <g transform="translate(570.83333333333,670.83333333333) scale(3.4333333333333)"><rect width="6" height="6" /></g>
        <g transform="translate(590.83333333333,670.83333333333) scale(3.4333333333333)"><rect width="6" height="6" /></g>
        <g transform="translate(610.83333333333,670.83333333333) scale(3.4333333333333)"><rect width="6" height="6" /></g>
        <g transform="translate(630.83333333333,670.83333333333) scale(3.4333333333333)"><rect width="6" height="6" /></g>
        <g transform="translate(650.83333333333,670.83333333333) scale(3.4333333333333)"><rect width="6" height="6" /></g>
        <g transform="translate(670.83333333333,670.83333333333) scale(3.4333333333333)"><rect width="6" height="6" /></g>
        <g transform="translate(710.83333333333,670.83333333333) scale(3.4333333333333)"><rect width="6" height="6" /></g>
        <g transform="translate(750.83333333333,670.83333333333) scale(3.4333333333333)"><rect width="6" height="6" /></g>
        <g transform="translate(430.83333333333,690.83333333333) scale(3.4333333333333)"><rect width="6" height="6" /></g>
        <g transform="translate(450.83333333333,690.83333333333) scale(3.4333333333333)"><rect width="6" height="6" /></g>
        <g transform="translate(530.83333333333,690.83333333333) scale(3.4333333333333)"><rect width="6" height="6" /></g>
        <g transform="translate(550.83333333333,690.83333333333) scale(3.4333333333333)"><rect width="6" height="6" /></g>
        <g transform="translate(570.83333333333,690.83333333333) scale(3.4333333333333)"><rect width="6" height="6" /></g>
        <g transform="translate(590.83333333333,690.83333333333) scale(3.4333333333333)"><rect width="6" height="6" /></g>
        <g transform="translate(610.83333333333,690.83333333333) scale(3.4333333333333)"><rect width="6" height="6" /></g>
        <g transform="translate(630.83333333333,690.83333333333) scale(3.4333333333333)"><rect width="6" height="6" /></g>
        <g transform="translate(670.83333333333,690.83333333333) scale(3.4333333333333)"><rect width="6" height="6" /></g>
        <g transform="translate(690.83333333333,690.83333333333) scale(3.4333333333333)"><rect width="6" height="6" /></g>
        <g transform="translate(710.83333333333,690.83333333333) scale(3.4333333333333)"><rect width="6" height="6" /></g>
        <g transform="translate(730.83333333333,690.83333333333) scale(3.4333333333333)"><rect width="6" height="6" /></g>
        <g transform="translate(750.83333333333,690.83333333333) scale(3.4333333333333)"><rect width="6" height="6" /></g>
        <g transform="translate(430.83333333333,710.83333333333) scale(3.4333333333333)"><rect width="6" height="6" /></g>
        <g transform="translate(450.83333333333,710.83333333333) scale(3.4333333333333)"><rect width="6" height="6" /></g>
        <g transform="translate(550.83333333333,710.83333333333) scale(3.4333333333333)"><rect width="6" height="6" /></g>
        <g transform="translate(590.83333333333,710.83333333333) scale(3.4333333333333)"><rect width="6" height="6" /></g>
        <g transform="translate(610.83333333333,710.83333333333) scale(3.4333333333333)"><rect width="6" height="6" /></g>
        <g transform="translate(690.83333333333,710.83333333333) scale(3.4333333333333)"><rect width="6" height="6" /></g>
        <g transform="translate(710.83333333333,710.83333333333) scale(3.4333333333333)"><rect width="6" height="6" /></g>
        <g transform="translate(750.83333333333,710.83333333333) scale(3.4333333333333)"><rect width="6" height="6" /></g>
        <g transform="translate(430.83333333333,730.83333333333) scale(3.4333333333333)"><rect width="6" height="6" /></g>
        <g transform="translate(450.83333333333,730.83333333333) scale(3.4333333333333)"><rect width="6" height="6" /></g>
        <g transform="translate(470.83333333333,730.83333333333) scale(3.4333333333333)"><rect width="6" height="6" /></g>
        <g transform="translate(530.83333333333,730.83333333333) scale(3.4333333333333)"><rect width="6" height="6" /></g>
        <g transform="translate(570.83333333333,730.83333333333) scale(3.4333333333333)"><rect width="6" height="6" /></g>
        <g transform="translate(590.83333333333,730.83333333333) scale(3.4333333333333)"><rect width="6" height="6" /></g>
        <g transform="translate(630.83333333333,730.83333333333) scale(3.4333333333333)"><rect width="6" height="6" /></g>
        <g transform="translate(650.83333333333,730.83333333333) scale(3.4333333333333)"><rect width="6" height="6" /></g>
        <g transform="translate(670.83333333333,730.83333333333) scale(3.4333333333333)"><rect width="6" height="6" /></g>
        <g transform="translate(690.83333333333,730.83333333333) scale(3.4333333333333)"><rect width="6" height="6" /></g>
        <g transform="translate(750.83333333333,730.83333333333) scale(3.4333333333333)"><rect width="6" height="6" /></g>
        <g transform="translate(450.83333333333,750.83333333333) scale(3.4333333333333)"><rect width="6" height="6" /></g>
        <g transform="translate(510.83333333333,750.83333333333) scale(3.4333333333333)"><rect width="6" height="6" /></g>
        <g transform="translate(530.83333333333,750.83333333333) scale(3.4333333333333)"><rect width="6" height="6" /></g>
        <g transform="translate(570.83333333333,750.83333333333) scale(3.4333333333333)"><rect width="6" height="6" /></g>
        <g transform="translate(650.83333333333,750.83333333333) scale(3.4333333333333)"><rect width="6" height="6" /></g>
        <g transform="translate(670.83333333333,750.83333333333) scale(3.4333333333333)"><rect width="6" height="6" /></g>
        <g transform="translate(690.83333333333,750.83333333333) scale(3.4333333333333)"><rect width="6" height="6" /></g>
        <g transform="translate(710.83333333333,750.83333333333) scale(3.4333333333333)"><rect width="6" height="6" /></g>
        <g transform="translate(730.83333333333,750.83333333333) scale(3.4333333333333)"><rect width="6" height="6" /></g>
        <g transform="translate(750.83333333333,750.83333333333) scale(3.4333333333333)"><rect width="6" height="6" /></g>
        <g transform="translate(270.83333333333,270.83333333333)">
            <g transform="scale(10)"><path d="M0,0v14h14V0H0z M12,12H2V2h10V12z" /></g>
        </g>
        <g transform="translate(630.83333333333,270.83333333333)">
            <g transform="scale(10)"><path d="M0,0v14h14V0H0z M12,12H2V2h10V12z" /></g>
        </g>
        <g transform="translate(270.83333333333,630.83333333333)">
            <g transform="scale(10)"><path d="M0,0v14h14V0H0z M12,12H2V2h10V12z" /></g>
        </g>
        <g transform="translate(310.83333333333,310.83333333333)">
            <g transform="scale(10)"><rect width="6" height="6" /></g>
        </g>
        <g transform="translate(670.83333333333,310.83333333333)">
            <g transform="scale(10)"><rect width="6" height="6" /></g>
        </g>
        <g transform="translate(310.83333333333,670.83333333333)">
            <g transform="scale(10)"><rect width="6" height="6" /></g>
        </g>
    </g>
    <g><text fill="#000000" font-family="Arial, Helvetica, sans-serif" font-size="108.50694444444px" text-anchor="middle" x="520.83333333333" y="95.986912393162" transform="translate(0,1041.6666666667)">SCAN ME</text></g>
    <script xmlns="" />
</svg>
