<svg xmlns="http://www.w3.org/2000/svg" xmlns:xlink="http://www.w3.org/1999/xlink" xml:space="preserve" width="1006.25" height="1190.921875" viewBox="0 0 1006.25 1190.921875">
    <rect width="100%" height="100%" fill="#ffffff" x="0" y="0" />
    <g transform="scale(41.927083333333)" fill="#20b2aa">
        <path
            d="M10.883,4.334l.271-.11c.249-.116.464-.29.661-.479,2.546-.028,5.101-.003,7.65-.012.436.03.794.36.845.795v4.121s.012.118.012.118l.589-.77c.213-.24.417-.488.651-.708-.144.449-.058.875.072,1.312.246.827.569,1.628.701,2.492.154,1.01-.262,1.953-.825,2.761-.077.11-.232.345-.323.428-.033.031-.09.054-.129.084-.16.124-.292.235-.421.392-.066.08-.131.203-.194.269-.01.01-.085.071-.094.062.228-.477.434-.966.6-1.469.408-.317.691-.811.843-1.302.027-.086.11-.366.105-.44-.005-.076-.084-.092-.127-.032-.107.558-.334,1.105-.733,1.515.105-.449.233-.917.213-1.384-.004-.099-.059-.315-.05-.386.007-.064.098-.249.125-.327.127-.37.272-.783.288-1.177.003-.071.014-.233-.104-.192-.054.019-.029.189-.034.242-.035.37-.16.728-.275,1.077l-.063.144c-.036-.214-.078-.428-.1-.645-.061-.607-.038-1.222.054-1.824.01-.066.116-.389-.054-.304-.043.021-.089.35-.098.415-.059.416-.072.836-.065,1.256-.236-.243-.414-.543-.461-.884-.007-.053.02-.131-.051-.15-.046-.012-.049.076-.051.113-.034.451.288.832.574,1.142-.007.446.159.886.214,1.314.036.284.007.577-.04.858-.006.037-.057.323-.077.323-.229-.225-.457-.45-.657-.701-.01.076-.021.155.017.228.028.054.188.219.24.274.119.126.259.238.369.368-.116.434-.274.856-.444,1.271-.047.115-.16.311-.185.416-.023.094.011.228-.011.302-.005.016-.112.141-.135.178-.035.055-.063.112-.094.169-.112-.074-.228-.133-.357-.171V4.653c-.007-.104-.043-.206-.133-.267-.013-.009-.103-.052-.111-.052h-8.594Z"
        />
        <path
            d="M3.723,11.472c-.169.21-.319.435-.489.645-.344.426-.885,1.034-1.314,1.365-.013.01-.016.024-.038.019.284-.728-.041-1.509-.207-2.229-.11-.477-.215-.987-.267-1.473-.15-1.386.64-2.519,1.576-3.442.069-.068.563-.545.607-.545.018,0,.058.036.055.054-.083.143-.164.288-.243.434-.039.072-.103.242-.145.293-.022.027-.103.047-.143.083-.193.175-.47.474-.538.726-.017.062-.02.167-.038.212s-.168.212-.211.277c-.164.247-.315.571-.396.856-.013.045-.042.12-.038.163.006.066.08.09.119.03.118-.407.281-.815.558-1.139-.014.068.107.172.113.207.009.055-.069.3-.084.379-.044.233-.061.46-.054.698.001.045.026.116.019.158-.008.046-.118.239-.146.303-.142.33-.388.915-.387,1.267,0,.105.096.136.13.066.015-.032.016-.172.025-.225.063-.369.218-.723.361-1.066l.061-.108.051.569c.003.376-.001.752-.053,1.125-.007.02-.151.11-.185.14-.205.18-.408.557-.157.783.035.032.118.066.132.081.015.017.009.042.025.062.01.013.094.075.113.087.285.168.634-.098.757-.355.064-.133.184-.574.194-.72.008-.115-.031-.224-.147-.267-.051-.019-.136-.006-.16-.027-.017-.015-.115-.213-.144-.257-.073-.114-.155-.219-.238-.326-.005-.217-.006-.435-.025-.651-.03-.334-.107-.62-.088-.965.013-.23.08-.457.126-.682.047.02.13,0,.164.006.204.042.388.396.514.548l.235.397v-.282c0-.019-.187-.284-.215-.323-.065-.092-.136-.182-.21-.265-.005-.027.005-.014.017-.02.339-.15.4-.52.342-.853-.02-.115-.102-.518-.159-.592-.023-.03-.061-.065-.1-.069l.316-.604.01-.084c.131.087.258.13.418.111.065-.008.119-.047.183-.049v2.705c-.13-.01-.251.089-.264.219-.028.286-.012.695.132.946.021.037.132.17.132.181v3.093c-.01.012-.01.015-.026.014-.11-.004-.27-.097-.394-.096-.072,0-.129.032-.182.076v-1.665Z"
        />
        <path d="M3.723,13.575c.018-.003.016.021.022.034.109.275.139.476.4.665.039.028.174.092.179.121v5.072c.013.151.134.256.281.269h6.96s.029.155.029.155c-.129.12-.195.266-.172.446h-6.829c-.376.02-.87-.405-.87-.783v-5.979Z" />
        <path
            d="M16.729,21.501c-.023.003-.009-.025-.007-.038.017-.093.047-.135.01-.234-.05-.131-.182-.176-.313-.145-.136.032-.474.161-.594.232-.314.184-.637.686-.222.944.092.057.048.036.114.112.238.277.659.015.803-.235.055-.096.069-.211.112-.289.031-.056.127-.152.171-.217.185-.27.333-.56.472-.855.049.029.094.067.144.094.088.048.172.074.263.112-.165.176-.308.399-.347.642-.029.183-.006.346.086.508.014.025.071.072.055.097-.335.203-.694.372-1.071.482-1.048.304-2.257.126-3.295-.148-.532-.14-1.058-.32-1.562-.541.243-.018.477-.086.694-.195.238.344.685.2.915-.074l.106.112c-.086.036-.301-.005-.275.132.009.048.068.045.105.043.089-.006.261-.072.328-.068.036.002.12.049.176.056.228.027.392-.062.506-.255l.6-.232c-.139.259-.316.539-.559.711-.042.03-.232.121-.241.135-.019.029-.017.061.002.09.067.066.286-.084.346-.13.296-.222.498-.57.653-.9.156-.081.314-.159.466-.247.394-.229.695-.504,1.138-.652.093-.031.33-.107.417-.11.061-.002.093.085.131.132.026.032.104.085.098.123l-.424.811Z"
        />
        <path
            d="M2.358,3.758c.01.136.091.243.186.334l-.092.255c-.124.028-.251.045-.369.094-.044.018-.169.065-.149.124.005.015.016.019.031.021.023.003.18-.079.231-.095.083-.025.176-.046.263-.044.002.198.137.362.3.457-.168.139-.363.236-.542.359-.062.042-.198.169-.247.192-.041.019-.141.002-.194.007-.158.015-.343.054-.482.131-.042.023-.163.094-.148.148.023.083.156-.056.202-.081.143-.076.335-.105.497-.11-.149.166-.319.312-.463.482-.05.06-.17.2-.199.264-.017.037-.032.1.027.089.023-.004.246-.311.29-.361.278-.321.608-.596.964-.826.019.01-.004.03-.008.042-.085.2-.262.483-.405.647-.025.029-.129.09-.07.132.043.03.148-.094.176-.127.189-.219.321-.517.451-.773.063-.023.202-.174.254-.17.071.006.177.077.26.06.024.022-.134.214-.145.25-.008.025-.013.049.015.062.035.009.047-.01.067-.031.038-.039.154-.261.171-.267l.255-.014c.002.165-.084.289-.178.417-.498.683-1.407.878-2.092,1.301-.179.11-.304.237-.422.411.072-1.204.304-2.603,1.403-3.298.023-.015.149-.095.162-.083Z"
        />
        <path
            d="M13.237,2.218c-.456.074-.727.489-1.026.796-.398.407-.849.903-1.405,1.074-.06.019-.183.057-.241.059-.029.001-.014-.002-.018-.019-.022-.085-.014-.174-.063-.256.056-.011.329-.064.351-.096.015-.022.011-.048-.014-.06-.052-.025-.307.09-.388.076l-.122-.138c.06-.124.197-.156.309-.227.039-.024.122-.103.151-.112.078-.025.225-.029.316-.047.178-.035.358-.071.527-.137.041-.016.194-.073.198-.116.003-.023-.018-.057-.043-.054-.01.001-.149.079-.184.092-.174.067-.461.136-.646.155-.014.001-.057.013-.055-.011.115-.078.219-.17.334-.248.359-.246.758-.434,1.169-.571.046-.129-.183-.025-.242-.004-.107.038-.224.089-.327.136-.139.064-.271.144-.409.211.049-.177.161-.362.3-.482.05-.043.138-.052.099-.13-.043-.027-.16.069-.193.098-.11.101-.196.258-.258.393-.024.052-.053.175-.08.208-.037.045-.267.184-.337.239-.158.126-.294.281-.476.375-.012-.035.015-.069.019-.106.02-.217-.053-.38-.251-.476,0-.031.077-.134.101-.162.041-.049.191-.143.081-.182-.063-.002-.188.186-.226.237-.084-.167-.233-.256-.419-.263.266-.219.599-.372.937-.447.688-.153,1.488-.066,2.17.088.094.021.234.047.32.08.016.006.037.007.04.028Z"
        />
        <path
            d="M22.387,14.89c.141-.121.297-.223.438-.344.056-.048.347-.311.348-.361l-.043-.043c-.029,0-.259.251-.304.292-.208.188-.475.381-.718.522-.084.049-.27.159-.355.183-.009.003-.027.009-.029-.004.102-.132.191-.274.301-.4.034-.039.083-.099.118-.132.027-.026.17-.128.176-.137.012-.02.011-.052-.005-.07-.035-.026-.124.053-.151.076-.244.205-.404.494-.597.744-.114-.048-.197-.067-.323-.061-.027.001-.116.041-.117-.006,0-.022.1-.104.114-.135.017-.037-.008-.058-.047-.059l-.126.125c-.069-.067-.162-.109-.257-.125.317-.437.845-.634,1.336-.811.329-.118.698-.199,1.013-.339.193-.086.343-.192.48-.353-.116.662-.31,1.347-.636,1.937-.182.329-.423.649-.735.864-.155-.098-.324-.154-.507-.171l.037-.094c.062-.003.377-.048.377-.125l-.044-.044c-.102.04-.207.082-.32.075.035-.188-.002-.379-.107-.537-.021-.031-.063-.045-.055-.089.146-.045.29-.123.426-.194.041-.022.156-.106.186-.113.036-.008.115.018.158.019.197.007.417-.001.594-.096.037-.02.103-.048.1-.096-.02-.078-.158.032-.208.051-.04.015-.161.053-.197.053h-.319Z"
        />
        <path
            d="M19.646,18.409c.019.005.02-.003.03-.013.101-.1.165-.274.34-.299.43-.06.536.497.492.817-.06.437-.344.694-.605,1.019-.192-.126-.438-.152-.645-.047-.256-.485-.678-.882-.441-1.474.192-.479.642-.488.829-.004Z"
            style="fill: #f09199;"
        />
        <path
            d="M20.66,22.203v.257c0,.008-.034.107-.041.122-.082.177-.263.222-.44.172-.243-.069-.466-.356-.555-.585-.134-.345-.062-.709-.048-1.068.181-.022.331-.1.453-.235.226.068.446.186.671.251.135.039.251.027.36.115.253.205.47.782.163,1.015-.188.143-.377.027-.564-.044Z"
            style="fill: #f09199;"
        />
        <path
            d="M21.536,19.949c.745.163.483.778-.113.933-.488.127-.831-.077-1.271-.243.029-.125.03-.256-.009-.379-.012-.04-.065-.124-.057-.151.128-.172.294-.336.417-.511.138-.197.109-.292.366-.398.264-.109.79-.092.887.236.067.226-.094.354-.219.513Z"
            style="fill: #f09199;"
        />
        <path
            d="M19.319,21.052c.001.047.004.096.002.143-.009.225-.037.449-.026.676.003.072.035.131.02.207-.07.354-.718.84-1.008.468-.115-.147-.067-.311-.063-.482-.585.265-.842-.191-.548-.693.274-.467.745-.552,1.232-.672.028,0,.063.088.083.116.076.106.179.202.309.235Z"
            style="fill: #f09199;"
        />
        <path
            d="M17.618,19.736c.014-.014-.112-.175-.127-.204-.218-.415.206-.619.569-.556.129.022.449.143.53.247.036.047.07.151.104.209.118.205.253.4.363.61-.071.087-.126.193-.147.304-.007.036.013.082-.021.104-.207.069-.436.102-.641.173-.111.038-.237.134-.347.129-.645-.029-1.206-.892-.282-1.014Z"
            style="fill: #f09199;"
        />
        <path
            d="M17.228,19.584c-.129.059-.222.157-.295.276-.189-.012-.397-.022-.586-.011-.119.007-.338.031-.45.064-.095.028-.099.127-.014.137.334-.049.671-.089,1.008-.051-.023.101-.015.201.013.3-.375.07-.739.205-1.058.413-.472-.005-.948.02-1.408.126-.026-.024.146-.097.162-.107.28-.178.405-.549.139-.8.693-.511,1.592-.628,2.433-.53.012.002.015.009.018.019.006.016.042.157.038.165Z"
        />
        <path
            d="M4.785,3.193c-.149-.009-.29.018-.41.109-.03.022-.12.131-.143.128-.401-.235-.895-.404-.935-.944-.018-.247.084-.488.369-.457.107.012.184.09.281.125.017-.175.041-.386.238-.445.366-.109.642.404.687.703.039.26-.047.523-.088.779Z"
            style="fill: #f09199;"
        />
        <path
            d="M6.339,4.622c.058.151.163.253.109.428-.074.242-.377.243-.578.184-.463-.136-.647-.549-.819-.955.132-.101.205-.224.261-.378.192-.039.398-.046.589-.087.219-.047.265-.152.503-.041.468.219.616.867-.065.848Z"
            style="fill: #f09199;"
        />
        <path
            d="M4.436,5.561c-.151.149-.315.337-.542.186-.194-.129-.204-.444-.165-.649.074-.391.351-.607.626-.861.073.054.172.111.264.122.048.005.158-.011.187.014.122.228.214.474.369.682.041.055.077.053.087.138.064.56-.59,1.126-.826.369Z"
            style="fill: #f09199;"
        />
        <path
            d="M6.039,2.531c.564-.18.713.295.382.689-.298.355-.687.377-1.119.424-.04-.147-.124-.29-.262-.364l-.004-.016c.014-.209.092-.431.101-.639.008-.175-.056-.216.065-.373.158-.206.602-.432.805-.184.117.143.059.3.031.463Z"
            style="fill: #f09199;"
        />
        <path
            d="M4.147,3.673c-.029.124.002.246.046.361-.104.105-.211.207-.313.313-.067.069-.118.114-.18.196-.026.035-.076.138-.099.155-.206.154-.837.08-.889-.223-.036-.208.099-.312.235-.435-.116-.076-.255-.105-.32-.244-.181-.391.479-.641.774-.574.033.008.216.151.268.183.155.095.322.175.478.267Z"
            style="fill: #f09199;"
        />
        <path
            d="M21.011,15.541c.091-.041.152-.123.258-.137.281-.036.331.288.285.498-.077.354-.334.525-.624.7-.09-.095-.208-.176-.341-.194-.041-.005-.153.007-.172-.016-.077-.321-.232-.658-.024-.963.224-.328.568-.319.619.112Z"
            style="fill: #f09199;"
        />
        <path
            d="M22,16.981l.008.026c.473.267.137.627-.289.612-.322-.011-.532-.205-.769-.394.081-.121.092-.25.089-.392.124-.089.276-.169.391-.266.041-.034.192-.215.206-.22.169-.055.476.054.575.203.125.188-.041.36-.211.43Z"
            style="fill: #f09199;"
        />
        <path
            d="M19.333,16.03c-.038-.144-.108-.301.025-.42.191-.171.538.008.674.178.017.244.09.477.152.712l-.17.216c-.147.02-.304-.019-.448-.01-.088.005-.238.063-.301.061-.022,0-.041-.016-.06-.026-.195-.104-.439-.498-.196-.667.013-.009.085-.045.093-.045h.232Z"
            style="fill: #f09199;"
        />
        <path d="M19.984,16.969c-.007.148.084.257.163.37l-.171.508c-.112.022-.208.08-.299.146-.062-.061-.137-.121-.219-.153-.12-.048-.2-.042-.319-.057-.465-.059-.258-.506.017-.684.269-.174.524-.136.828-.13Z" style="fill: #f09199;" />
        <path
            d="M20.923,18.371c-.033.103-.053.224-.15.288-.032-.343-.187-.685-.533-.801l.133-.414c.066.014.152.02.219.013.053-.006.142-.058.182-.045.138.089.261.218.401.301.056.033.237.098.26.128.103.129.079.488-.035.613-.156.169-.343.037-.476-.082Z"
            style="fill: #f09199;"
        />
        <path d="M12.883,18.937c.134-.011.207.117.272.21.187-.369.504-.206.532.157.021.276-.112.471-.275.677-.163-.084-.342-.099-.508-.009-.148-.219-.33-.414-.288-.7.02-.135.114-.323.267-.335Z" style="fill: #f09199;" />
        <path
            d="M13.888,21.426v.182c0,.052-.078.141-.131.157-.252.08-.478-.215-.539-.427-.045-.156-.03-.303-.031-.463.117.006.218-.064.307-.133.141.034.298.114.442.13.106.012.211-.033.276.062.129.189.161.582-.164.539-.056-.007-.104-.041-.16-.047Z"
            style="fill: #f09199;"
        />
        <path
            d="M14.351,20.024c.47.083.292.478-.068.576-.238.065-.445.001-.665-.087.006-.061.014-.134.007-.195-.006-.053-.047-.108-.033-.157.015-.05.169-.223.21-.292.055-.094.081-.191.124-.29.175-.085.586-.05.547.222-.013.092-.087.143-.122.222Z"
            style="fill: #f09199;"
        />
        <path
            d="M12.41,21.414c-.428.21-.525-.197-.293-.5.153-.199.346-.253.575-.324.06.109.143.183.241.256.009.166-.012.327.023.49.029.131.099.16-.014.278-.104.109-.318.228-.457.118-.02-.016-.076-.104-.076-.125v-.194Z"
            style="fill: #f09199;"
        />
        <path
            d="M12.658,20.334c-.127.054-.269.078-.394.138-.049.024-.185.133-.214.138-.112.021-.357-.193-.376-.308-.034-.205.134-.24.285-.298-.22-.187-.144-.462.157-.47.048-.001.246.032.275.064.017.018.084.186.109.229.063.11.15.213.217.321l-.06.186Z"
            style="fill: #f09199;"
        />
        <path d="M7.691,2.481c-.01.009.053.089.061.108.108.248-.182.224-.336.161-.362-.148-.476-.517-.676-.82l.718.039c.12.021.231.06.327.136.213.171.273.416-.094.375Z" style="fill: #f09199;" />
        <path d="M22.713,21.89c-.017.017.17.207.037.294-.175.114-.536-.122-.643-.27l-.333-.562.657.025c.174.019.339.086.457.219.172.196.075.349-.175.294Z" style="fill: #f09199;" />
        <path d="M9.204,3.281c-.175-.016-.324.031-.443.161-.179-.112-.386-.235-.407-.467-.027-.296.155-.408.388-.219.022-.322.296-.325.44-.071.106.187.088.399.021.595Z" style="fill: #f09199;" />
        <path d="M10.007,4.284c.039.114.104.247-.026.331-.254.165-.643-.234-.662-.486.087-.058.144-.125.208-.206.197-.007.395-.018.572-.113.235.164.293.513-.092.474Z" style="fill: #f09199;" />
        <path
            d="M9.932,3.07c.298-.078.393.164.212.382-.146.177-.366.221-.587.218-.011-.107-.062-.185-.126-.267.035-.137.081-.273.086-.415.004-.124-.068-.157.089-.224.109-.046.258-.072.331.044.054.086-.016.25-.006.262Z"
            style="fill: #f09199;"
        />
        <path
            d="M8.868,4.747c-.01-.01-.112.083-.137.094-.15.066-.258-.059-.274-.202-.027-.243.133-.469.333-.591.025-.004.09.06.121.075.04.019.123.029.147.053.03.03.085.218.114.274.043.085.107.159.17.229-.062.279-.4.435-.473.067Z"
            style="fill: #f09199;"
        />
        <path d="M19.467,20.077c.501-.079.63.651.157.758-.519.116-.65-.68-.157-.758Z" style="fill: #f09199;" />
        <path d="M8.24,3.334c.101.154.274.242.421.349l.014.12c-.139.133-.313.24-.385.429-.157.018-.435-.09-.358-.29.027-.07.102-.104.148-.159-.363-.147-.14-.449.161-.449Z" style="fill: #f09199;" />
        <path d="M7.816,4.334h-.751c0-.237-.129-.438-.288-.601h.883s.052.077.052.081c0,.011-.04.102-.044.139-.016.147.05.278.149.381Z" />
        <path d="M2.649,12.107c-.066-.06.004-.202-.003-.21-.282.117-.297-.075-.166-.272.171-.257.487-.293.754-.404-.078.264-.082.627-.307.814-.063.052-.203.141-.278.072Z" style="fill: #f09199;" />
        <path d="M4.762,9.731c.029.264-.138.284-.288.106-.205-.243-.156-.574-.163-.87.019-.005.027.008.041.015.139.073.505.308.582.432.121.195.129.541-.173.317Z" style="fill: #f09199;" />
        <path d="M3.309,6.864c.016.175.084.35.109.523.019.129.017.234-.041.353-.097.2-.266.256-.307-.012-.309.31-.313-.136-.215-.359.048-.11.317-.411.415-.486.013-.01.016-.024.038-.019Z" style="fill: #f09199;" />
        <path d="M4.574,13.913c.111.246-.038.311-.242.186-.273-.168-.321-.508-.421-.787.286.104.734.101.873.423.084.195-.04.238-.209.178Z" style="fill: #f09199;" />
        <path d="M15.903,22.002c-.301.134-.289-.121-.144-.301.189-.235.469-.265.732-.376-.083.294-.089.744-.413.883-.188.081-.23-.045-.176-.207Z" style="fill: #f09199;" />
        <path d="M22.701,18.985c-.003.069.015.144-.034.201-.137.058-.255-.092-.315-.198-.14-.248-.071-.509-.102-.78.222.155.597.298.685.573.073.23-.014.36-.234.203Z" style="fill: #f09199;" />
        <path d="M11.146,20.713c-.091.287-.105.725-.417.866-.056.025-.116.034-.175.011-.056-.067-.028-.139-.008-.214-.273.111-.299-.091-.161-.28.184-.251.487-.286.761-.384Z" style="fill: #f09199;" />
        <path d="M4.646,3.448c.552-.093.551.751,0,.658-.335-.056-.334-.601,0-.658Z" style="fill: #f09199;" />
        <path d="M15.653,20.851l-.214.143c-.296.18-.605.337-.925.471.072-.166.041-.33,0-.5.373-.081.757-.109,1.138-.114Z" />
        <path d="M20.706,16.735c.239.239-.086.625-.365.421-.313-.229.084-.702.365-.421Z" style="fill: #f09199;" />
        <path d="M13.096,20.165c.174-.029.301.106.278.278-.027.194-.304.253-.417.094-.097-.136-.026-.344.14-.372Z" style="fill: #f09199;" />
        <path d="M10.946,4.798c.141.146-.01.184-.15.144-.156-.045-.245-.195-.351-.306.175-.02.389-.116.545,0,.106.079.085.143-.044.163Z" style="fill: #f09199;" />
        <path d="M8.972,3.587c.151-.161.432.034.306.238-.152.246-.501-.03-.306-.238Z" style="fill: #f09199;" />
        <path d="M2.746,11.121l.044-.526c.102.124.198.27.256.418l-.3.108Z" />
    </g>
    <g fill="#20b2aa">
        <g transform="translate(408.625,240.625) scale(3.605)"><circle cx="3" cy="3" r="2.5" /></g>
        <g transform="translate(450.625,240.625) scale(3.605)"><circle cx="3" cy="3" r="2.5" /></g>
        <g transform="translate(555.625,240.625) scale(3.605)"><circle cx="3" cy="3" r="2.5" /></g>
        <g transform="translate(576.625,240.625) scale(3.605)"><circle cx="3" cy="3" r="2.5" /></g>
        <g transform="translate(429.625,261.625) scale(3.605)"><circle cx="3" cy="3" r="2.5" /></g>
        <g transform="translate(492.625,261.625) scale(3.605)"><circle cx="3" cy="3" r="2.5" /></g>
        <g transform="translate(471.625,282.625) scale(3.605)"><circle cx="3" cy="3" r="2.5" /></g>
        <g transform="translate(534.625,282.625) scale(3.605)"><circle cx="3" cy="3" r="2.5" /></g>
        <g transform="translate(576.625,282.625) scale(3.605)"><circle cx="3" cy="3" r="2.5" /></g>
        <g transform="translate(429.625,303.625) scale(3.605)"><path d="M5.5,6h-5V3c0-1.4,1.1-2.5,2.5-2.5h0c1.4,0,2.5,1.1,2.5,2.5V6z" /></g>
        <g transform="translate(492.625,303.625) scale(3.605)"><circle cx="3" cy="3" r="2.5" /></g>
        <g transform="translate(408.625,324.625) scale(3.605)"><path d="M5.5,6h-5V3c0-1.4,1.1-2.5,2.5-2.5h0c1.4,0,2.5,1.1,2.5,2.5V6z" /></g>
        <g transform="translate(429.625,324.625) scale(3.605)"><rect x="0.5" width="5" height="6" /></g>
        <g transform="translate(513.625,324.625) scale(3.605)"><path d="M5.5,6h-5V3c0-1.4,1.1-2.5,2.5-2.5h0c1.4,0,2.5,1.1,2.5,2.5V6z" /></g>
        <g transform="translate(534.625,324.625) scale(3.605)"><path d="M5.5,6h-5V3c0-1.4,1.1-2.5,2.5-2.5h0c1.4,0,2.5,1.1,2.5,2.5V6z" /></g>
        <g transform="translate(555.625,324.625) scale(3.605)"><path d="M5.5,6h-5V3c0-1.4,1.1-2.5,2.5-2.5h0c1.4,0,2.5,1.1,2.5,2.5V6z" /></g>
        <g transform="translate(408.625,345.625) scale(3.605)"><rect x="0.5" width="5" height="6" /></g>
        <g transform="translate(429.625,345.625) scale(3.605)"><path d="M3,5.5L3,5.5C1.6,5.5,0.5,4.4,0.5,3V0h5v3C5.5,4.4,4.4,5.5,3,5.5z" /></g>
        <g transform="translate(450.625,345.625) scale(3.605)"><path d="M5.5,6h-5V3c0-1.4,1.1-2.5,2.5-2.5h0c1.4,0,2.5,1.1,2.5,2.5V6z" /></g>
        <g transform="translate(492.625,345.625) scale(3.605)"><path d="M5.5,6h-5V3c0-1.4,1.1-2.5,2.5-2.5h0c1.4,0,2.5,1.1,2.5,2.5V6z" /></g>
        <g transform="translate(513.625,345.625) scale(3.605)"><path d="M3,5.5L3,5.5C1.6,5.5,0.5,4.4,0.5,3V0h5v3C5.5,4.4,4.4,5.5,3,5.5z" /></g>
        <g transform="translate(534.625,345.625) scale(3.605)"><rect x="0.5" width="5" height="6" /></g>
        <g transform="translate(555.625,345.625) scale(3.605)"><path d="M3,5.5L3,5.5C1.6,5.5,0.5,4.4,0.5,3V0h5v3C5.5,4.4,4.4,5.5,3,5.5z" /></g>
        <g transform="translate(576.625,345.625) scale(3.605)"><path d="M5.5,6h-5V3c0-1.4,1.1-2.5,2.5-2.5h0c1.4,0,2.5,1.1,2.5,2.5V6z" /></g>
        <g transform="translate(408.625,366.625) scale(3.605)"><path d="M3,5.5L3,5.5C1.6,5.5,0.5,4.4,0.5,3V0h5v3C5.5,4.4,4.4,5.5,3,5.5z" /></g>
        <g transform="translate(450.625,366.625) scale(3.605)"><path d="M3,5.5L3,5.5C1.6,5.5,0.5,4.4,0.5,3V0h5v3C5.5,4.4,4.4,5.5,3,5.5z" /></g>
        <g transform="translate(492.625,366.625) scale(3.605)"><path d="M3,5.5L3,5.5C1.6,5.5,0.5,4.4,0.5,3V0h5v3C5.5,4.4,4.4,5.5,3,5.5z" /></g>
        <g transform="translate(534.625,366.625) scale(3.605)"><path d="M3,5.5L3,5.5C1.6,5.5,0.5,4.4,0.5,3V0h5v3C5.5,4.4,4.4,5.5,3,5.5z" /></g>
        <g transform="translate(576.625,366.625) scale(3.605)"><rect x="0.5" width="5" height="6" /></g>
        <g transform="translate(429.625,387.625) scale(3.605)"><path d="M5.5,6h-5V3c0-1.4,1.1-2.5,2.5-2.5h0c1.4,0,2.5,1.1,2.5,2.5V6z" /></g>
        <g transform="translate(471.625,387.625) scale(3.605)"><path d="M5.5,6h-5V3c0-1.4,1.1-2.5,2.5-2.5h0c1.4,0,2.5,1.1,2.5,2.5V6z" /></g>
        <g transform="translate(513.625,387.625) scale(3.605)"><circle cx="3" cy="3" r="2.5" /></g>
        <g transform="translate(555.625,387.625) scale(3.605)"><circle cx="3" cy="3" r="2.5" /></g>
        <g transform="translate(576.625,387.625) scale(3.605)"><path d="M3,5.5L3,5.5C1.6,5.5,0.5,4.4,0.5,3V0h5v3C5.5,4.4,4.4,5.5,3,5.5z" /></g>
        <g transform="translate(261.625,408.625) scale(3.605)"><circle cx="3" cy="3" r="2.5" /></g>
        <g transform="translate(282.625,408.625) scale(3.605)"><circle cx="3" cy="3" r="2.5" /></g>
        <g transform="translate(303.625,408.625) scale(3.605)"><path d="M5.5,6h-5V3c0-1.4,1.1-2.5,2.5-2.5h0c1.4,0,2.5,1.1,2.5,2.5V6z" /></g>
        <g transform="translate(324.625,408.625) scale(3.605)"><path d="M5.5,6h-5V3c0-1.4,1.1-2.5,2.5-2.5h0c1.4,0,2.5,1.1,2.5,2.5V6z" /></g>
        <g transform="translate(345.625,408.625) scale(3.605)"><path d="M5.5,6h-5V3c0-1.4,1.1-2.5,2.5-2.5h0c1.4,0,2.5,1.1,2.5,2.5V6z" /></g>
        <g transform="translate(366.625,408.625) scale(3.605)"><circle cx="3" cy="3" r="2.5" /></g>
        <g transform="translate(387.625,408.625) scale(3.605)"><circle cx="3" cy="3" r="2.5" /></g>
        <g transform="translate(429.625,408.625) scale(3.605)"><path d="M3,5.5L3,5.5C1.6,5.5,0.5,4.4,0.5,3V0h5v3C5.5,4.4,4.4,5.5,3,5.5z" /></g>
        <g transform="translate(471.625,408.625) scale(3.605)"><rect x="0.5" width="5" height="6" /></g>
        <g transform="translate(492.625,408.625) scale(3.605)"><circle cx="3" cy="3" r="2.5" /></g>
        <g transform="translate(534.625,408.625) scale(3.605)"><circle cx="3" cy="3" r="2.5" /></g>
        <g transform="translate(639.625,408.625) scale(3.605)"><circle cx="3" cy="3" r="2.5" /></g>
        <g transform="translate(660.625,408.625) scale(3.605)"><circle cx="3" cy="3" r="2.5" /></g>
        <g transform="translate(744.625,408.625) scale(3.605)"><circle cx="3" cy="3" r="2.5" /></g>
        <g transform="translate(303.625,429.625) scale(3.605)"><path d="M3,5.5L3,5.5C1.6,5.5,0.5,4.4,0.5,3V0h5v3C5.5,4.4,4.4,5.5,3,5.5z" /></g>
        <g transform="translate(324.625,429.625) scale(3.605)"><rect x="0.5" width="5" height="6" /></g>
        <g transform="translate(345.625,429.625) scale(3.605)"><rect x="0.5" width="5" height="6" /></g>
        <g transform="translate(408.625,429.625) scale(3.605)"><circle cx="3" cy="3" r="2.5" /></g>
        <g transform="translate(471.625,429.625) scale(3.605)"><rect x="0.5" width="5" height="6" /></g>
        <g transform="translate(576.625,429.625) scale(3.605)"><path d="M5.5,6h-5V3c0-1.4,1.1-2.5,2.5-2.5h0c1.4,0,2.5,1.1,2.5,2.5V6z" /></g>
        <g transform="translate(597.625,429.625) scale(3.605)"><path d="M5.5,6h-5V3c0-1.4,1.1-2.5,2.5-2.5h0c1.4,0,2.5,1.1,2.5,2.5V6z" /></g>
        <g transform="translate(723.625,429.625) scale(3.605)"><path d="M5.5,6h-5V3c0-1.4,1.1-2.5,2.5-2.5h0c1.4,0,2.5,1.1,2.5,2.5V6z" /></g>
        <g transform="translate(240.625,450.625) scale(3.605)"><path d="M5.5,6h-5V3c0-1.4,1.1-2.5,2.5-2.5h0c1.4,0,2.5,1.1,2.5,2.5V6z" /></g>
        <g transform="translate(261.625,450.625) scale(3.605)"><circle cx="3" cy="3" r="2.5" /></g>
        <g transform="translate(282.625,450.625) scale(3.605)"><path d="M5.5,6h-5V3c0-1.4,1.1-2.5,2.5-2.5h0c1.4,0,2.5,1.1,2.5,2.5V6z" /></g>
        <g transform="translate(324.625,450.625) scale(3.605)"><rect x="0.5" width="5" height="6" /></g>
        <g transform="translate(345.625,450.625) scale(3.605)"><path d="M3,5.5L3,5.5C1.6,5.5,0.5,4.4,0.5,3V0h5v3C5.5,4.4,4.4,5.5,3,5.5z" /></g>
        <g transform="translate(366.625,450.625) scale(3.605)"><circle cx="3" cy="3" r="2.5" /></g>
        <g transform="translate(387.625,450.625) scale(3.605)"><circle cx="3" cy="3" r="2.5" /></g>
        <g transform="translate(429.625,450.625) scale(3.605)"><path d="M5.5,6h-5V3c0-1.4,1.1-2.5,2.5-2.5h0c1.4,0,2.5,1.1,2.5,2.5V6z" /></g>
        <g transform="translate(471.625,450.625) scale(3.605)"><rect x="0.5" width="5" height="6" /></g>
        <g transform="translate(555.625,450.625) scale(3.605)"><circle cx="3" cy="3" r="2.5" /></g>
        <g transform="translate(576.625,450.625) scale(3.605)"><rect x="0.5" width="5" height="6" /></g>
        <g transform="translate(597.625,450.625) scale(3.605)"><path d="M3,5.5L3,5.5C1.6,5.5,0.5,4.4,0.5,3V0h5v3C5.5,4.4,4.4,5.5,3,5.5z" /></g>
        <g transform="translate(618.625,450.625) scale(3.605)"><path d="M5.5,6h-5V3c0-1.4,1.1-2.5,2.5-2.5h0c1.4,0,2.5,1.1,2.5,2.5V6z" /></g>
        <g transform="translate(639.625,450.625) scale(3.605)"><circle cx="3" cy="3" r="2.5" /></g>
        <g transform="translate(660.625,450.625) scale(3.605)"><circle cx="3" cy="3" r="2.5" /></g>
        <g transform="translate(681.625,450.625) scale(3.605)"><circle cx="3" cy="3" r="2.5" /></g>
        <g transform="translate(723.625,450.625) scale(3.605)"><path d="M3,5.5L3,5.5C1.6,5.5,0.5,4.4,0.5,3V0h5v3C5.5,4.4,4.4,5.5,3,5.5z" /></g>
        <g transform="translate(744.625,450.625) scale(3.605)"><path d="M5.5,6h-5V3c0-1.4,1.1-2.5,2.5-2.5h0c1.4,0,2.5,1.1,2.5,2.5V6z" /></g>
        <g transform="translate(240.625,471.625) scale(3.605)"><path d="M3,5.5L3,5.5C1.6,5.5,0.5,4.4,0.5,3V0h5v3C5.5,4.4,4.4,5.5,3,5.5z" /></g>
        <g transform="translate(282.625,471.625) scale(3.605)"><path d="M3,5.5L3,5.5C1.6,5.5,0.5,4.4,0.5,3V0h5v3C5.5,4.4,4.4,5.5,3,5.5z" /></g>
        <g transform="translate(324.625,471.625) scale(3.605)"><path d="M3,5.5L3,5.5C1.6,5.5,0.5,4.4,0.5,3V0h5v3C5.5,4.4,4.4,5.5,3,5.5z" /></g>
        <g transform="translate(408.625,471.625) scale(3.605)"><circle cx="3" cy="3" r="2.5" /></g>
        <g transform="translate(429.625,471.625) scale(3.605)"><rect x="0.5" width="5" height="6" /></g>
        <g transform="translate(471.625,471.625) scale(3.605)"><path d="M3,5.5L3,5.5C1.6,5.5,0.5,4.4,0.5,3V0h5v3C5.5,4.4,4.4,5.5,3,5.5z" /></g>
        <g transform="translate(534.625,471.625) scale(3.605)"><circle cx="3" cy="3" r="2.5" /></g>
        <g transform="translate(576.625,471.625) scale(3.605)"><path d="M3,5.5L3,5.5C1.6,5.5,0.5,4.4,0.5,3V0h5v3C5.5,4.4,4.4,5.5,3,5.5z" /></g>
        <g transform="translate(618.625,471.625) scale(3.605)"><rect x="0.5" width="5" height="6" /></g>
        <g transform="translate(744.625,471.625) scale(3.605)"><rect x="0.5" width="5" height="6" /></g>
        <g transform="translate(366.625,492.625) scale(3.605)"><circle cx="3" cy="3" r="2.5" /></g>
        <g transform="translate(387.625,492.625) scale(3.605)"><path d="M5.5,6h-5V3c0-1.4,1.1-2.5,2.5-2.5h0c1.4,0,2.5,1.1,2.5,2.5V6z" /></g>
        <g transform="translate(429.625,492.625) scale(3.605)"><path d="M3,5.5L3,5.5C1.6,5.5,0.5,4.4,0.5,3V0h5v3C5.5,4.4,4.4,5.5,3,5.5z" /></g>
        <g transform="translate(450.625,492.625) scale(3.605)"><path d="M5.5,6h-5V3c0-1.4,1.1-2.5,2.5-2.5h0c1.4,0,2.5,1.1,2.5,2.5V6z" /></g>
        <g transform="translate(597.625,492.625) scale(3.605)"><path d="M5.5,6h-5V3c0-1.4,1.1-2.5,2.5-2.5h0c1.4,0,2.5,1.1,2.5,2.5V6z" /></g>
        <g transform="translate(618.625,492.625) scale(3.605)"><path d="M3,5.5L3,5.5C1.6,5.5,0.5,4.4,0.5,3V0h5v3C5.5,4.4,4.4,5.5,3,5.5z" /></g>
        <g transform="translate(639.625,492.625) scale(3.605)"><circle cx="3" cy="3" r="2.5" /></g>
        <g transform="translate(660.625,492.625) scale(3.605)"><circle cx="3" cy="3" r="2.5" /></g>
        <g transform="translate(702.625,492.625) scale(3.605)"><circle cx="3" cy="3" r="2.5" /></g>
        <g transform="translate(723.625,492.625) scale(3.605)"><path d="M5.5,6h-5V3c0-1.4,1.1-2.5,2.5-2.5h0c1.4,0,2.5,1.1,2.5,2.5V6z" /></g>
        <g transform="translate(744.625,492.625) scale(3.605)"><path d="M3,5.5L3,5.5C1.6,5.5,0.5,4.4,0.5,3V0h5v3C5.5,4.4,4.4,5.5,3,5.5z" /></g>
        <g transform="translate(240.625,513.625) scale(3.605)"><path d="M5.5,6h-5V3c0-1.4,1.1-2.5,2.5-2.5h0c1.4,0,2.5,1.1,2.5,2.5V6z" /></g>
        <g transform="translate(261.625,513.625) scale(3.605)"><circle cx="3" cy="3" r="2.5" /></g>
        <g transform="translate(282.625,513.625) scale(3.605)"><path d="M5.5,6h-5V3c0-1.4,1.1-2.5,2.5-2.5h0c1.4,0,2.5,1.1,2.5,2.5V6z" /></g>
        <g transform="translate(303.625,513.625) scale(3.605)"><circle cx="3" cy="3" r="2.5" /></g>
        <g transform="translate(324.625,513.625) scale(3.605)"><circle cx="3" cy="3" r="2.5" /></g>
        <g transform="translate(387.625,513.625) scale(3.605)"><path d="M3,5.5L3,5.5C1.6,5.5,0.5,4.4,0.5,3V0h5v3C5.5,4.4,4.4,5.5,3,5.5z" /></g>
        <g transform="translate(450.625,513.625) scale(3.605)"><rect x="0.5" width="5" height="6" /></g>
        <g transform="translate(471.625,513.625) scale(3.605)"><circle cx="3" cy="3" r="2.5" /></g>
        <g transform="translate(492.625,513.625) scale(3.605)"><circle cx="3" cy="3" r="2.5" /></g>
        <g transform="translate(534.625,513.625) scale(3.605)"><circle cx="3" cy="3" r="2.5" /></g>
        <g transform="translate(576.625,513.625) scale(3.605)"><path d="M5.5,6h-5V3c0-1.4,1.1-2.5,2.5-2.5h0c1.4,0,2.5,1.1,2.5,2.5V6z" /></g>
        <g transform="translate(597.625,513.625) scale(3.605)"><path d="M3,5.5L3,5.5C1.6,5.5,0.5,4.4,0.5,3V0h5v3C5.5,4.4,4.4,5.5,3,5.5z" /></g>
        <g transform="translate(681.625,513.625) scale(3.605)"><path d="M5.5,6h-5V3c0-1.4,1.1-2.5,2.5-2.5h0c1.4,0,2.5,1.1,2.5,2.5V6z" /></g>
        <g transform="translate(723.625,513.625) scale(3.605)"><rect x="0.5" width="5" height="6" /></g>
        <g transform="translate(240.625,534.625) scale(3.605)"><rect x="0.5" width="5" height="6" /></g>
        <g transform="translate(282.625,534.625) scale(3.605)"><rect x="0.5" width="5" height="6" /></g>
        <g transform="translate(345.625,534.625) scale(3.605)"><path d="M5.5,6h-5V3c0-1.4,1.1-2.5,2.5-2.5h0c1.4,0,2.5,1.1,2.5,2.5V6z" /></g>
        <g transform="translate(366.625,534.625) scale(3.605)"><circle cx="3" cy="3" r="2.5" /></g>
        <g transform="translate(429.625,534.625) scale(3.605)"><path d="M5.5,6h-5V3c0-1.4,1.1-2.5,2.5-2.5h0c1.4,0,2.5,1.1,2.5,2.5V6z" /></g>
        <g transform="translate(450.625,534.625) scale(3.605)"><path d="M3,5.5L3,5.5C1.6,5.5,0.5,4.4,0.5,3V0h5v3C5.5,4.4,4.4,5.5,3,5.5z" /></g>
        <g transform="translate(555.625,534.625) scale(3.605)"><circle cx="3" cy="3" r="2.5" /></g>
        <g transform="translate(576.625,534.625) scale(3.605)"><path d="M3,5.5L3,5.5C1.6,5.5,0.5,4.4,0.5,3V0h5v3C5.5,4.4,4.4,5.5,3,5.5z" /></g>
        <g transform="translate(618.625,534.625) scale(3.605)"><path d="M5.5,6h-5V3c0-1.4,1.1-2.5,2.5-2.5h0c1.4,0,2.5,1.1,2.5,2.5V6z" /></g>
        <g transform="translate(639.625,534.625) scale(3.605)"><path d="M5.5,6h-5V3c0-1.4,1.1-2.5,2.5-2.5h0c1.4,0,2.5,1.1,2.5,2.5V6z" /></g>
        <g transform="translate(660.625,534.625) scale(3.605)"><path d="M5.5,6h-5V3c0-1.4,1.1-2.5,2.5-2.5h0c1.4,0,2.5,1.1,2.5,2.5V6z" /></g>
        <g transform="translate(681.625,534.625) scale(3.605)"><path d="M3,5.5L3,5.5C1.6,5.5,0.5,4.4,0.5,3V0h5v3C5.5,4.4,4.4,5.5,3,5.5z" /></g>
        <g transform="translate(723.625,534.625) scale(3.605)"><path d="M3,5.5L3,5.5C1.6,5.5,0.5,4.4,0.5,3V0h5v3C5.5,4.4,4.4,5.5,3,5.5z" /></g>
        <g transform="translate(744.625,534.625) scale(3.605)"><path d="M5.5,6h-5V3c0-1.4,1.1-2.5,2.5-2.5h0c1.4,0,2.5,1.1,2.5,2.5V6z" /></g>
        <g transform="translate(240.625,555.625) scale(3.605)"><rect x="0.5" width="5" height="6" /></g>
        <g transform="translate(282.625,555.625) scale(3.605)"><path d="M3,5.5L3,5.5C1.6,5.5,0.5,4.4,0.5,3V0h5v3C5.5,4.4,4.4,5.5,3,5.5z" /></g>
        <g transform="translate(345.625,555.625) scale(3.605)"><rect x="0.5" width="5" height="6" /></g>
        <g transform="translate(387.625,555.625) scale(3.605)"><circle cx="3" cy="3" r="2.5" /></g>
        <g transform="translate(408.625,555.625) scale(3.605)"><circle cx="3" cy="3" r="2.5" /></g>
        <g transform="translate(429.625,555.625) scale(3.605)"><rect x="0.5" width="5" height="6" /></g>
        <g transform="translate(471.625,555.625) scale(3.605)"><path d="M5.5,6h-5V3c0-1.4,1.1-2.5,2.5-2.5h0c1.4,0,2.5,1.1,2.5,2.5V6z" /></g>
        <g transform="translate(534.625,555.625) scale(3.605)"><circle cx="3" cy="3" r="2.5" /></g>
        <g transform="translate(597.625,555.625) scale(3.605)"><path d="M5.5,6h-5V3c0-1.4,1.1-2.5,2.5-2.5h0c1.4,0,2.5,1.1,2.5,2.5V6z" /></g>
        <g transform="translate(618.625,555.625) scale(3.605)"><rect x="0.5" width="5" height="6" /></g>
        <g transform="translate(639.625,555.625) scale(3.605)"><rect x="0.5" width="5" height="6" /></g>
        <g transform="translate(660.625,555.625) scale(3.605)"><rect x="0.5" width="5" height="6" /></g>
        <g transform="translate(744.625,555.625) scale(3.605)"><path d="M3,5.5L3,5.5C1.6,5.5,0.5,4.4,0.5,3V0h5v3C5.5,4.4,4.4,5.5,3,5.5z" /></g>
        <g transform="translate(240.625,576.625) scale(3.605)"><path d="M3,5.5L3,5.5C1.6,5.5,0.5,4.4,0.5,3V0h5v3C5.5,4.4,4.4,5.5,3,5.5z" /></g>
        <g transform="translate(303.625,576.625) scale(3.605)"><circle cx="3" cy="3" r="2.5" /></g>
        <g transform="translate(324.625,576.625) scale(3.605)"><circle cx="3" cy="3" r="2.5" /></g>
        <g transform="translate(345.625,576.625) scale(3.605)"><path d="M3,5.5L3,5.5C1.6,5.5,0.5,4.4,0.5,3V0h5v3C5.5,4.4,4.4,5.5,3,5.5z" /></g>
        <g transform="translate(366.625,576.625) scale(3.605)"><circle cx="3" cy="3" r="2.5" /></g>
        <g transform="translate(429.625,576.625) scale(3.605)"><path d="M3,5.5L3,5.5C1.6,5.5,0.5,4.4,0.5,3V0h5v3C5.5,4.4,4.4,5.5,3,5.5z" /></g>
        <g transform="translate(450.625,576.625) scale(3.605)"><path d="M5.5,6h-5V3c0-1.4,1.1-2.5,2.5-2.5h0c1.4,0,2.5,1.1,2.5,2.5V6z" /></g>
        <g transform="translate(471.625,576.625) scale(3.605)"><rect x="0.5" width="5" height="6" /></g>
        <g transform="translate(492.625,576.625) scale(3.605)"><path d="M5.5,6h-5V3c0-1.4,1.1-2.5,2.5-2.5h0c1.4,0,2.5,1.1,2.5,2.5V6z" /></g>
        <g transform="translate(513.625,576.625) scale(3.605)"><circle cx="3" cy="3" r="2.5" /></g>
        <g transform="translate(555.625,576.625) scale(3.605)"><path d="M5.5,6h-5V3c0-1.4,1.1-2.5,2.5-2.5h0c1.4,0,2.5,1.1,2.5,2.5V6z" /></g>
        <g transform="translate(576.625,576.625) scale(3.605)"><path d="M5.5,6h-5V3c0-1.4,1.1-2.5,2.5-2.5h0c1.4,0,2.5,1.1,2.5,2.5V6z" /></g>
        <g transform="translate(597.625,576.625) scale(3.605)"><path d="M3,5.5L3,5.5C1.6,5.5,0.5,4.4,0.5,3V0h5v3C5.5,4.4,4.4,5.5,3,5.5z" /></g>
        <g transform="translate(618.625,576.625) scale(3.605)"><path d="M3,5.5L3,5.5C1.6,5.5,0.5,4.4,0.5,3V0h5v3C5.5,4.4,4.4,5.5,3,5.5z" /></g>
        <g transform="translate(639.625,576.625) scale(3.605)"><path d="M3,5.5L3,5.5C1.6,5.5,0.5,4.4,0.5,3V0h5v3C5.5,4.4,4.4,5.5,3,5.5z" /></g>
        <g transform="translate(660.625,576.625) scale(3.605)"><rect x="0.5" width="5" height="6" /></g>
        <g transform="translate(702.625,576.625) scale(3.605)"><circle cx="3" cy="3" r="2.5" /></g>
        <g transform="translate(408.625,597.625) scale(3.605)"><path d="M5.5,6h-5V3c0-1.4,1.1-2.5,2.5-2.5h0c1.4,0,2.5,1.1,2.5,2.5V6z" /></g>
        <g transform="translate(450.625,597.625) scale(3.605)"><rect x="0.5" width="5" height="6" /></g>
        <g transform="translate(471.625,597.625) scale(3.605)"><rect x="0.5" width="5" height="6" /></g>
        <g transform="translate(492.625,597.625) scale(3.605)"><path d="M3,5.5L3,5.5C1.6,5.5,0.5,4.4,0.5,3V0h5v3C5.5,4.4,4.4,5.5,3,5.5z" /></g>
        <g transform="translate(555.625,597.625) scale(3.605)"><path d="M3,5.5L3,5.5C1.6,5.5,0.5,4.4,0.5,3V0h5v3C5.5,4.4,4.4,5.5,3,5.5z" /></g>
        <g transform="translate(576.625,597.625) scale(3.605)"><rect x="0.5" width="5" height="6" /></g>
        <g transform="translate(660.625,597.625) scale(3.605)"><rect x="0.5" width="5" height="6" /></g>
        <g transform="translate(681.625,597.625) scale(3.605)"><circle cx="3" cy="3" r="2.5" /></g>
        <g transform="translate(408.625,618.625) scale(3.605)"><rect x="0.5" width="5" height="6" /></g>
        <g transform="translate(429.625,618.625) scale(3.605)"><path d="M5.5,6h-5V3c0-1.4,1.1-2.5,2.5-2.5h0c1.4,0,2.5,1.1,2.5,2.5V6z" /></g>
        <g transform="translate(450.625,618.625) scale(3.605)"><path d="M3,5.5L3,5.5C1.6,5.5,0.5,4.4,0.5,3V0h5v3C5.5,4.4,4.4,5.5,3,5.5z" /></g>
        <g transform="translate(471.625,618.625) scale(3.605)"><rect x="0.5" width="5" height="6" /></g>
        <g transform="translate(576.625,618.625) scale(3.605)"><rect x="0.5" width="5" height="6" /></g>
        <g transform="translate(618.625,618.625) scale(3.605)"><circle cx="3" cy="3" r="2.5" /></g>
        <g transform="translate(660.625,618.625) scale(3.605)"><rect x="0.5" width="5" height="6" /></g>
        <g transform="translate(702.625,618.625) scale(3.605)"><circle cx="3" cy="3" r="2.5" /></g>
        <g transform="translate(723.625,618.625) scale(3.605)"><circle cx="3" cy="3" r="2.5" /></g>
        <g transform="translate(744.625,618.625) scale(3.605)"><path d="M5.5,6h-5V3c0-1.4,1.1-2.5,2.5-2.5h0c1.4,0,2.5,1.1,2.5,2.5V6z" /></g>
        <g transform="translate(408.625,639.625) scale(3.605)"><rect x="0.5" width="5" height="6" /></g>
        <g transform="translate(429.625,639.625) scale(3.605)"><rect x="0.5" width="5" height="6" /></g>
        <g transform="translate(471.625,639.625) scale(3.605)"><path d="M3,5.5L3,5.5C1.6,5.5,0.5,4.4,0.5,3V0h5v3C5.5,4.4,4.4,5.5,3,5.5z" /></g>
        <g transform="translate(534.625,639.625) scale(3.605)"><path d="M5.5,6h-5V3c0-1.4,1.1-2.5,2.5-2.5h0c1.4,0,2.5,1.1,2.5,2.5V6z" /></g>
        <g transform="translate(576.625,639.625) scale(3.605)"><rect x="0.5" width="5" height="6" /></g>
        <g transform="translate(660.625,639.625) scale(3.605)"><rect x="0.5" width="5" height="6" /></g>
        <g transform="translate(681.625,639.625) scale(3.605)"><circle cx="3" cy="3" r="2.5" /></g>
        <g transform="translate(744.625,639.625) scale(3.605)"><rect x="0.5" width="5" height="6" /></g>
        <g transform="translate(408.625,660.625) scale(3.605)"><rect x="0.5" width="5" height="6" /></g>
        <g transform="translate(429.625,660.625) scale(3.605)"><rect x="0.5" width="5" height="6" /></g>
        <g transform="translate(450.625,660.625) scale(3.605)"><circle cx="3" cy="3" r="2.5" /></g>
        <g transform="translate(492.625,660.625) scale(3.605)"><circle cx="3" cy="3" r="2.5" /></g>
        <g transform="translate(513.625,660.625) scale(3.605)"><path d="M5.5,6h-5V3c0-1.4,1.1-2.5,2.5-2.5h0c1.4,0,2.5,1.1,2.5,2.5V6z" /></g>
        <g transform="translate(534.625,660.625) scale(3.605)"><rect x="0.5" width="5" height="6" /></g>
        <g transform="translate(555.625,660.625) scale(3.605)"><path d="M5.5,6h-5V3c0-1.4,1.1-2.5,2.5-2.5h0c1.4,0,2.5,1.1,2.5,2.5V6z" /></g>
        <g transform="translate(576.625,660.625) scale(3.605)"><rect x="0.5" width="5" height="6" /></g>
        <g transform="translate(597.625,660.625) scale(3.605)"><path d="M5.5,6h-5V3c0-1.4,1.1-2.5,2.5-2.5h0c1.4,0,2.5,1.1,2.5,2.5V6z" /></g>
        <g transform="translate(618.625,660.625) scale(3.605)"><path d="M5.5,6h-5V3c0-1.4,1.1-2.5,2.5-2.5h0c1.4,0,2.5,1.1,2.5,2.5V6z" /></g>
        <g transform="translate(639.625,660.625) scale(3.605)"><circle cx="3" cy="3" r="2.5" /></g>
        <g transform="translate(660.625,660.625) scale(3.605)"><rect x="0.5" width="5" height="6" /></g>
        <g transform="translate(702.625,660.625) scale(3.605)"><path d="M5.5,6h-5V3c0-1.4,1.1-2.5,2.5-2.5h0c1.4,0,2.5,1.1,2.5,2.5V6z" /></g>
        <g transform="translate(744.625,660.625) scale(3.605)"><rect x="0.5" width="5" height="6" /></g>
        <g transform="translate(408.625,681.625) scale(3.605)"><rect x="0.5" width="5" height="6" /></g>
        <g transform="translate(429.625,681.625) scale(3.605)"><rect x="0.5" width="5" height="6" /></g>
        <g transform="translate(513.625,681.625) scale(3.605)"><path d="M3,5.5L3,5.5C1.6,5.5,0.5,4.4,0.5,3V0h5v3C5.5,4.4,4.4,5.5,3,5.5z" /></g>
        <g transform="translate(534.625,681.625) scale(3.605)"><rect x="0.5" width="5" height="6" /></g>
        <g transform="translate(555.625,681.625) scale(3.605)"><path d="M3,5.5L3,5.5C1.6,5.5,0.5,4.4,0.5,3V0h5v3C5.5,4.4,4.4,5.5,3,5.5z" /></g>
        <g transform="translate(576.625,681.625) scale(3.605)"><rect x="0.5" width="5" height="6" /></g>
        <g transform="translate(597.625,681.625) scale(3.605)"><rect x="0.5" width="5" height="6" /></g>
        <g transform="translate(618.625,681.625) scale(3.605)"><path d="M3,5.5L3,5.5C1.6,5.5,0.5,4.4,0.5,3V0h5v3C5.5,4.4,4.4,5.5,3,5.5z" /></g>
        <g transform="translate(660.625,681.625) scale(3.605)"><path d="M3,5.5L3,5.5C1.6,5.5,0.5,4.4,0.5,3V0h5v3C5.5,4.4,4.4,5.5,3,5.5z" /></g>
        <g transform="translate(681.625,681.625) scale(3.605)"><path d="M5.5,6h-5V3c0-1.4,1.1-2.5,2.5-2.5h0c1.4,0,2.5,1.1,2.5,2.5V6z" /></g>
        <g transform="translate(702.625,681.625) scale(3.605)"><rect x="0.5" width="5" height="6" /></g>
        <g transform="translate(723.625,681.625) scale(3.605)"><circle cx="3" cy="3" r="2.5" /></g>
        <g transform="translate(744.625,681.625) scale(3.605)"><rect x="0.5" width="5" height="6" /></g>
        <g transform="translate(408.625,702.625) scale(3.605)"><rect x="0.5" width="5" height="6" /></g>
        <g transform="translate(429.625,702.625) scale(3.605)"><rect x="0.5" width="5" height="6" /></g>
        <g transform="translate(534.625,702.625) scale(3.605)"><path d="M3,5.5L3,5.5C1.6,5.5,0.5,4.4,0.5,3V0h5v3C5.5,4.4,4.4,5.5,3,5.5z" /></g>
        <g transform="translate(576.625,702.625) scale(3.605)"><rect x="0.5" width="5" height="6" /></g>
        <g transform="translate(597.625,702.625) scale(3.605)"><path d="M3,5.5L3,5.5C1.6,5.5,0.5,4.4,0.5,3V0h5v3C5.5,4.4,4.4,5.5,3,5.5z" /></g>
        <g transform="translate(681.625,702.625) scale(3.605)"><rect x="0.5" width="5" height="6" /></g>
        <g transform="translate(702.625,702.625) scale(3.605)"><path d="M3,5.5L3,5.5C1.6,5.5,0.5,4.4,0.5,3V0h5v3C5.5,4.4,4.4,5.5,3,5.5z" /></g>
        <g transform="translate(744.625,702.625) scale(3.605)"><rect x="0.5" width="5" height="6" /></g>
        <g transform="translate(408.625,723.625) scale(3.605)"><path d="M3,5.5L3,5.5C1.6,5.5,0.5,4.4,0.5,3V0h5v3C5.5,4.4,4.4,5.5,3,5.5z" /></g>
        <g transform="translate(429.625,723.625) scale(3.605)"><rect x="0.5" width="5" height="6" /></g>
        <g transform="translate(450.625,723.625) scale(3.605)"><circle cx="3" cy="3" r="2.5" /></g>
        <g transform="translate(513.625,723.625) scale(3.605)"><path d="M5.5,6h-5V3c0-1.4,1.1-2.5,2.5-2.5h0c1.4,0,2.5,1.1,2.5,2.5V6z" /></g>
        <g transform="translate(555.625,723.625) scale(3.605)"><path d="M5.5,6h-5V3c0-1.4,1.1-2.5,2.5-2.5h0c1.4,0,2.5,1.1,2.5,2.5V6z" /></g>
        <g transform="translate(576.625,723.625) scale(3.605)"><path d="M3,5.5L3,5.5C1.6,5.5,0.5,4.4,0.5,3V0h5v3C5.5,4.4,4.4,5.5,3,5.5z" /></g>
        <g transform="translate(618.625,723.625) scale(3.605)"><circle cx="3" cy="3" r="2.5" /></g>
        <g transform="translate(639.625,723.625) scale(3.605)"><path d="M5.5,6h-5V3c0-1.4,1.1-2.5,2.5-2.5h0c1.4,0,2.5,1.1,2.5,2.5V6z" /></g>
        <g transform="translate(660.625,723.625) scale(3.605)"><path d="M5.5,6h-5V3c0-1.4,1.1-2.5,2.5-2.5h0c1.4,0,2.5,1.1,2.5,2.5V6z" /></g>
        <g transform="translate(681.625,723.625) scale(3.605)"><rect x="0.5" width="5" height="6" /></g>
        <g transform="translate(744.625,723.625) scale(3.605)"><rect x="0.5" width="5" height="6" /></g>
        <g transform="translate(429.625,744.625) scale(3.605)"><path d="M3,5.5L3,5.5C1.6,5.5,0.5,4.4,0.5,3V0h5v3C5.5,4.4,4.4,5.5,3,5.5z" /></g>
        <g transform="translate(492.625,744.625) scale(3.605)"><circle cx="3" cy="3" r="2.5" /></g>
        <g transform="translate(513.625,744.625) scale(3.605)"><path d="M3,5.5L3,5.5C1.6,5.5,0.5,4.4,0.5,3V0h5v3C5.5,4.4,4.4,5.5,3,5.5z" /></g>
        <g transform="translate(555.625,744.625) scale(3.605)"><path d="M3,5.5L3,5.5C1.6,5.5,0.5,4.4,0.5,3V0h5v3C5.5,4.4,4.4,5.5,3,5.5z" /></g>
        <g transform="translate(639.625,744.625) scale(3.605)"><path d="M3,5.5L3,5.5C1.6,5.5,0.5,4.4,0.5,3V0h5v3C5.5,4.4,4.4,5.5,3,5.5z" /></g>
        <g transform="translate(660.625,744.625) scale(3.605)"><path d="M3,5.5L3,5.5C1.6,5.5,0.5,4.4,0.5,3V0h5v3C5.5,4.4,4.4,5.5,3,5.5z" /></g>
        <g transform="translate(681.625,744.625) scale(3.605)"><path d="M3,5.5L3,5.5C1.6,5.5,0.5,4.4,0.5,3V0h5v3C5.5,4.4,4.4,5.5,3,5.5z" /></g>
        <g transform="translate(702.625,744.625) scale(3.605)"><circle cx="3" cy="3" r="2.5" /></g>
        <g transform="translate(723.625,744.625) scale(3.605)"><circle cx="3" cy="3" r="2.5" /></g>
        <g transform="translate(744.625,744.625) scale(3.605)"><path d="M3,5.5L3,5.5C1.6,5.5,0.5,4.4,0.5,3V0h5v3C5.5,4.4,4.4,5.5,3,5.5z" /></g>
        <g transform="translate(240.625,240.625)">
            <g transform="scale(10.5)"><path d="M14,14V4.4C14,2,12,0,9.6,0H4.4C2,0,0,2,0,4.4v5.1C0,12,2,14,4.4,14H14z M4.8,2h4.4C10.7,2,12,3.3,12,4.8V12H4.8 C3.3,12,2,10.7,2,9.2V4.8C2,3.3,3.3,2,4.8,2z" /></g>
        </g>
        <g transform="translate(618.625,240.625)">
            <g transform="scale(10.5) rotate(90 7 7)"><path d="M14,14V4.4C14,2,12,0,9.6,0H4.4C2,0,0,2,0,4.4v5.1C0,12,2,14,4.4,14H14z M4.8,2h4.4C10.7,2,12,3.3,12,4.8V12H4.8 C3.3,12,2,10.7,2,9.2V4.8C2,3.3,3.3,2,4.8,2z" /></g>
        </g>
        <g transform="translate(240.625,618.625)">
            <g transform="scale(10.5) rotate(-90 7 7)"><path d="M14,14V4.4C14,2,12,0,9.6,0H4.4C2,0,0,2,0,4.4v5.1C0,12,2,14,4.4,14H14z M4.8,2h4.4C10.7,2,12,3.3,12,4.8V12H4.8 C3.3,12,2,10.7,2,9.2V4.8C2,3.3,3.3,2,4.8,2z" /></g>
        </g>
        <g transform="translate(282.625,282.625)">
            <g transform="scale(10.5)"><circle cx="3" cy="3" r="3" /></g>
        </g>
        <g transform="translate(660.625,282.625)">
            <g transform="scale(10.5)"><circle cx="3" cy="3" r="3" /></g>
        </g>
        <g transform="translate(282.625,660.625)">
            <g transform="scale(10.5)"><circle cx="3" cy="3" r="3" /></g>
        </g>
    </g>
    <g><text fill="#20B2AA" font-family="Arial, Helvetica, sans-serif" font-size="104.81770833333px" text-anchor="middle" x="503.125" y="92.723357371795" transform="translate(0,1006.25)">SCAN ME</text></g>
    <script xmlns="" />
</svg>
