<svg xmlns="http://www.w3.org/2000/svg" xmlns:xlink="http://www.w3.org/1999/xlink" xml:space="preserve" width="1027.0833333333" height="1131.3506944444" viewBox="0 0 1027.0833333333 1131.3506944444">
    <rect width="100%" height="100%" fill="#ffffff" x="0" y="0" />
    <g transform="scale(42.795138888889)" fill="#d22f0f">
        <path
            d="M20.579,6.892c.779-.748,1.105-3.116.818-4.517,0,0-2.158,1.558-4.025,1.836-1.871.283-3.52.653-5.361-.748,0,0-2.119,1.34-4.452,1.057-2.337-.278-2.868-1.458-3.864-1.523-.996-.061-1.184-.627-1.184-.627,0,0-.344,1.462,0,2.493.344,1.031,1.684,2.62,1.432,3.642-.248,1.031-1.497,4.021-1.031,5.513.466,1.497.748,4.639,3.05,5.574,2.302.936,3.455,2.054,4.047,2.337s1.71,1.836,2.18,1.462c.466-.374,2.524-2.089,4.452-2.894,1.932-.809,3.677-2.028,4.452-4.517.779-2.493-.218-5.043-.714-5.918-.487-.866-.583-2.424.2-3.172ZM20.67,15.364c-.627,3.455-3.956,4.547-3.956,4.547-3.198,1.675-4.787,2.929-4.787,2.929-.705-.936-1.288-.901-3.311-2.337-2.028-1.432-3.986-1.401-4.734-4.613s.017-4.7.457-6.301c.435-1.597.209-1.788-.561-3.155-.757-1.371-.888-3.072-.888-3.072,1.414.875,3.799,1.514,5.465,1.684,1.658.165,3.581-.936,3.581-.936,0,0,1.654.866,3.277,1.01,2.515.226,5.84-1.862,5.84-1.862,0,.988-.374,2.511-.374,2.511-.061.962-2.302,1.588-.779,4.674,1.519,3.085.77,4.922.77,4.922Z"
        />
        <path
            d="M19.521,6.143c.831-1.371.727-1.758.727-1.758,0,0-1.684,1.305-4.861,1.245,0,0-2.037.044-3.455-.818,0,0-1.314.918-4.169.796-2.85-.126-3.725-1.14-3.986-1.218,0,0,.048.875.901,1.945.857,1.075.466,3.194.2,3.738-.261.544-1.245,3.368-.5,6.066s3.721,3.259,4.752,3.942c1.04.688,2.202,1.205,2.794,1.889,0,0,1.984-1.497,3.229-1.976s3.738-1.371,4.613-3.925,0-4.63-.583-5.583c-.579-.962-.496-2.972.339-4.343ZM19.743,15.529c-.87,3.181-3.925,4.029-3.925,4.029-2.593.936-3.855,2.158-3.855,2.158-1.697-1.497-4.299-2.576-4.299-2.576-3.342-1.327-3.264-3.964-3.264-3.964-.457-2.406.561-4.382.831-5.566s.191-2.737-.292-3.203c-.483-.47-.87-1.54-.87-1.54,3.816,1.98,7.859.235,7.859.235,0,0,1.336.701,3.777.683,2.446-.013,4.19-.918,4.19-.918-.248.87-.405.692-1.175,2.633-.522,1.327.3,3.003.3,3.003,0,0,1.593,1.841.722,5.026Z"
        />
        <path d="M6.323,20.338s-3.333-1.906-6.157.3c0,0,1.388.248,2.037.735,0,0-1.497.457-2.206,2.067,0,0,2.145-.805,3.864-.022,0,0,1.849.927,2.467-.196v-2.885h-.004Z" />
        <path
            d="M.305,22.866s1.48-.409,2.972-.074c.17.039.331.1.487.174.305.144.927.409,1.445.4,0,0,.653.004,1.114-.527v-.218s-.244.505-1.105.601c0,0-.509-.004-1.166-.305-.392-.178-.857-.3-1.284-.357-.64-.083-1.527-.113-2.363.17l-.1.135Z"
        />
        <path d="M.831,20.795s.762-.77,2.667-.757c0,0,1.745.065,2.824.805v.222s-1.157-.644-2.82-.875c0,0-1.136-.135-2.463.666l-.209-.061Z" />
        <path d="M17.728,20.338s3.333-1.906,6.157.3c0,0-1.388.248-2.037.735,0,0,1.497.457,2.206,2.067,0,0-2.145-.805-3.864-.022,0,0-1.849.927-2.467-.196v-2.885h.004Z" />
        <path
            d="M23.746,22.866s-1.48-.409-2.972-.074c-.17.039-.331.1-.487.174-.305.144-.927.409-1.445.4,0,0-.653.004-1.114-.527v-.218s.244.505,1.105.601c0,0,.509-.004,1.166-.305.392-.178.857-.3,1.284-.357.64-.083,1.527-.113,2.363.17l.1.135Z"
        />
        <path d="M23.22,20.795s-.762-.77-2.667-.757c0,0-1.745.065-2.824.805v.222s1.157-.644,2.82-.875c0,0,1.136-.135,2.463.666l.209-.061Z" />
        <path d="M19.264,21.826l-1.536,1.392v-1.762s.779.178,1.536.37Z" style="fill: #fff; opacity: 0.3;" />
        <path d="M4.578,21.826l1.745,1.392v-1.762s-.988.178-1.745.37Z" style="fill: #fff; opacity: 0.3;" />
        <path d="M4.578,21.826s8.586-1.754,14.686,0l.17-2.863c.013-.27-.152-.518-.409-.596-1.453-.466-9.264-1.745-14.229.096-.244.091-.405.335-.387.592l.17,2.772Z" />
        <path d="M8.847,4.298s-.335,1.284-.896,1.671c0,0-.313.313-.4.548,0,0-.696-.226.174-1.453.004.004.487-.54,1.123-.766Z" style="fill: #98a94d;" />
        <path d="M7.794,4.185s-1.749.835-2.541-.444c0,0,.992-.183,1.353-.083.357.1.614.035,1.188.527Z" style="fill: #a0a474;" />
        <path d="M7.119,5.042s-.801,1.488-1.266,1.645c-.466.161-.818.522-.818.522,0,0-.139-.762.5-1.401s1.584-.766,1.584-.766Z" style="fill: #57661f;" />
        <path d="M2.881,6.883s.518-.27,1.166-.357c.648-.096,1.392-1.197,1.392-1.197,0,0-2.119.022-2.559,1.553Z" style="fill: #a0a474;" />
        <path d="M4.226,5.169s-1.136.057-1.497-.896c.004-.004.892-.187,1.497.896Z" style="fill: #98a94d;" />
        <path d="M3.86,4.246s.805-.318,2.485.67c0,0-.949.235-1.458.039-.505-.196-.914-.466-1.027-.709Z" style="fill: #57661f;" />
        <path d="M.914,5.317s.457-.661,1.445-.383c.988.278,1.136.4,1.136.4,0,0-.979.374-1.54.283-.557-.087-1.04-.3-1.04-.3Z" style="fill: #57661f;" />
        <path
            d="M11.336,3.798s.405.113.2.226c-.2.113-1.353-.457-2.585.035-1.231.492-1.284.879-2.106,1.04s-1.562.352-2.459.296-2.241-.052-2.493-.126,2.176-.022,2.863.013c.688.039,2.206-.261,3.142-.87s1.458-.648,2.15-.714c.696-.07,1.288.1,1.288.1Z"
            style="fill: #384610;"
        />
        <path d="M8.795,4.015s-.487.039-.775.117-1.536-.239-1.723-.226-.144.096.135.113c.283.017,1.162.252,1.645.174s.596-.074.596-.074l.122-.104Z" style="fill: #384610;" />
        <path d="M7.085,4.838s-.683.083-1.432-.078c-.748-.165-1.131-.274-1.131-.274,0,0,.292.196,1.323.392,1.027.187,1.236.057,1.236.057l.004-.096Z" style="fill: #384610;" />
        <path d="M5.875,6.082s1.253-.957,1.488-1.262l-.196.052c.009.004-.949.849-1.292,1.21Z" style="fill: #384610;" />
        <path d="M3.847,6.156s.492-.157.696-.3.831-.574,1.245-.596l-.601.083s-.566.387-.757.466c-.196.083-.331.2-.583.348Z" style="fill: #384610;" />
        <path d="M7.737,5.673s.561-.666.701-.87.635-.775,1.01-.94l-.366.07s-.631.727-.857,1.031c-.313.426-.37.513-.487.709Z" style="fill: #384610;" />
        <path d="M3.399,4.642s.748.422.992.518c.244.096.296.187.296.187l-.278-.026s-.383-.274-.566-.37c-.174-.104-.383-.226-.444-.309Z" style="fill: #384610;" />
        <path d="M15.043,4.298s.335,1.284.896,1.671c0,0,.313.313.4.548,0,0,.696-.226-.174-1.453,0,.004-.487-.54-1.123-.766Z" style="fill: #98a94d;" />
        <path d="M16.097,4.185s1.749.835,2.541-.444c0,0-.992-.183-1.353-.083-.357.1-.609.035-1.188.527Z" style="fill: #a0a474;" />
        <path d="M16.775,5.042s.801,1.488,1.266,1.645c.466.161.818.522.818.522,0,0,.139-.762-.5-1.401-.64-.64-1.584-.766-1.584-.766Z" style="fill: #57661f;" />
        <path d="M21.009,6.883s-.518-.27-1.166-.357c-.648-.096-1.392-1.197-1.392-1.197,0,0,2.124.022,2.559,1.553Z" style="fill: #a0a474;" />
        <path d="M19.669,5.169s1.136.057,1.497-.896c0-.004-.888-.187-1.497.896Z" style="fill: #98a94d;" />
        <path d="M20.035,4.246s-.805-.318-2.485.67c0,0,.949.235,1.458.039s.914-.466,1.027-.709Z" style="fill: #57661f;" />
        <path d="M22.985,5.317s-.457-.661-1.445-.383-1.136.405-1.136.405c0,0,.979.37,1.536.283.553-.091,1.044-.305,1.044-.305Z" style="fill: #57661f;" />
        <path
            d="M12.559,3.798s-.405.113-.2.226c.209.117,1.353-.457,2.585.035,1.227.487,1.284.879,2.106,1.04s1.562.352,2.459.296c.896-.057,2.241-.052,2.493-.126.248-.074-2.176-.022-2.863.013-.683.044-2.206-.261-3.142-.87-.936-.605-1.458-.648-2.15-.714-.692-.07-1.288.1-1.288.1Z"
            style="fill: #384610;"
        />
        <path d="M15.096,4.015s.487.039.775.117c.287.078,1.536-.239,1.723-.226.187.013.144.096-.135.113-.283.017-1.162.252-1.645.174-.483-.078-.596-.074-.596-.074l-.122-.104Z" style="fill: #384610;" />
        <path d="M16.806,4.838s.683.083,1.432-.078c.748-.165,1.131-.274,1.131-.274,0,0-.292.196-1.323.392-1.018.187-1.231.057-1.231.057l-.009-.096Z" style="fill: #384610;" />
        <path d="M18.016,6.082s-1.253-.957-1.488-1.262l.196.052s.949.849,1.292,1.21Z" style="fill: #384610;" />
        <path d="M20.048,6.156s-.492-.157-.696-.3c-.2-.144-.831-.574-1.245-.596l.601.083s.566.387.757.466c.191.083.331.2.583.348Z" style="fill: #384610;" />
        <path d="M16.157,5.673s-.561-.666-.701-.87-.635-.775-1.01-.94l.366.07s.631.727.857,1.031c.313.426.37.513.487.709Z" style="fill: #384610;" />
        <path d="M20.492,4.642s-.748.422-.992.518c-.244.096-.296.187-.296.187l.278-.026s.383-.274.566-.37c.178-.104.387-.226.444-.309Z" style="fill: #384610;" />
        <path d="M14.23,3.876s1.288-.144,1.527-1.088.292-1.288.292-1.288c0,0-.592.74-.827,1.192-.235.453-.644.326-.992,1.184Z" style="fill: #a0a474;" />
        <path d="M12.402,2.292s1.48,1.24,1.593,1.627c0,0,.37-.548-.191-1.04-.113-.1-.244-.174-.387-.226-.187-.07-.557-.213-1.014-.361Z" style="fill: #57661f;" />
        <path d="M14.064,4.403s.566-.357,1.78-.013c.788.226,1.018.309,1.018.309,0,0-1.24.035-1.488.091-.244.052-1.292.274-1.31-.387Z" style="fill: #57661f;" />
        <path d="M15.322,3.019s-.331.209-.696.566-.779.957-1.253,1.11-.54.178-.487.078c.048-.1.592-.152.857-.4.261-.252.996-1.005,1.179-1.144.178-.144.4-.209.4-.209Z" style="fill: #384610;" />
        <path d="M13.612,3.01s.457.783.361,1.205l.109-.078s.013-.522-.47-1.127Z" style="fill: #384610;" />
        <path d="M13.66,4.494s.596-.283,1.58-.126c0,0,.37.091.348.152s-.426-.174-1.179-.1c-.748.074-1.044.274-1.044.274l.296-.2Z" style="fill: #384610;" />
        <path d="M9.221,4.181s.226-1.279,1.184-1.458c.957-.178,1.301-.213,1.301-.213,0,0-.775.544-1.24.753s-.37.627-1.245.918Z" style="fill: #a0a474;" />
        <path d="M10.683,6.108s-1.144-1.558-1.519-1.697c0,0,.574-.335,1.027.257.091.117.157.252.2.4.057.191.165.57.292,1.04Z" style="fill: #57661f;" />
        <path d="M8.682,4.311s.396-.54.126-1.775c-.174-.805-.244-1.04-.244-1.04,0,0-.113,1.236-.183,1.48s-.361,1.279.3,1.336Z" style="fill: #57661f;" />
        <path d="M10.139,3.145s-.226.313-.605.657c-.383.344-1.005.718-1.184,1.179-.178.466-.213.527-.109.483s.187-.583.457-.827,1.066-.931,1.218-1.105c.148-.165.222-.387.222-.387Z" style="fill: #384610;" />
        <path d="M10.044,4.855s-.753-.505-1.175-.435l.083-.104s.518.022,1.092.54Z" style="fill: #384610;" />
        <path d="M8.564,4.707s.318-.579.231-1.567c0,0-.065-.374-.126-.357s.144.435.022,1.179c-.122.744-.339,1.027-.339,1.027l.213-.283Z" style="fill: #384610;" />
        <path d="M3.93,11.256s.239,1.275-.592,1.78-1.144.657-1.144.657c0,0,.531-.783.896-1.144.366-.352.126-.709.84-1.292Z" style="fill: #a0a474;" />
        <path d="M1.88,9.973s1.619,1.053,2.023,1.049c0,0-.418.518-1.049.122-.126-.078-.235-.183-.331-.3-.122-.165-.366-.483-.644-.87Z" style="fill: #57661f;" />
        <path d="M4.387,10.939s-.178.644.509,1.706c.448.692.596.883.596.883,0,0-.335-1.197-.352-1.453-.026-.252-.113-1.314-.753-1.136Z" style="fill: #57661f;" />
        <path d="M3.434,12.549s.1-.374.335-.831c.235-.457.688-1.031.692-1.523.004-.5.013-.57-.07-.492-.083.074.035.609-.131.936s-.666,1.249-.748,1.466-.078.444-.078.444Z" style="fill: #384610;" />
        <path d="M2.925,10.913s.883.2,1.253-.009l-.044.126s-.487.17-1.21-.117Z" style="fill: #384610;" />
        <path d="M4.361,10.53s-.096.653.344,1.545c0,0,.196.331.248.287s-.292-.357-.444-1.097-.048-1.075-.048-1.075l-.1.339Z" style="fill: #384610;" />
        <path d="M20.222,10.791s1.245.361,1.314,1.336c.074.975.07,1.323.07,1.323,0,0-.457-.831-.609-1.314-.157-.492-.579-.448-.775-1.345Z" style="fill: #a0a474;" />
        <path d="M18.146,12.031s1.671-.97,1.854-1.332c0,0,.27.605-.366.988-.126.074-.27.126-.418.157-.205.048-.596.117-1.07.187Z" style="fill: #57661f;" />
        <path d="M20.143,10.238s.492.453,1.754.318c.818-.083,1.057-.131,1.057-.131,0,0-1.218-.244-1.453-.344-.239-.091-1.231-.496-1.358.157Z" style="fill: #57661f;" />
        <path d="M21.144,11.813s-.287-.257-.587-.679-.605-1.075-1.049-1.305-.5-.27-.47-.161.561.248.77.54.809,1.162.97,1.332.366.274.366.274Z" style="fill: #384610;" />
        <path d="M19.46,11.53s.583-.696.561-1.123l.096.096s-.078.513-.657,1.027Z" style="fill: #384610;" />
        <path d="M19.765,10.081s.54.374,1.532.396c0,0,.387-.022.37-.091-.013-.065-.453.1-1.175-.104-.722-.2-.983-.448-.983-.448l.257.248Z" style="fill: #384610;" />
        <path d="M14.917,5.813s.531.757.827.4c.296-.352-.113-.718-.474-.783s-.483.222-.352.383Z" style="fill: #f7ecd6;" />
        <path d="M14.769,5.456s-.5-.313-.77-.157c-.278.161-.274.57.035.609.3.048.957-.013.735-.453Z" style="fill: #f7ecd6;" />
        <path d="M15.161,4.655s-.561.022-.522.548.257.757.448.487c.183-.265.509-.866.074-1.036Z" style="fill: #e8dcc4;" />
        <path d="M14.395,6.496s-.244-.679.457-.953c0,0,.409.292.157.914.004,0-.257.487-.614.039Z" style="fill: #e8dcc4;" />
        <path d="M14.826,5.456s.244-.074.283.183c.039.252-.257.392-.418.222-.161-.17-.03-.418.135-.405Z" style="fill: #e8c2a2;" />
        <path d="M20.426,3.65s.531.757.827.4c.296-.352-.113-.718-.474-.783-.357-.07-.483.222-.352.383Z" style="fill: #f7ecd6;" />
        <path d="M20.283,3.293s-.5-.313-.77-.157c-.274.161-.274.57.035.609.296.048.953-.013.735-.453Z" style="fill: #f7ecd6;" />
        <path d="M20.67,2.492s-.561.022-.522.548c.039.527.257.757.448.487.183-.265.509-.862.074-1.036Z" style="fill: #e8dcc4;" />
        <path d="M19.904,4.337s-.244-.679.457-.953c0,0,.409.292.157.914.004-.004-.257.483-.614.039Z" style="fill: #e8dcc4;" />
        <path d="M20.339,3.293s.244-.074.283.183c.039.252-.257.392-.418.222s-.035-.413.135-.405Z" style="fill: #e8c2a2;" />
        <path d="M19.778,8.598s-.2.901.257.883c.461-.017.457-.566.261-.879-.187-.313-.483-.209-.518-.004Z" style="fill: #f7ecd6;" />
        <path d="M19.943,8.249s-.1-.579-.4-.679c-.3-.1-.601.178-.431.431.165.261.653.705.831.248Z" style="fill: #f7ecd6;" />
        <path d="M20.796,8.001s-.392-.4-.757-.017-.392.701-.065.657.988-.2.822-.64Z" style="fill: #e8dcc4;" />
        <path d="M18.916,8.676s.339-.635,1.014-.3c0,0,.057.5-.574.727.004,0-.527.131-.44-.426Z" style="fill: #e8dcc4;" />
        <path d="M19.987,8.293s.222.131.057.335c-.165.196-.461.07-.448-.165.013-.235.283-.305.392-.17Z" style="fill: #e8c2a2;" />
        <path d="M4.234,3.92s.418.592.648.313-.091-.566-.37-.618c-.283-.048-.374.178-.278.305Z" style="fill: #f7ecd6;" />
        <path d="M4.126,3.646s-.392-.244-.605-.122c-.218.122-.213.448.022.479.239.03.748-.013.583-.357Z" style="fill: #f7ecd6;" />
        <path d="M4.43,3.015s-.435.017-.409.431.2.592.348.387c.144-.213.4-.683.061-.818Z" style="fill: #e8dcc4;" />
        <path d="M3.825,4.464s-.191-.531.357-.748c0,0,.318.231.122.714.009,0-.196.383-.479.035Z" style="fill: #e8dcc4;" />
        <path d="M4.165,3.641s.191-.057.222.139c.026.2-.2.305-.331.174-.126-.126-.022-.318.109-.313Z" style="fill: #e8c2a2;" />
        <path d="M5.231,8.41s.483.692.757.366-.104-.657-.431-.718c-.331-.065-.444.205-.326.352Z" style="fill: #f7ecd6;" />
        <path d="M5.1,8.084s-.457-.287-.705-.139c-.252.144-.248.522.026.561.274.035.879-.022.679-.422Z" style="fill: #f7ecd6;" />
        <path d="M5.453,7.349s-.513.022-.474.505c.039.479.235.692.409.448s.466-.792.065-.953Z" style="fill: #e8dcc4;" />
        <path d="M4.757,9.041s-.222-.622.418-.875c0,0,.37.27.144.835,0-.004-.235.444-.561.039Z" style="fill: #e8dcc4;" />
        <path d="M5.152,8.084s.226-.065.257.165c.035.235-.235.357-.387.2-.144-.152-.03-.379.131-.366Z" style="fill: #e8c2a2;" />
        <path d="M6.515,4.942s.413.587.644.309-.091-.553-.366-.609c-.283-.052-.374.174-.278.3Z" style="fill: #f7ecd6;" />
        <path d="M6.41,4.664s-.387-.244-.601-.122c-.213.122-.213.444.022.474.235.035.744-.009.579-.352Z" style="fill: #f7ecd6;" />
        <path d="M6.71,4.046s-.431.017-.405.426c.026.409.2.587.344.383.144-.213.392-.679.061-.809Z" style="fill: #e8dcc4;" />
        <path d="M6.119,5.478s-.187-.527.352-.744c0,0,.313.226.122.709,0,0-.2.379-.474.035Z" style="fill: #e8dcc4;" />
        <path d="M6.449,4.664s.191-.057.222.139c.026.196-.196.3-.326.174-.131-.131-.026-.322.104-.313Z" style="fill: #e8c2a2;" />
        <path d="M3.734,8.989s.431.618.679.331c.239-.292-.096-.587-.387-.644-.296-.057-.4.183-.292.313Z" style="fill: #f7ecd6;" />
        <path d="M3.616,8.698s-.405-.257-.631-.126c-.226.131-.222.466.022.505.248.03.788-.017.609-.379Z" style="fill: #f7ecd6;" />
        <path d="M3.93,8.045s-.457.017-.426.453c.035.431.213.622.361.4.157-.222.418-.714.065-.853Z" style="fill: #e8dcc4;" />
        <path d="M3.307,9.555s-.196-.553.37-.779c0,0,.335.239.126.748.004-.004-.2.392-.496.03Z" style="fill: #e8dcc4;" />
        <path d="M3.664,8.698s.2-.061.231.152c.026.209-.213.318-.344.183-.135-.144-.03-.344.113-.335Z" style="fill: #e8c2a2;" />
        <path d="M14.708,3.85s-.601.635-.218.844c.387.209.648-.239.644-.587,0-.348-.296-.405-.426-.257Z" style="fill: #e9837b;" />
        <path d="M15.017,3.65s.196-.522,0-.748-.579-.144-.566.144c.013.292.196.892.566.605Z" style="fill: #e9837b;" />
        <path d="M15.835,3.859s-.126-.518-.609-.383-.657.383-.37.509c.283.122.896.309.979-.126Z" style="fill: #efa19c;" />
        <path d="M13.973,3.493s.583-.352.975.244c0,0-.196.431-.822.318,0,.004-.5-.144-.152-.561Z" style="fill: #efa19c;" />
        <path d="M15.03,3.702s.117.218-.117.296c-.231.083-.413-.165-.287-.348.126-.183.379-.109.405.052Z" style="fill: #e16967;" />
        <path d="M4.321,10.499s-.709.753-.257.996.762-.283.757-.692c-.009-.413-.357-.483-.5-.305Z" style="fill: #e9837b;" />
        <path d="M4.678,10.264s.235-.618,0-.883c-.235-.27-.683-.17-.661.17.017.335.231,1.049.661.714Z" style="fill: #e9837b;" />
        <path d="M5.64,10.508s-.152-.605-.718-.453c-.57.161-.775.453-.435.596.331.148,1.062.37,1.153-.144Z" style="fill: #efa19c;" />
        <path d="M3.451,10.081s.688-.418,1.149.287c0,0-.231.513-.962.374-.009,0-.596-.174-.187-.661Z" style="fill: #efa19c;" />
        <path d="M4.691,10.325s.135.252-.135.352-.483-.196-.339-.409c.148-.213.448-.135.474.057Z" style="fill: #e16967;" />
        <path d="M19.151,10.251s-.657.583-.292.822.666-.183.692-.531-.257-.431-.4-.292Z" style="fill: #e9837b;" />
        <path d="M19.473,10.077s.244-.505.065-.748c-.178-.244-.566-.196-.574.096-.009.287.117.905.509.653Z" style="fill: #e9837b;" />
        <path d="M20.27,10.356s-.078-.527-.574-.431c-.492.096-.688.326-.413.47.27.152.87.392.988-.039Z" style="fill: #efa19c;" />
        <path d="M18.446,9.829s.618-.3.949.331c0,0-.235.413-.844.244,0,.004-.483-.187-.104-.574Z" style="fill: #efa19c;" />
        <path d="M19.482,10.134s.096.226-.139.287c-.235.061-.396-.2-.252-.37.139-.178.383-.083.392.083Z" style="fill: #e16967;" />
        <path d="M11.867,3.815s-.509.2-.37.748c.135.544.701.809,1.062.487.357-.318.527-.931.091-1.097-.44-.165-.313-.305-.783-.139Z" style="fill: none; stroke: #a4a0cb; stroke-miterlimit: 10; stroke-width: 0.766px;" />
        <path d="M12.859,3.01c.135-.435-.292-.883-.748-.94-.017,0-.035-.004-.052-.004-.896-.083-.949.936-.783,1.245.165.309.152.888.779.992.527.083.64-.77.805-1.292Z" style="fill: #99463a;" />
        <path d="M14.295,4.163s.444-.853-.357-1.157c-.801-.305-1.227.113-1.545.701s.091.744.091.744c0,0,1.305.513,1.81-.287Z" style="fill: #8e2e29;" />
        <path d="M13.982,5.808s-.37.831-.844.692-.396-.352-.653-.592c-.131-.122-.583-.84-.466-1.227.122-.387,1.205-.183,1.562-.065.357.113,1.144.805.4,1.192Z" style="fill: #943b35;" />
        <path d="M13.681,5.142s-.718-.77-1.619-.47c0,0-.039.135.104.057.622-.348,1.523.492,1.523.492,0,0,.104.017-.009-.078Z" style="fill: #6d2525;" />
        <path d="M13.207,5.908s.057.078-.039.065c-.096-.013-.753-.748-.844-1.018-.096-.274-.313-.418-.313-.418l.044-.035s.257.248.344.444c.087.196.509.753.809.962Z" style="fill: #6d2525;" />
        <path d="M13.494,5.643s.091.009.044-.048c-.061-.074-.601-.692-.788-.74-.187-.048-.513-.261-.583-.309,0,0-.061,0-.052.039.009.039.474.252.601.309.117.061.722.753.779.748Z" style="fill: #6d2525;" />
        <path d="M11.545,2.771s-.048,1.053.801,1.48c0,0,.122-.07-.035-.113-.688-.196-.718-1.432-.718-1.432,0,0-.061-.083-.048.065Z" style="fill: #87372e;" />
        <path d="M12.367,2.693s.022-.096.07-.013c.048.083-.109,1.053-.257,1.297-.152.244-.126.509-.126.509l-.052-.013s.026-.357.126-.544c.1-.187.265-.862.239-1.236Z" style="fill: #87372e;" />
        <path d="M12.037,2.706s-.057-.07-.061,0c-.009.1-.07.914.026,1.079.1.17.174.548.187.635,0,0,.044.044.061.009s-.152-.518-.196-.644c-.052-.131.017-1.044-.017-1.079Z" style="fill: #87372e;" />
        <path d="M13.494,3.45s-1.04.187-1.271,1.105c0,0,.096.104.104-.061.044-.709,1.24-1.014,1.24-1.014,0,0,.065-.074-.074-.03Z" style="fill: #632121;" />
        <path d="M13.825,3.937s.057-.07-.013-.061c-.096.013-.909.131-1.049.261-.144.131-.5.287-.579.318,0,0-.035.052.004.061.039.013.47-.261.587-.335.113-.065,1.023-.2,1.049-.244Z" style="fill: #632121;" />
        <path d="M10.544,4.842s-1.162-.583-.692-1.327c.47-.744,1.475-.209,1.654.048s.579.766.579.766c0,0-.361.783-1.54.513Z" style="fill: #8e2e29;" />
        <path d="M10.205,4.05s.84.853,1.849.474c0,0,.039-.157-.122-.057-.692.413-1.745-.509-1.745-.509,0,0-.113-.009.017.091Z" style="fill: #632121;" />
        <path d="M10.418,3.519s-.078-.057.013-.07.953.461,1.131.688c.174.226.431.292.431.292l-.026.044s-.326-.152-.47-.305c-.144-.165-.722-.553-1.079-.648Z" style="fill: #632121;" />
        <path d="M10.413,3.776s-.091.013-.035.057c.078.057.757.518.953.518.191,0,.566.126.644.157,0,0,.057-.013.039-.048-.017-.035-.522-.126-.657-.152-.135-.026-.892-.544-.944-.531Z" style="fill: #632121;" />
        <path d="M11.279,4.564s-1.018.3-.923,1.136c.1.835,1.07,1.105,1.623.418.548-.688.722-1.253.261-1.571.004.004-.431-.278-.962.017Z" style="fill: #99463a;" />
        <path d="M11.388,6.039s1.01-.64.862-1.701c0,0-.139-.065-.083.109.257.766-.866,1.593-.866,1.593,0,0-.044.104.087,0Z" style="fill: #87372e;" />
        <path d="M10.77,5.591s-.078.061-.065-.035c.013-.096.709-.783.979-.888.261-.104.4-.335.4-.335l.035.044s-.235.27-.422.366c-.191.091-.731.54-.927.849Z" style="fill: #87372e;" />
        <path d="M10.94,5.869s-.013.091.044.048c.074-.057.722-.566.783-.748s.292-.5.344-.566c0,0,.004-.061-.035-.052-.039.009-.283.461-.348.583-.061.117-.783.679-.788.735Z" style="fill: #87372e;" />
        <path
            d="M12.037,4.024c-.022,0-.048.009-.061.026-.017.017-.044.022-.061-.044-.013-.044-.065-.074-.091-.039-.022.039-.026.078-.074.083-.048.004-.048.078,0,.131s.039.104-.013.126c-.052.022-.096.139-.052.187.044.048.044.131.022.152-.017.017-.004.1.039.096.048-.004.122.026.104.078-.017.052.117.091.152.065.039-.026.161-.004.161.022s.104.144.183.052c.078-.1.022-.126.091-.126s.2-.009.183-.061-.009-.061.035-.091.017-.091-.022-.109c-.044-.017.131-.035.1-.109-.035-.074-.078-.074-.052-.126.022-.052-.009-.131-.065-.117s-.065-.035-.017-.096.009-.139-.022-.122c-.039.017-.135.083-.126.035.004-.052.104-.196,0-.157-.104.048-.135.157-.161.157-.022-.004-.057-.117-.126-.104-.07.026-.057.091-.126.091Z"
            style="fill: #edd6ce;"
        />
        <path d="M11.884,4.316s-.161.244.061.396c.222.157.596.161.583-.239-.013-.405-.396-.457-.644-.157Z" style="fill: #c16130;" />
        <path d="M8.999,4.285s-.235-.278-.548-.07c-.313.2-.357.618-.074.775.278.157.701.126.709-.178,0-.318.117-.27-.087-.527Z" style="fill: none; stroke: #a4a0cb; stroke-miterlimit: 10; stroke-width: 0.51px;" />
        <path d="M9.722,4.729c.305-.009.492-.374.426-.679-.004-.009-.004-.022-.009-.035-.144-.583-.796-.396-.953-.222-.161.174-.527.287-.457.709.061.352.627.244.992.226Z" style="fill: #99463a;" />
        <path d="M9.308,5.887s.631.096.648-.474-.339-.748-.775-.822c-.435-.07-.448.218-.448.218,0,0-.039.94.574,1.079Z" style="fill: #8e2e29;" />
        <path d="M8.203,6.048s-.601-.052-.622-.383c-.013-.331.135-.326.231-.54.048-.109.405-.548.67-.561.274-.009.374.718.383.97.009.248-.261.896-.661.513Z" style="fill: #943b35;" />
        <path d="M8.551,5.712s.331-.622-.057-1.118c0,0-.096.004-.009.078.352.313.017,1.066.017,1.066,0,0,.017.07.048-.026Z" style="fill: #6d2525;" />
        <path d="M7.968,5.582s-.039.057-.048-.009.305-.635.457-.753.191-.287.191-.287l.026.017s-.1.218-.2.313c-.1.096-.361.483-.426.718Z" style="fill: #6d2525;" />
        <path d="M8.199,5.704s.013.061.039.017c.035-.057.305-.531.296-.657-.009-.131.057-.383.07-.431,0,0-.013-.039-.035-.022-.017.013-.057.352-.065.448-.013.078-.318.609-.305.644Z" style="fill: #6d2525;" />
        <path d="M9.587,3.85s-.67.2-.762.827c0,0,.07.061.065-.048-.022-.474.748-.766.748-.766,0,0,.03-.048-.052-.013Z" style="fill: #87372e;" />
        <path d="M9.813,4.355s.065-.004.022.044-.688.165-.875.122c-.183-.044-.348.035-.348.035l-.004-.035s.231-.061.37-.044c.144.017.609-.022.835-.122Z" style="fill: #87372e;" />
        <path d="M9.73,4.146s.035-.052-.013-.039c-.061.013-.592.157-.679.252-.083.1-.309.231-.357.252,0,0-.017.039.009.044.026.004.292-.209.361-.261.074-.057.666-.213.679-.248Z" style="fill: #87372e;" />
        <path d="M9.582,5.229s-.344-.618-.975-.561c0,0-.044.078.061.052.457-.126.909.561.909.561,0,0,.061.022.004-.052Z" style="fill: #632121;" />
        <path d="M9.347,5.543s.057.017.039-.022c-.026-.057-.283-.54-.396-.605-.113-.061-.292-.252-.331-.292,0,0-.039-.009-.039.013s.27.239.339.296c.07.061.352.601.387.609Z" style="fill: #632121;" />
        <path d="M8.059,3.672s.113-.857.688-.722c.57.131.453.883.331,1.053-.122.17-.357.531-.357.531,0,0-.57-.057-.661-.862Z" style="fill: #8e2e29;" />
        <path d="M8.486,3.289s-.352.714.104,1.271c0,0,.104-.009.009-.091-.413-.344-.061-1.21-.061-1.21,0,0-.013-.074-.052.03Z" style="fill: #632121;" />
        <path d="M8.873,3.306s.017-.065.048-.009c.026.057-.078.701-.183.862s-.091.339-.091.339l-.035-.009s.022-.239.091-.361c.065-.126.183-.579.17-.822Z" style="fill: #632121;" />
        <path d="M8.708,3.358s-.026-.052-.044-.009c-.017.061-.161.587-.117.714.044.122.044.383.044.435,0,0,.022.035.039.013.017-.017-.035-.357-.048-.448s.144-.679.126-.705Z" style="fill: #632121;" />
        <path d="M8.399,4.076s-.409-.579-.918-.335-.461.914.091,1.114c.548.196.949.183,1.049-.174-.009-.004.078-.335-.222-.605Z" style="fill: #99463a;" />
        <path d="M7.494,4.464s.627.5,1.262.17c0,0,.009-.104-.083-.026-.426.331-1.192-.196-1.192-.196,0,0-.087-.004.013.052Z" style="fill: #87372e;" />
        <path d="M7.642,3.976s-.057-.039.004-.048c.061-.009.648.278.775.422.126.144.296.178.296.178l-.017.026s-.222-.091-.318-.187c-.109-.096-.5-.335-.74-.392Z" style="fill: #87372e;" />
        <path d="M7.502,4.146s-.061.009-.017.039c.052.039.513.335.64.331.131-.004.374.074.426.096,0,0,.039-.009.022-.035s-.352-.074-.444-.091c-.078-.017-.592-.352-.627-.339Z" style="fill: #87372e;" />
        <path
            d="M8.899,4.433c-.004-.013-.017-.026-.026-.035-.013-.009-.022-.022.013-.048.022-.017.035-.057.004-.065-.026-.004-.057,0-.07-.026s-.061-.013-.083.026c-.022.044-.057.048-.083.017-.022-.026-.109-.026-.131.009-.017.039-.074.057-.091.048s-.065.017-.052.048.009.083-.026.078c-.039,0-.035.096-.009.109.022.017.039.1.017.109-.013.004-.07.096.009.126.078.026.083-.013.1.026.013.044.052.126.074.104s.039-.017.061,0,.061-.009.061-.039c0-.026.052.074.091.039.044-.039.026-.065.065-.061s.078-.035.061-.065c-.017-.035.004-.048.052-.035.048.013.091-.022.07-.044-.017-.017-.083-.065-.048-.074.039-.009.152.022.1-.035s-.126-.052-.131-.065.061-.061.039-.104c-.013-.022-.052.004-.07-.044Z"
            style="fill: #edd6ce;"
        />
        <path d="M8.69,4.403s-.187-.048-.235.122c-.052.174.026.413.278.313.244-.091.196-.344-.044-.435Z" style="fill: #c16130;" />
        <path d="M16.928,4.189s-.218-.252-.509-.065c-.292.187-.331.57-.07.709.252.144.644.117.653-.165.013-.287.117-.239-.074-.479Z" style="fill: none; stroke: #a4a0cb; stroke-miterlimit: 10; stroke-width: 0.469px;" />
        <path d="M17.593,4.603c.283-.009.453-.348.396-.622,0-.009-.004-.017-.009-.035-.131-.535-.727-.361-.879-.2-.144.161-.483.261-.418.648.057.322.574.218.909.209Z" style="fill: #99463a;" />
        <path d="M17.21,5.665s.583.083.596-.435c.013-.522-.309-.688-.714-.753s-.413.196-.413.196c0,0-.03.862.531.992Z" style="fill: #8e2e29;" />
        <path d="M16.201,5.813s-.553-.048-.57-.352c-.013-.3.126-.3.213-.5.044-.1.37-.509.622-.513.248-.009.344.657.348.892-.004.235-.248.827-.614.474Z" style="fill: #943b35;" />
        <path d="M16.519,5.508s.305-.57-.052-1.031c0,0-.083.004-.009.07.326.292.017.983.017.983,0,0,.017.061.044-.022Z" style="fill: #6d2525;" />
        <path d="M15.983,5.382s-.035.052-.044-.009c-.009-.057.283-.583.418-.692s.178-.261.178-.261l.026.017s-.091.196-.187.287c-.096.091-.331.444-.392.657Z" style="fill: #6d2525;" />
        <path d="M16.197,5.495s.013.057.035.013c.026-.052.278-.487.274-.605-.004-.117.052-.348.065-.4,0,0-.013-.035-.035-.022-.017.013-.052.326-.061.409-.013.091-.292.574-.278.605Z" style="fill: #6d2525;" />
        <path d="M17.472,3.793s-.622.183-.701.757c0,0,.065.057.061-.044-.022-.435.688-.701.688-.701,0,0,.03-.048-.048-.013Z" style="fill: #87372e;" />
        <path d="M17.676,4.255s.061-.004.022.039-.631.152-.805.109-.318.026-.318.026l-.004-.035s.213-.057.339-.039c.131.026.553-.009.766-.1Z" style="fill: #87372e;" />
        <path d="M17.606,4.068s.026-.048-.013-.039c-.057.013-.54.139-.622.231-.078.091-.287.213-.331.235,0,0-.013.035.004.039s.27-.191.335-.244c.065-.052.614-.196.627-.222Z" style="fill: #87372e;" />
        <path d="M17.463,5.06s-.313-.566-.892-.513c0,0-.044.074.057.048.418-.117.835.513.835.513,0,0,.052.022,0-.048Z" style="fill: #632121;" />
        <path d="M17.25,5.347s.052.017.035-.017c-.026-.052-.257-.5-.361-.553-.104-.057-.27-.231-.3-.27,0,0-.039-.009-.039.013s.244.222.309.274.322.548.357.553Z" style="fill: #632121;" />
        <path d="M16.07,3.628s.104-.783.631-.661c.522.122.413.814.3.97s-.331.487-.331.487c0,0-.522-.057-.601-.796Z" style="fill: #8e2e29;" />
        <path d="M16.458,3.276s-.326.657.096,1.166c0,0,.096-.009.009-.078-.383-.318-.057-1.11-.057-1.11,0,0-.013-.074-.048.022Z" style="fill: #632121;" />
        <path d="M16.81,3.293s.017-.057.044-.009c.026.052-.074.644-.17.788-.096.144-.078.309-.078.309l-.035-.009s.017-.218.078-.335c.07-.104.178-.518.161-.744Z" style="fill: #632121;" />
        <path d="M16.662,3.337s-.022-.052-.039-.004c-.013.057-.144.54-.109.653.039.113.039.352.039.405,0,0,.017.026.039.013.013-.017-.035-.331-.048-.413-.017-.083.135-.622.117-.653Z" style="fill: #632121;" />
        <path d="M16.375,4.002s-.374-.531-.84-.305-.426.84.083,1.018c.509.183.87.17.962-.161-.004,0,.074-.309-.205-.553Z" style="fill: #99463a;" />
        <path d="M15.548,4.355s.574.457,1.157.161c0,0,.009-.096-.078-.026-.392.3-1.097-.183-1.097-.183,0,0-.074,0,.017.048Z" style="fill: #87372e;" />
        <path d="M15.679,3.911s-.052-.035.004-.048c.057-.013.596.252.709.392.113.131.274.165.274.165l-.017.026s-.2-.078-.296-.174c-.096-.091-.453-.309-.674-.361Z" style="fill: #87372e;" />
        <path d="M15.557,4.063s-.057.009-.017.035c.052.035.47.305.587.305s.348.07.396.083c0,0,.035-.009.022-.026-.009-.017-.326-.07-.405-.083-.083-.013-.553-.322-.583-.313Z" style="fill: #87372e;" />
        <path
            d="M16.841,4.329c-.004-.013-.013-.022-.026-.035-.013-.009-.022-.017.009-.044.022-.013.026-.052.004-.061-.022-.004-.052,0-.061-.022-.013-.022-.057-.009-.074.022-.017.039-.052.044-.074.017s-.1-.026-.117.009-.065.052-.083.044c-.013-.009-.061.017-.048.044.013.022.009.074-.022.074-.035,0-.026.083-.004.1.022.013.035.096.017.1-.013.004-.065.091.009.117s.078-.009.091.026c.009.039.048.113.07.096s.035-.017.057,0,.057-.009.057-.035.048.07.083.039c.039-.035.026-.061.061-.057s.074-.035.057-.061c-.017-.035.004-.048.052-.026.044.013.083-.022.065-.039s-.074-.061-.044-.065c.035-.004.135.017.091-.035s-.117-.048-.122-.061c-.004-.013.057-.057.035-.096-.03-.03-.07-.009-.083-.052Z"
            style="fill: #edd6ce;"
        />
        <path d="M16.64,4.298s-.174-.044-.218.113c-.048.161.022.374.257.292.231-.087.183-.322-.039-.405Z" style="fill: #c16130;" />
        <path d="M4.556,21.474s3.277-.814,7.371-.883c0,0,5.069.057,7.358.923l.013-.257s-2.868-.87-7.376-.866c0,0-3.816.091-7.376.901l.009.183Z" style="fill: #fff; opacity: 0.3;" />
        <path d="M4.404,19.059s3.255-1.075,7.559-.962c0,0,4.573.083,7.472.87,0,0,.017-.135-.039-.248,0,0-4.556-.901-7.428-.827,0,0-3.755-.213-7.563.996-.004,0-.004.139,0,.17Z" style="fill: #fff; opacity: 0.3;" />
    </g>
    <g fill="#000000">
        <g transform="translate(437.04166666667,301.04166666667) scale(2.9183333333333)"><rect width="6" height="6" /></g>
        <g transform="translate(471.04166666667,301.04166666667) scale(2.9183333333333)"><rect width="6" height="6" /></g>
        <g transform="translate(556.04166666667,301.04166666667) scale(2.9183333333333)"><rect width="6" height="6" /></g>
        <g transform="translate(573.04166666667,301.04166666667) scale(2.9183333333333)"><rect width="6" height="6" /></g>
        <g transform="translate(454.04166666667,318.04166666667) scale(2.9183333333333)"><rect width="6" height="6" /></g>
        <g transform="translate(505.04166666667,318.04166666667) scale(2.9183333333333)"><rect width="6" height="6" /></g>
        <g transform="translate(488.04166666667,335.04166666667) scale(2.9183333333333)"><rect width="6" height="6" /></g>
        <g transform="translate(539.04166666667,335.04166666667) scale(2.9183333333333)"><rect width="6" height="6" /></g>
        <g transform="translate(573.04166666667,335.04166666667) scale(2.9183333333333)"><rect width="6" height="6" /></g>
        <g transform="translate(454.04166666667,352.04166666667) scale(2.9183333333333)"><rect width="6" height="6" /></g>
        <g transform="translate(505.04166666667,352.04166666667) scale(2.9183333333333)"><rect width="6" height="6" /></g>
        <g transform="translate(437.04166666667,369.04166666667) scale(2.9183333333333)"><rect width="6" height="6" /></g>
        <g transform="translate(454.04166666667,369.04166666667) scale(2.9183333333333)"><rect width="6" height="6" /></g>
        <g transform="translate(522.04166666667,369.04166666667) scale(2.9183333333333)"><rect width="6" height="6" /></g>
        <g transform="translate(539.04166666667,369.04166666667) scale(2.9183333333333)"><rect width="6" height="6" /></g>
        <g transform="translate(556.04166666667,369.04166666667) scale(2.9183333333333)"><rect width="6" height="6" /></g>
        <g transform="translate(437.04166666667,386.04166666667) scale(2.9183333333333)"><rect width="6" height="6" /></g>
        <g transform="translate(454.04166666667,386.04166666667) scale(2.9183333333333)"><rect width="6" height="6" /></g>
        <g transform="translate(471.04166666667,386.04166666667) scale(2.9183333333333)"><rect width="6" height="6" /></g>
        <g transform="translate(505.04166666667,386.04166666667) scale(2.9183333333333)"><rect width="6" height="6" /></g>
        <g transform="translate(522.04166666667,386.04166666667) scale(2.9183333333333)"><rect width="6" height="6" /></g>
        <g transform="translate(539.04166666667,386.04166666667) scale(2.9183333333333)"><rect width="6" height="6" /></g>
        <g transform="translate(556.04166666667,386.04166666667) scale(2.9183333333333)"><rect width="6" height="6" /></g>
        <g transform="translate(573.04166666667,386.04166666667) scale(2.9183333333333)"><rect width="6" height="6" /></g>
        <g transform="translate(437.04166666667,403.04166666667) scale(2.9183333333333)"><rect width="6" height="6" /></g>
        <g transform="translate(471.04166666667,403.04166666667) scale(2.9183333333333)"><rect width="6" height="6" /></g>
        <g transform="translate(505.04166666667,403.04166666667) scale(2.9183333333333)"><rect width="6" height="6" /></g>
        <g transform="translate(539.04166666667,403.04166666667) scale(2.9183333333333)"><rect width="6" height="6" /></g>
        <g transform="translate(573.04166666667,403.04166666667) scale(2.9183333333333)"><rect width="6" height="6" /></g>
        <g transform="translate(454.04166666667,420.04166666667) scale(2.9183333333333)"><rect width="6" height="6" /></g>
        <g transform="translate(488.04166666667,420.04166666667) scale(2.9183333333333)"><rect width="6" height="6" /></g>
        <g transform="translate(522.04166666667,420.04166666667) scale(2.9183333333333)"><rect width="6" height="6" /></g>
        <g transform="translate(556.04166666667,420.04166666667) scale(2.9183333333333)"><rect width="6" height="6" /></g>
        <g transform="translate(573.04166666667,420.04166666667) scale(2.9183333333333)"><rect width="6" height="6" /></g>
        <g transform="translate(318.04166666667,437.04166666667) scale(2.9183333333333)"><rect width="6" height="6" /></g>
        <g transform="translate(335.04166666667,437.04166666667) scale(2.9183333333333)"><rect width="6" height="6" /></g>
        <g transform="translate(352.04166666667,437.04166666667) scale(2.9183333333333)"><rect width="6" height="6" /></g>
        <g transform="translate(369.04166666667,437.04166666667) scale(2.9183333333333)"><rect width="6" height="6" /></g>
        <g transform="translate(386.04166666667,437.04166666667) scale(2.9183333333333)"><rect width="6" height="6" /></g>
        <g transform="translate(403.04166666667,437.04166666667) scale(2.9183333333333)"><rect width="6" height="6" /></g>
        <g transform="translate(420.04166666667,437.04166666667) scale(2.9183333333333)"><rect width="6" height="6" /></g>
        <g transform="translate(454.04166666667,437.04166666667) scale(2.9183333333333)"><rect width="6" height="6" /></g>
        <g transform="translate(488.04166666667,437.04166666667) scale(2.9183333333333)"><rect width="6" height="6" /></g>
        <g transform="translate(505.04166666667,437.04166666667) scale(2.9183333333333)"><rect width="6" height="6" /></g>
        <g transform="translate(539.04166666667,437.04166666667) scale(2.9183333333333)"><rect width="6" height="6" /></g>
        <g transform="translate(624.04166666667,437.04166666667) scale(2.9183333333333)"><rect width="6" height="6" /></g>
        <g transform="translate(641.04166666667,437.04166666667) scale(2.9183333333333)"><rect width="6" height="6" /></g>
        <g transform="translate(709.04166666667,437.04166666667) scale(2.9183333333333)"><rect width="6" height="6" /></g>
        <g transform="translate(352.04166666667,454.04166666667) scale(2.9183333333333)"><rect width="6" height="6" /></g>
        <g transform="translate(369.04166666667,454.04166666667) scale(2.9183333333333)"><rect width="6" height="6" /></g>
        <g transform="translate(386.04166666667,454.04166666667) scale(2.9183333333333)"><rect width="6" height="6" /></g>
        <g transform="translate(437.04166666667,454.04166666667) scale(2.9183333333333)"><rect width="6" height="6" /></g>
        <g transform="translate(488.04166666667,454.04166666667) scale(2.9183333333333)"><rect width="6" height="6" /></g>
        <g transform="translate(573.04166666667,454.04166666667) scale(2.9183333333333)"><rect width="6" height="6" /></g>
        <g transform="translate(590.04166666667,454.04166666667) scale(2.9183333333333)"><rect width="6" height="6" /></g>
        <g transform="translate(692.04166666667,454.04166666667) scale(2.9183333333333)"><rect width="6" height="6" /></g>
        <g transform="translate(301.04166666667,471.04166666667) scale(2.9183333333333)"><rect width="6" height="6" /></g>
        <g transform="translate(318.04166666667,471.04166666667) scale(2.9183333333333)"><rect width="6" height="6" /></g>
        <g transform="translate(335.04166666667,471.04166666667) scale(2.9183333333333)"><rect width="6" height="6" /></g>
        <g transform="translate(369.04166666667,471.04166666667) scale(2.9183333333333)"><rect width="6" height="6" /></g>
        <g transform="translate(386.04166666667,471.04166666667) scale(2.9183333333333)"><rect width="6" height="6" /></g>
        <g transform="translate(403.04166666667,471.04166666667) scale(2.9183333333333)"><rect width="6" height="6" /></g>
        <g transform="translate(420.04166666667,471.04166666667) scale(2.9183333333333)"><rect width="6" height="6" /></g>
        <g transform="translate(454.04166666667,471.04166666667) scale(2.9183333333333)"><rect width="6" height="6" /></g>
        <g transform="translate(488.04166666667,471.04166666667) scale(2.9183333333333)"><rect width="6" height="6" /></g>
        <g transform="translate(556.04166666667,471.04166666667) scale(2.9183333333333)"><rect width="6" height="6" /></g>
        <g transform="translate(573.04166666667,471.04166666667) scale(2.9183333333333)"><rect width="6" height="6" /></g>
        <g transform="translate(590.04166666667,471.04166666667) scale(2.9183333333333)"><rect width="6" height="6" /></g>
        <g transform="translate(607.04166666667,471.04166666667) scale(2.9183333333333)"><rect width="6" height="6" /></g>
        <g transform="translate(624.04166666667,471.04166666667) scale(2.9183333333333)"><rect width="6" height="6" /></g>
        <g transform="translate(641.04166666667,471.04166666667) scale(2.9183333333333)"><rect width="6" height="6" /></g>
        <g transform="translate(658.04166666667,471.04166666667) scale(2.9183333333333)"><rect width="6" height="6" /></g>
        <g transform="translate(692.04166666667,471.04166666667) scale(2.9183333333333)"><rect width="6" height="6" /></g>
        <g transform="translate(709.04166666667,471.04166666667) scale(2.9183333333333)"><rect width="6" height="6" /></g>
        <g transform="translate(301.04166666667,488.04166666667) scale(2.9183333333333)"><rect width="6" height="6" /></g>
        <g transform="translate(335.04166666667,488.04166666667) scale(2.9183333333333)"><rect width="6" height="6" /></g>
        <g transform="translate(369.04166666667,488.04166666667) scale(2.9183333333333)"><rect width="6" height="6" /></g>
        <g transform="translate(437.04166666667,488.04166666667) scale(2.9183333333333)"><rect width="6" height="6" /></g>
        <g transform="translate(454.04166666667,488.04166666667) scale(2.9183333333333)"><rect width="6" height="6" /></g>
        <g transform="translate(488.04166666667,488.04166666667) scale(2.9183333333333)"><rect width="6" height="6" /></g>
        <g transform="translate(539.04166666667,488.04166666667) scale(2.9183333333333)"><rect width="6" height="6" /></g>
        <g transform="translate(573.04166666667,488.04166666667) scale(2.9183333333333)"><rect width="6" height="6" /></g>
        <g transform="translate(607.04166666667,488.04166666667) scale(2.9183333333333)"><rect width="6" height="6" /></g>
        <g transform="translate(709.04166666667,488.04166666667) scale(2.9183333333333)"><rect width="6" height="6" /></g>
        <g transform="translate(403.04166666667,505.04166666667) scale(2.9183333333333)"><rect width="6" height="6" /></g>
        <g transform="translate(420.04166666667,505.04166666667) scale(2.9183333333333)"><rect width="6" height="6" /></g>
        <g transform="translate(454.04166666667,505.04166666667) scale(2.9183333333333)"><rect width="6" height="6" /></g>
        <g transform="translate(471.04166666667,505.04166666667) scale(2.9183333333333)"><rect width="6" height="6" /></g>
        <g transform="translate(590.04166666667,505.04166666667) scale(2.9183333333333)"><rect width="6" height="6" /></g>
        <g transform="translate(607.04166666667,505.04166666667) scale(2.9183333333333)"><rect width="6" height="6" /></g>
        <g transform="translate(624.04166666667,505.04166666667) scale(2.9183333333333)"><rect width="6" height="6" /></g>
        <g transform="translate(641.04166666667,505.04166666667) scale(2.9183333333333)"><rect width="6" height="6" /></g>
        <g transform="translate(675.04166666667,505.04166666667) scale(2.9183333333333)"><rect width="6" height="6" /></g>
        <g transform="translate(692.04166666667,505.04166666667) scale(2.9183333333333)"><rect width="6" height="6" /></g>
        <g transform="translate(709.04166666667,505.04166666667) scale(2.9183333333333)"><rect width="6" height="6" /></g>
        <g transform="translate(301.04166666667,522.04166666667) scale(2.9183333333333)"><rect width="6" height="6" /></g>
        <g transform="translate(318.04166666667,522.04166666667) scale(2.9183333333333)"><rect width="6" height="6" /></g>
        <g transform="translate(335.04166666667,522.04166666667) scale(2.9183333333333)"><rect width="6" height="6" /></g>
        <g transform="translate(352.04166666667,522.04166666667) scale(2.9183333333333)"><rect width="6" height="6" /></g>
        <g transform="translate(369.04166666667,522.04166666667) scale(2.9183333333333)"><rect width="6" height="6" /></g>
        <g transform="translate(420.04166666667,522.04166666667) scale(2.9183333333333)"><rect width="6" height="6" /></g>
        <g transform="translate(471.04166666667,522.04166666667) scale(2.9183333333333)"><rect width="6" height="6" /></g>
        <g transform="translate(488.04166666667,522.04166666667) scale(2.9183333333333)"><rect width="6" height="6" /></g>
        <g transform="translate(505.04166666667,522.04166666667) scale(2.9183333333333)"><rect width="6" height="6" /></g>
        <g transform="translate(539.04166666667,522.04166666667) scale(2.9183333333333)"><rect width="6" height="6" /></g>
        <g transform="translate(573.04166666667,522.04166666667) scale(2.9183333333333)"><rect width="6" height="6" /></g>
        <g transform="translate(590.04166666667,522.04166666667) scale(2.9183333333333)"><rect width="6" height="6" /></g>
        <g transform="translate(658.04166666667,522.04166666667) scale(2.9183333333333)"><rect width="6" height="6" /></g>
        <g transform="translate(692.04166666667,522.04166666667) scale(2.9183333333333)"><rect width="6" height="6" /></g>
        <g transform="translate(301.04166666667,539.04166666667) scale(2.9183333333333)"><rect width="6" height="6" /></g>
        <g transform="translate(335.04166666667,539.04166666667) scale(2.9183333333333)"><rect width="6" height="6" /></g>
        <g transform="translate(386.04166666667,539.04166666667) scale(2.9183333333333)"><rect width="6" height="6" /></g>
        <g transform="translate(403.04166666667,539.04166666667) scale(2.9183333333333)"><rect width="6" height="6" /></g>
        <g transform="translate(454.04166666667,539.04166666667) scale(2.9183333333333)"><rect width="6" height="6" /></g>
        <g transform="translate(471.04166666667,539.04166666667) scale(2.9183333333333)"><rect width="6" height="6" /></g>
        <g transform="translate(556.04166666667,539.04166666667) scale(2.9183333333333)"><rect width="6" height="6" /></g>
        <g transform="translate(573.04166666667,539.04166666667) scale(2.9183333333333)"><rect width="6" height="6" /></g>
        <g transform="translate(607.04166666667,539.04166666667) scale(2.9183333333333)"><rect width="6" height="6" /></g>
        <g transform="translate(624.04166666667,539.04166666667) scale(2.9183333333333)"><rect width="6" height="6" /></g>
        <g transform="translate(641.04166666667,539.04166666667) scale(2.9183333333333)"><rect width="6" height="6" /></g>
        <g transform="translate(658.04166666667,539.04166666667) scale(2.9183333333333)"><rect width="6" height="6" /></g>
        <g transform="translate(692.04166666667,539.04166666667) scale(2.9183333333333)"><rect width="6" height="6" /></g>
        <g transform="translate(709.04166666667,539.04166666667) scale(2.9183333333333)"><rect width="6" height="6" /></g>
        <g transform="translate(301.04166666667,556.04166666667) scale(2.9183333333333)"><rect width="6" height="6" /></g>
        <g transform="translate(335.04166666667,556.04166666667) scale(2.9183333333333)"><rect width="6" height="6" /></g>
        <g transform="translate(386.04166666667,556.04166666667) scale(2.9183333333333)"><rect width="6" height="6" /></g>
        <g transform="translate(420.04166666667,556.04166666667) scale(2.9183333333333)"><rect width="6" height="6" /></g>
        <g transform="translate(437.04166666667,556.04166666667) scale(2.9183333333333)"><rect width="6" height="6" /></g>
        <g transform="translate(454.04166666667,556.04166666667) scale(2.9183333333333)"><rect width="6" height="6" /></g>
        <g transform="translate(488.04166666667,556.04166666667) scale(2.9183333333333)"><rect width="6" height="6" /></g>
        <g transform="translate(539.04166666667,556.04166666667) scale(2.9183333333333)"><rect width="6" height="6" /></g>
        <g transform="translate(590.04166666667,556.04166666667) scale(2.9183333333333)"><rect width="6" height="6" /></g>
        <g transform="translate(607.04166666667,556.04166666667) scale(2.9183333333333)"><rect width="6" height="6" /></g>
        <g transform="translate(624.04166666667,556.04166666667) scale(2.9183333333333)"><rect width="6" height="6" /></g>
        <g transform="translate(641.04166666667,556.04166666667) scale(2.9183333333333)"><rect width="6" height="6" /></g>
        <g transform="translate(709.04166666667,556.04166666667) scale(2.9183333333333)"><rect width="6" height="6" /></g>
        <g transform="translate(301.04166666667,573.04166666667) scale(2.9183333333333)"><rect width="6" height="6" /></g>
        <g transform="translate(352.04166666667,573.04166666667) scale(2.9183333333333)"><rect width="6" height="6" /></g>
        <g transform="translate(369.04166666667,573.04166666667) scale(2.9183333333333)"><rect width="6" height="6" /></g>
        <g transform="translate(386.04166666667,573.04166666667) scale(2.9183333333333)"><rect width="6" height="6" /></g>
        <g transform="translate(403.04166666667,573.04166666667) scale(2.9183333333333)"><rect width="6" height="6" /></g>
        <g transform="translate(454.04166666667,573.04166666667) scale(2.9183333333333)"><rect width="6" height="6" /></g>
        <g transform="translate(471.04166666667,573.04166666667) scale(2.9183333333333)"><rect width="6" height="6" /></g>
        <g transform="translate(488.04166666667,573.04166666667) scale(2.9183333333333)"><rect width="6" height="6" /></g>
        <g transform="translate(505.04166666667,573.04166666667) scale(2.9183333333333)"><rect width="6" height="6" /></g>
        <g transform="translate(522.04166666667,573.04166666667) scale(2.9183333333333)"><rect width="6" height="6" /></g>
        <g transform="translate(556.04166666667,573.04166666667) scale(2.9183333333333)"><rect width="6" height="6" /></g>
        <g transform="translate(573.04166666667,573.04166666667) scale(2.9183333333333)"><rect width="6" height="6" /></g>
        <g transform="translate(590.04166666667,573.04166666667) scale(2.9183333333333)"><rect width="6" height="6" /></g>
        <g transform="translate(607.04166666667,573.04166666667) scale(2.9183333333333)"><rect width="6" height="6" /></g>
        <g transform="translate(624.04166666667,573.04166666667) scale(2.9183333333333)"><rect width="6" height="6" /></g>
        <g transform="translate(641.04166666667,573.04166666667) scale(2.9183333333333)"><rect width="6" height="6" /></g>
        <g transform="translate(675.04166666667,573.04166666667) scale(2.9183333333333)"><rect width="6" height="6" /></g>
        <g transform="translate(437.04166666667,590.04166666667) scale(2.9183333333333)"><rect width="6" height="6" /></g>
        <g transform="translate(471.04166666667,590.04166666667) scale(2.9183333333333)"><rect width="6" height="6" /></g>
        <g transform="translate(488.04166666667,590.04166666667) scale(2.9183333333333)"><rect width="6" height="6" /></g>
        <g transform="translate(505.04166666667,590.04166666667) scale(2.9183333333333)"><rect width="6" height="6" /></g>
        <g transform="translate(556.04166666667,590.04166666667) scale(2.9183333333333)"><rect width="6" height="6" /></g>
        <g transform="translate(573.04166666667,590.04166666667) scale(2.9183333333333)"><rect width="6" height="6" /></g>
        <g transform="translate(641.04166666667,590.04166666667) scale(2.9183333333333)"><rect width="6" height="6" /></g>
        <g transform="translate(658.04166666667,590.04166666667) scale(2.9183333333333)"><rect width="6" height="6" /></g>
        <g transform="translate(437.04166666667,607.04166666667) scale(2.9183333333333)"><rect width="6" height="6" /></g>
        <g transform="translate(454.04166666667,607.04166666667) scale(2.9183333333333)"><rect width="6" height="6" /></g>
        <g transform="translate(471.04166666667,607.04166666667) scale(2.9183333333333)"><rect width="6" height="6" /></g>
        <g transform="translate(488.04166666667,607.04166666667) scale(2.9183333333333)"><rect width="6" height="6" /></g>
        <g transform="translate(573.04166666667,607.04166666667) scale(2.9183333333333)"><rect width="6" height="6" /></g>
        <g transform="translate(607.04166666667,607.04166666667) scale(2.9183333333333)"><rect width="6" height="6" /></g>
        <g transform="translate(641.04166666667,607.04166666667) scale(2.9183333333333)"><rect width="6" height="6" /></g>
        <g transform="translate(675.04166666667,607.04166666667) scale(2.9183333333333)"><rect width="6" height="6" /></g>
        <g transform="translate(692.04166666667,607.04166666667) scale(2.9183333333333)"><rect width="6" height="6" /></g>
        <g transform="translate(709.04166666667,607.04166666667) scale(2.9183333333333)"><rect width="6" height="6" /></g>
        <g transform="translate(437.04166666667,624.04166666667) scale(2.9183333333333)"><rect width="6" height="6" /></g>
        <g transform="translate(454.04166666667,624.04166666667) scale(2.9183333333333)"><rect width="6" height="6" /></g>
        <g transform="translate(488.04166666667,624.04166666667) scale(2.9183333333333)"><rect width="6" height="6" /></g>
        <g transform="translate(539.04166666667,624.04166666667) scale(2.9183333333333)"><rect width="6" height="6" /></g>
        <g transform="translate(573.04166666667,624.04166666667) scale(2.9183333333333)"><rect width="6" height="6" /></g>
        <g transform="translate(641.04166666667,624.04166666667) scale(2.9183333333333)"><rect width="6" height="6" /></g>
        <g transform="translate(658.04166666667,624.04166666667) scale(2.9183333333333)"><rect width="6" height="6" /></g>
        <g transform="translate(709.04166666667,624.04166666667) scale(2.9183333333333)"><rect width="6" height="6" /></g>
        <g transform="translate(437.04166666667,641.04166666667) scale(2.9183333333333)"><rect width="6" height="6" /></g>
        <g transform="translate(454.04166666667,641.04166666667) scale(2.9183333333333)"><rect width="6" height="6" /></g>
        <g transform="translate(471.04166666667,641.04166666667) scale(2.9183333333333)"><rect width="6" height="6" /></g>
        <g transform="translate(505.04166666667,641.04166666667) scale(2.9183333333333)"><rect width="6" height="6" /></g>
        <g transform="translate(522.04166666667,641.04166666667) scale(2.9183333333333)"><rect width="6" height="6" /></g>
        <g transform="translate(539.04166666667,641.04166666667) scale(2.9183333333333)"><rect width="6" height="6" /></g>
        <g transform="translate(556.04166666667,641.04166666667) scale(2.9183333333333)"><rect width="6" height="6" /></g>
        <g transform="translate(573.04166666667,641.04166666667) scale(2.9183333333333)"><rect width="6" height="6" /></g>
        <g transform="translate(590.04166666667,641.04166666667) scale(2.9183333333333)"><rect width="6" height="6" /></g>
        <g transform="translate(607.04166666667,641.04166666667) scale(2.9183333333333)"><rect width="6" height="6" /></g>
        <g transform="translate(624.04166666667,641.04166666667) scale(2.9183333333333)"><rect width="6" height="6" /></g>
        <g transform="translate(641.04166666667,641.04166666667) scale(2.9183333333333)"><rect width="6" height="6" /></g>
        <g transform="translate(675.04166666667,641.04166666667) scale(2.9183333333333)"><rect width="6" height="6" /></g>
        <g transform="translate(709.04166666667,641.04166666667) scale(2.9183333333333)"><rect width="6" height="6" /></g>
        <g transform="translate(437.04166666667,658.04166666667) scale(2.9183333333333)"><rect width="6" height="6" /></g>
        <g transform="translate(454.04166666667,658.04166666667) scale(2.9183333333333)"><rect width="6" height="6" /></g>
        <g transform="translate(522.04166666667,658.04166666667) scale(2.9183333333333)"><rect width="6" height="6" /></g>
        <g transform="translate(539.04166666667,658.04166666667) scale(2.9183333333333)"><rect width="6" height="6" /></g>
        <g transform="translate(556.04166666667,658.04166666667) scale(2.9183333333333)"><rect width="6" height="6" /></g>
        <g transform="translate(573.04166666667,658.04166666667) scale(2.9183333333333)"><rect width="6" height="6" /></g>
        <g transform="translate(590.04166666667,658.04166666667) scale(2.9183333333333)"><rect width="6" height="6" /></g>
        <g transform="translate(607.04166666667,658.04166666667) scale(2.9183333333333)"><rect width="6" height="6" /></g>
        <g transform="translate(641.04166666667,658.04166666667) scale(2.9183333333333)"><rect width="6" height="6" /></g>
        <g transform="translate(658.04166666667,658.04166666667) scale(2.9183333333333)"><rect width="6" height="6" /></g>
        <g transform="translate(675.04166666667,658.04166666667) scale(2.9183333333333)"><rect width="6" height="6" /></g>
        <g transform="translate(692.04166666667,658.04166666667) scale(2.9183333333333)"><rect width="6" height="6" /></g>
        <g transform="translate(709.04166666667,658.04166666667) scale(2.9183333333333)"><rect width="6" height="6" /></g>
        <g transform="translate(437.04166666667,675.04166666667) scale(2.9183333333333)"><rect width="6" height="6" /></g>
        <g transform="translate(454.04166666667,675.04166666667) scale(2.9183333333333)"><rect width="6" height="6" /></g>
        <g transform="translate(539.04166666667,675.04166666667) scale(2.9183333333333)"><rect width="6" height="6" /></g>
        <g transform="translate(573.04166666667,675.04166666667) scale(2.9183333333333)"><rect width="6" height="6" /></g>
        <g transform="translate(590.04166666667,675.04166666667) scale(2.9183333333333)"><rect width="6" height="6" /></g>
        <g transform="translate(658.04166666667,675.04166666667) scale(2.9183333333333)"><rect width="6" height="6" /></g>
        <g transform="translate(675.04166666667,675.04166666667) scale(2.9183333333333)"><rect width="6" height="6" /></g>
        <g transform="translate(709.04166666667,675.04166666667) scale(2.9183333333333)"><rect width="6" height="6" /></g>
        <g transform="translate(437.04166666667,692.04166666667) scale(2.9183333333333)"><rect width="6" height="6" /></g>
        <g transform="translate(454.04166666667,692.04166666667) scale(2.9183333333333)"><rect width="6" height="6" /></g>
        <g transform="translate(471.04166666667,692.04166666667) scale(2.9183333333333)"><rect width="6" height="6" /></g>
        <g transform="translate(522.04166666667,692.04166666667) scale(2.9183333333333)"><rect width="6" height="6" /></g>
        <g transform="translate(556.04166666667,692.04166666667) scale(2.9183333333333)"><rect width="6" height="6" /></g>
        <g transform="translate(573.04166666667,692.04166666667) scale(2.9183333333333)"><rect width="6" height="6" /></g>
        <g transform="translate(607.04166666667,692.04166666667) scale(2.9183333333333)"><rect width="6" height="6" /></g>
        <g transform="translate(624.04166666667,692.04166666667) scale(2.9183333333333)"><rect width="6" height="6" /></g>
        <g transform="translate(641.04166666667,692.04166666667) scale(2.9183333333333)"><rect width="6" height="6" /></g>
        <g transform="translate(658.04166666667,692.04166666667) scale(2.9183333333333)"><rect width="6" height="6" /></g>
        <g transform="translate(709.04166666667,692.04166666667) scale(2.9183333333333)"><rect width="6" height="6" /></g>
        <g transform="translate(454.04166666667,709.04166666667) scale(2.9183333333333)"><rect width="6" height="6" /></g>
        <g transform="translate(505.04166666667,709.04166666667) scale(2.9183333333333)"><rect width="6" height="6" /></g>
        <g transform="translate(522.04166666667,709.04166666667) scale(2.9183333333333)"><rect width="6" height="6" /></g>
        <g transform="translate(556.04166666667,709.04166666667) scale(2.9183333333333)"><rect width="6" height="6" /></g>
        <g transform="translate(624.04166666667,709.04166666667) scale(2.9183333333333)"><rect width="6" height="6" /></g>
        <g transform="translate(641.04166666667,709.04166666667) scale(2.9183333333333)"><rect width="6" height="6" /></g>
        <g transform="translate(658.04166666667,709.04166666667) scale(2.9183333333333)"><rect width="6" height="6" /></g>
        <g transform="translate(675.04166666667,709.04166666667) scale(2.9183333333333)"><rect width="6" height="6" /></g>
        <g transform="translate(692.04166666667,709.04166666667) scale(2.9183333333333)"><rect width="6" height="6" /></g>
        <g transform="translate(709.04166666667,709.04166666667) scale(2.9183333333333)"><rect width="6" height="6" /></g>
        <g transform="translate(301.04166666667,301.04166666667)">
            <g transform="scale(8.5)"><path d="M0,0v14h14V0H0z M12,12H2V2h10V12z" /></g>
        </g>
        <g transform="translate(607.04166666667,301.04166666667)">
            <g transform="scale(8.5)"><path d="M0,0v14h14V0H0z M12,12H2V2h10V12z" /></g>
        </g>
        <g transform="translate(301.04166666667,607.04166666667)">
            <g transform="scale(8.5)"><path d="M0,0v14h14V0H0z M12,12H2V2h10V12z" /></g>
        </g>
        <g transform="translate(335.04166666667,335.04166666667)">
            <g transform="scale(8.5)"><rect width="6" height="6" /></g>
        </g>
        <g transform="translate(641.04166666667,335.04166666667)">
            <g transform="scale(8.5)"><rect width="6" height="6" /></g>
        </g>
        <g transform="translate(335.04166666667,641.04166666667)">
            <g transform="scale(8.5)"><rect width="6" height="6" /></g>
        </g>
    </g>
    <g fill="#d22f0f" transform="scale(42.795138888889)">
        <path
            d="M20.579,6.892c.779-.748,1.105-3.116.818-4.517,0,0-2.158,1.558-4.025,1.836-1.871.283-3.52.653-5.361-.748,0,0-2.119,1.34-4.452,1.057-2.337-.278-2.868-1.458-3.864-1.523-.996-.061-1.184-.627-1.184-.627,0,0-.344,1.462,0,2.493.344,1.031,1.684,2.62,1.432,3.642-.248,1.031-1.497,4.021-1.031,5.513.466,1.497.748,4.639,3.05,5.574,2.302.936,3.455,2.054,4.047,2.337s1.71,1.836,2.18,1.462c.466-.374,2.524-2.089,4.452-2.894,1.932-.809,3.677-2.028,4.452-4.517.779-2.493-.218-5.043-.714-5.918-.487-.866-.583-2.424.2-3.172ZM20.67,15.364c-.627,3.455-3.956,4.547-3.956,4.547-3.198,1.675-4.787,2.929-4.787,2.929-.705-.936-1.288-.901-3.311-2.337-2.028-1.432-3.986-1.401-4.734-4.613s.017-4.7.457-6.301c.435-1.597.209-1.788-.561-3.155-.757-1.371-.888-3.072-.888-3.072,1.414.875,3.799,1.514,5.465,1.684,1.658.165,3.581-.936,3.581-.936,0,0,1.654.866,3.277,1.01,2.515.226,5.84-1.862,5.84-1.862,0,.988-.374,2.511-.374,2.511-.061.962-2.302,1.588-.779,4.674,1.519,3.085.77,4.922.77,4.922Z"
        />
        <path
            d="M19.521,6.143c.831-1.371.727-1.758.727-1.758,0,0-1.684,1.305-4.861,1.245,0,0-2.037.044-3.455-.818,0,0-1.314.918-4.169.796-2.85-.126-3.725-1.14-3.986-1.218,0,0,.048.875.901,1.945.857,1.075.466,3.194.2,3.738-.261.544-1.245,3.368-.5,6.066s3.721,3.259,4.752,3.942c1.04.688,2.202,1.205,2.794,1.889,0,0,1.984-1.497,3.229-1.976s3.738-1.371,4.613-3.925,0-4.63-.583-5.583c-.579-.962-.496-2.972.339-4.343ZM19.743,15.529c-.87,3.181-3.925,4.029-3.925,4.029-2.593.936-3.855,2.158-3.855,2.158-1.697-1.497-4.299-2.576-4.299-2.576-3.342-1.327-3.264-3.964-3.264-3.964-.457-2.406.561-4.382.831-5.566s.191-2.737-.292-3.203c-.483-.47-.87-1.54-.87-1.54,3.816,1.98,7.859.235,7.859.235,0,0,1.336.701,3.777.683,2.446-.013,4.19-.918,4.19-.918-.248.87-.405.692-1.175,2.633-.522,1.327.3,3.003.3,3.003,0,0,1.593,1.841.722,5.026Z"
        />
        <path d="M6.323,20.338s-3.333-1.906-6.157.3c0,0,1.388.248,2.037.735,0,0-1.497.457-2.206,2.067,0,0,2.145-.805,3.864-.022,0,0,1.849.927,2.467-.196v-2.885h-.004Z" />
        <path
            d="M.305,22.866s1.48-.409,2.972-.074c.17.039.331.1.487.174.305.144.927.409,1.445.4,0,0,.653.004,1.114-.527v-.218s-.244.505-1.105.601c0,0-.509-.004-1.166-.305-.392-.178-.857-.3-1.284-.357-.64-.083-1.527-.113-2.363.17l-.1.135Z"
        />
        <path d="M.831,20.795s.762-.77,2.667-.757c0,0,1.745.065,2.824.805v.222s-1.157-.644-2.82-.875c0,0-1.136-.135-2.463.666l-.209-.061Z" />
        <path d="M17.728,20.338s3.333-1.906,6.157.3c0,0-1.388.248-2.037.735,0,0,1.497.457,2.206,2.067,0,0-2.145-.805-3.864-.022,0,0-1.849.927-2.467-.196v-2.885h.004Z" />
        <path
            d="M23.746,22.866s-1.48-.409-2.972-.074c-.17.039-.331.1-.487.174-.305.144-.927.409-1.445.4,0,0-.653.004-1.114-.527v-.218s.244.505,1.105.601c0,0,.509-.004,1.166-.305.392-.178.857-.3,1.284-.357.64-.083,1.527-.113,2.363.17l.1.135Z"
        />
        <path d="M23.22,20.795s-.762-.77-2.667-.757c0,0-1.745.065-2.824.805v.222s1.157-.644,2.82-.875c0,0,1.136-.135,2.463.666l.209-.061Z" />
        <path d="M19.264,21.826l-1.536,1.392v-1.762s.779.178,1.536.37Z" style="fill: #fff; opacity: 0.3;" />
        <path d="M4.578,21.826l1.745,1.392v-1.762s-.988.178-1.745.37Z" style="fill: #fff; opacity: 0.3;" />
        <path d="M4.578,21.826s8.586-1.754,14.686,0l.17-2.863c.013-.27-.152-.518-.409-.596-1.453-.466-9.264-1.745-14.229.096-.244.091-.405.335-.387.592l.17,2.772Z" />
        <path d="M8.847,4.298s-.335,1.284-.896,1.671c0,0-.313.313-.4.548,0,0-.696-.226.174-1.453.004.004.487-.54,1.123-.766Z" style="fill: #98a94d;" />
        <path d="M7.794,4.185s-1.749.835-2.541-.444c0,0,.992-.183,1.353-.083.357.1.614.035,1.188.527Z" style="fill: #a0a474;" />
        <path d="M7.119,5.042s-.801,1.488-1.266,1.645c-.466.161-.818.522-.818.522,0,0-.139-.762.5-1.401s1.584-.766,1.584-.766Z" style="fill: #57661f;" />
        <path d="M2.881,6.883s.518-.27,1.166-.357c.648-.096,1.392-1.197,1.392-1.197,0,0-2.119.022-2.559,1.553Z" style="fill: #a0a474;" />
        <path d="M4.226,5.169s-1.136.057-1.497-.896c.004-.004.892-.187,1.497.896Z" style="fill: #98a94d;" />
        <path d="M3.86,4.246s.805-.318,2.485.67c0,0-.949.235-1.458.039-.505-.196-.914-.466-1.027-.709Z" style="fill: #57661f;" />
        <path d="M.914,5.317s.457-.661,1.445-.383c.988.278,1.136.4,1.136.4,0,0-.979.374-1.54.283-.557-.087-1.04-.3-1.04-.3Z" style="fill: #57661f;" />
        <path
            d="M11.336,3.798s.405.113.2.226c-.2.113-1.353-.457-2.585.035-1.231.492-1.284.879-2.106,1.04s-1.562.352-2.459.296-2.241-.052-2.493-.126,2.176-.022,2.863.013c.688.039,2.206-.261,3.142-.87s1.458-.648,2.15-.714c.696-.07,1.288.1,1.288.1Z"
            style="fill: #384610;"
        />
        <path d="M8.795,4.015s-.487.039-.775.117-1.536-.239-1.723-.226-.144.096.135.113c.283.017,1.162.252,1.645.174s.596-.074.596-.074l.122-.104Z" style="fill: #384610;" />
        <path d="M7.085,4.838s-.683.083-1.432-.078c-.748-.165-1.131-.274-1.131-.274,0,0,.292.196,1.323.392,1.027.187,1.236.057,1.236.057l.004-.096Z" style="fill: #384610;" />
        <path d="M5.875,6.082s1.253-.957,1.488-1.262l-.196.052c.009.004-.949.849-1.292,1.21Z" style="fill: #384610;" />
        <path d="M3.847,6.156s.492-.157.696-.3.831-.574,1.245-.596l-.601.083s-.566.387-.757.466c-.196.083-.331.2-.583.348Z" style="fill: #384610;" />
        <path d="M7.737,5.673s.561-.666.701-.87.635-.775,1.01-.94l-.366.07s-.631.727-.857,1.031c-.313.426-.37.513-.487.709Z" style="fill: #384610;" />
        <path d="M3.399,4.642s.748.422.992.518c.244.096.296.187.296.187l-.278-.026s-.383-.274-.566-.37c-.174-.104-.383-.226-.444-.309Z" style="fill: #384610;" />
        <path d="M15.043,4.298s.335,1.284.896,1.671c0,0,.313.313.4.548,0,0,.696-.226-.174-1.453,0,.004-.487-.54-1.123-.766Z" style="fill: #98a94d;" />
        <path d="M16.097,4.185s1.749.835,2.541-.444c0,0-.992-.183-1.353-.083-.357.1-.609.035-1.188.527Z" style="fill: #a0a474;" />
        <path d="M16.775,5.042s.801,1.488,1.266,1.645c.466.161.818.522.818.522,0,0,.139-.762-.5-1.401-.64-.64-1.584-.766-1.584-.766Z" style="fill: #57661f;" />
        <path d="M21.009,6.883s-.518-.27-1.166-.357c-.648-.096-1.392-1.197-1.392-1.197,0,0,2.124.022,2.559,1.553Z" style="fill: #a0a474;" />
        <path d="M19.669,5.169s1.136.057,1.497-.896c0-.004-.888-.187-1.497.896Z" style="fill: #98a94d;" />
        <path d="M20.035,4.246s-.805-.318-2.485.67c0,0,.949.235,1.458.039s.914-.466,1.027-.709Z" style="fill: #57661f;" />
        <path d="M22.985,5.317s-.457-.661-1.445-.383-1.136.405-1.136.405c0,0,.979.37,1.536.283.553-.091,1.044-.305,1.044-.305Z" style="fill: #57661f;" />
        <path
            d="M12.559,3.798s-.405.113-.2.226c.209.117,1.353-.457,2.585.035,1.227.487,1.284.879,2.106,1.04s1.562.352,2.459.296c.896-.057,2.241-.052,2.493-.126.248-.074-2.176-.022-2.863.013-.683.044-2.206-.261-3.142-.87-.936-.605-1.458-.648-2.15-.714-.692-.07-1.288.1-1.288.1Z"
            style="fill: #384610;"
        />
        <path d="M15.096,4.015s.487.039.775.117c.287.078,1.536-.239,1.723-.226.187.013.144.096-.135.113-.283.017-1.162.252-1.645.174-.483-.078-.596-.074-.596-.074l-.122-.104Z" style="fill: #384610;" />
        <path d="M16.806,4.838s.683.083,1.432-.078c.748-.165,1.131-.274,1.131-.274,0,0-.292.196-1.323.392-1.018.187-1.231.057-1.231.057l-.009-.096Z" style="fill: #384610;" />
        <path d="M18.016,6.082s-1.253-.957-1.488-1.262l.196.052s.949.849,1.292,1.21Z" style="fill: #384610;" />
        <path d="M20.048,6.156s-.492-.157-.696-.3c-.2-.144-.831-.574-1.245-.596l.601.083s.566.387.757.466c.191.083.331.2.583.348Z" style="fill: #384610;" />
        <path d="M16.157,5.673s-.561-.666-.701-.87-.635-.775-1.01-.94l.366.07s.631.727.857,1.031c.313.426.37.513.487.709Z" style="fill: #384610;" />
        <path d="M20.492,4.642s-.748.422-.992.518c-.244.096-.296.187-.296.187l.278-.026s.383-.274.566-.37c.178-.104.387-.226.444-.309Z" style="fill: #384610;" />
        <path d="M14.23,3.876s1.288-.144,1.527-1.088.292-1.288.292-1.288c0,0-.592.74-.827,1.192-.235.453-.644.326-.992,1.184Z" style="fill: #a0a474;" />
        <path d="M12.402,2.292s1.48,1.24,1.593,1.627c0,0,.37-.548-.191-1.04-.113-.1-.244-.174-.387-.226-.187-.07-.557-.213-1.014-.361Z" style="fill: #57661f;" />
        <path d="M14.064,4.403s.566-.357,1.78-.013c.788.226,1.018.309,1.018.309,0,0-1.24.035-1.488.091-.244.052-1.292.274-1.31-.387Z" style="fill: #57661f;" />
        <path d="M15.322,3.019s-.331.209-.696.566-.779.957-1.253,1.11-.54.178-.487.078c.048-.1.592-.152.857-.4.261-.252.996-1.005,1.179-1.144.178-.144.4-.209.4-.209Z" style="fill: #384610;" />
        <path d="M13.612,3.01s.457.783.361,1.205l.109-.078s.013-.522-.47-1.127Z" style="fill: #384610;" />
        <path d="M13.66,4.494s.596-.283,1.58-.126c0,0,.37.091.348.152s-.426-.174-1.179-.1c-.748.074-1.044.274-1.044.274l.296-.2Z" style="fill: #384610;" />
        <path d="M9.221,4.181s.226-1.279,1.184-1.458c.957-.178,1.301-.213,1.301-.213,0,0-.775.544-1.24.753s-.37.627-1.245.918Z" style="fill: #a0a474;" />
        <path d="M10.683,6.108s-1.144-1.558-1.519-1.697c0,0,.574-.335,1.027.257.091.117.157.252.2.4.057.191.165.57.292,1.04Z" style="fill: #57661f;" />
        <path d="M8.682,4.311s.396-.54.126-1.775c-.174-.805-.244-1.04-.244-1.04,0,0-.113,1.236-.183,1.48s-.361,1.279.3,1.336Z" style="fill: #57661f;" />
        <path d="M10.139,3.145s-.226.313-.605.657c-.383.344-1.005.718-1.184,1.179-.178.466-.213.527-.109.483s.187-.583.457-.827,1.066-.931,1.218-1.105c.148-.165.222-.387.222-.387Z" style="fill: #384610;" />
        <path d="M10.044,4.855s-.753-.505-1.175-.435l.083-.104s.518.022,1.092.54Z" style="fill: #384610;" />
        <path d="M8.564,4.707s.318-.579.231-1.567c0,0-.065-.374-.126-.357s.144.435.022,1.179c-.122.744-.339,1.027-.339,1.027l.213-.283Z" style="fill: #384610;" />
        <path d="M3.93,11.256s.239,1.275-.592,1.78-1.144.657-1.144.657c0,0,.531-.783.896-1.144.366-.352.126-.709.84-1.292Z" style="fill: #a0a474;" />
        <path d="M1.88,9.973s1.619,1.053,2.023,1.049c0,0-.418.518-1.049.122-.126-.078-.235-.183-.331-.3-.122-.165-.366-.483-.644-.87Z" style="fill: #57661f;" />
        <path d="M4.387,10.939s-.178.644.509,1.706c.448.692.596.883.596.883,0,0-.335-1.197-.352-1.453-.026-.252-.113-1.314-.753-1.136Z" style="fill: #57661f;" />
        <path d="M3.434,12.549s.1-.374.335-.831c.235-.457.688-1.031.692-1.523.004-.5.013-.57-.07-.492-.083.074.035.609-.131.936s-.666,1.249-.748,1.466-.078.444-.078.444Z" style="fill: #384610;" />
        <path d="M2.925,10.913s.883.2,1.253-.009l-.044.126s-.487.17-1.21-.117Z" style="fill: #384610;" />
        <path d="M4.361,10.53s-.096.653.344,1.545c0,0,.196.331.248.287s-.292-.357-.444-1.097-.048-1.075-.048-1.075l-.1.339Z" style="fill: #384610;" />
        <path d="M20.222,10.791s1.245.361,1.314,1.336c.074.975.07,1.323.07,1.323,0,0-.457-.831-.609-1.314-.157-.492-.579-.448-.775-1.345Z" style="fill: #a0a474;" />
        <path d="M18.146,12.031s1.671-.97,1.854-1.332c0,0,.27.605-.366.988-.126.074-.27.126-.418.157-.205.048-.596.117-1.07.187Z" style="fill: #57661f;" />
        <path d="M20.143,10.238s.492.453,1.754.318c.818-.083,1.057-.131,1.057-.131,0,0-1.218-.244-1.453-.344-.239-.091-1.231-.496-1.358.157Z" style="fill: #57661f;" />
        <path d="M21.144,11.813s-.287-.257-.587-.679-.605-1.075-1.049-1.305-.5-.27-.47-.161.561.248.77.54.809,1.162.97,1.332.366.274.366.274Z" style="fill: #384610;" />
        <path d="M19.46,11.53s.583-.696.561-1.123l.096.096s-.078.513-.657,1.027Z" style="fill: #384610;" />
        <path d="M19.765,10.081s.54.374,1.532.396c0,0,.387-.022.37-.091-.013-.065-.453.1-1.175-.104-.722-.2-.983-.448-.983-.448l.257.248Z" style="fill: #384610;" />
        <path d="M14.917,5.813s.531.757.827.4c.296-.352-.113-.718-.474-.783s-.483.222-.352.383Z" style="fill: #f7ecd6;" />
        <path d="M14.769,5.456s-.5-.313-.77-.157c-.278.161-.274.57.035.609.3.048.957-.013.735-.453Z" style="fill: #f7ecd6;" />
        <path d="M15.161,4.655s-.561.022-.522.548.257.757.448.487c.183-.265.509-.866.074-1.036Z" style="fill: #e8dcc4;" />
        <path d="M14.395,6.496s-.244-.679.457-.953c0,0,.409.292.157.914.004,0-.257.487-.614.039Z" style="fill: #e8dcc4;" />
        <path d="M14.826,5.456s.244-.074.283.183c.039.252-.257.392-.418.222-.161-.17-.03-.418.135-.405Z" style="fill: #e8c2a2;" />
        <path d="M20.426,3.65s.531.757.827.4c.296-.352-.113-.718-.474-.783-.357-.07-.483.222-.352.383Z" style="fill: #f7ecd6;" />
        <path d="M20.283,3.293s-.5-.313-.77-.157c-.274.161-.274.57.035.609.296.048.953-.013.735-.453Z" style="fill: #f7ecd6;" />
        <path d="M20.67,2.492s-.561.022-.522.548c.039.527.257.757.448.487.183-.265.509-.862.074-1.036Z" style="fill: #e8dcc4;" />
        <path d="M19.904,4.337s-.244-.679.457-.953c0,0,.409.292.157.914.004-.004-.257.483-.614.039Z" style="fill: #e8dcc4;" />
        <path d="M20.339,3.293s.244-.074.283.183c.039.252-.257.392-.418.222s-.035-.413.135-.405Z" style="fill: #e8c2a2;" />
        <path d="M19.778,8.598s-.2.901.257.883c.461-.017.457-.566.261-.879-.187-.313-.483-.209-.518-.004Z" style="fill: #f7ecd6;" />
        <path d="M19.943,8.249s-.1-.579-.4-.679c-.3-.1-.601.178-.431.431.165.261.653.705.831.248Z" style="fill: #f7ecd6;" />
        <path d="M20.796,8.001s-.392-.4-.757-.017-.392.701-.065.657.988-.2.822-.64Z" style="fill: #e8dcc4;" />
        <path d="M18.916,8.676s.339-.635,1.014-.3c0,0,.057.5-.574.727.004,0-.527.131-.44-.426Z" style="fill: #e8dcc4;" />
        <path d="M19.987,8.293s.222.131.057.335c-.165.196-.461.07-.448-.165.013-.235.283-.305.392-.17Z" style="fill: #e8c2a2;" />
        <path d="M4.234,3.92s.418.592.648.313-.091-.566-.37-.618c-.283-.048-.374.178-.278.305Z" style="fill: #f7ecd6;" />
        <path d="M4.126,3.646s-.392-.244-.605-.122c-.218.122-.213.448.022.479.239.03.748-.013.583-.357Z" style="fill: #f7ecd6;" />
        <path d="M4.43,3.015s-.435.017-.409.431.2.592.348.387c.144-.213.4-.683.061-.818Z" style="fill: #e8dcc4;" />
        <path d="M3.825,4.464s-.191-.531.357-.748c0,0,.318.231.122.714.009,0-.196.383-.479.035Z" style="fill: #e8dcc4;" />
        <path d="M4.165,3.641s.191-.057.222.139c.026.2-.2.305-.331.174-.126-.126-.022-.318.109-.313Z" style="fill: #e8c2a2;" />
        <path d="M5.231,8.41s.483.692.757.366-.104-.657-.431-.718c-.331-.065-.444.205-.326.352Z" style="fill: #f7ecd6;" />
        <path d="M5.1,8.084s-.457-.287-.705-.139c-.252.144-.248.522.026.561.274.035.879-.022.679-.422Z" style="fill: #f7ecd6;" />
        <path d="M5.453,7.349s-.513.022-.474.505c.039.479.235.692.409.448s.466-.792.065-.953Z" style="fill: #e8dcc4;" />
        <path d="M4.757,9.041s-.222-.622.418-.875c0,0,.37.27.144.835,0-.004-.235.444-.561.039Z" style="fill: #e8dcc4;" />
        <path d="M5.152,8.084s.226-.065.257.165c.035.235-.235.357-.387.2-.144-.152-.03-.379.131-.366Z" style="fill: #e8c2a2;" />
        <path d="M6.515,4.942s.413.587.644.309-.091-.553-.366-.609c-.283-.052-.374.174-.278.3Z" style="fill: #f7ecd6;" />
        <path d="M6.41,4.664s-.387-.244-.601-.122c-.213.122-.213.444.022.474.235.035.744-.009.579-.352Z" style="fill: #f7ecd6;" />
        <path d="M6.71,4.046s-.431.017-.405.426c.026.409.2.587.344.383.144-.213.392-.679.061-.809Z" style="fill: #e8dcc4;" />
        <path d="M6.119,5.478s-.187-.527.352-.744c0,0,.313.226.122.709,0,0-.2.379-.474.035Z" style="fill: #e8dcc4;" />
        <path d="M6.449,4.664s.191-.057.222.139c.026.196-.196.3-.326.174-.131-.131-.026-.322.104-.313Z" style="fill: #e8c2a2;" />
        <path d="M3.734,8.989s.431.618.679.331c.239-.292-.096-.587-.387-.644-.296-.057-.4.183-.292.313Z" style="fill: #f7ecd6;" />
        <path d="M3.616,8.698s-.405-.257-.631-.126c-.226.131-.222.466.022.505.248.03.788-.017.609-.379Z" style="fill: #f7ecd6;" />
        <path d="M3.93,8.045s-.457.017-.426.453c.035.431.213.622.361.4.157-.222.418-.714.065-.853Z" style="fill: #e8dcc4;" />
        <path d="M3.307,9.555s-.196-.553.37-.779c0,0,.335.239.126.748.004-.004-.2.392-.496.03Z" style="fill: #e8dcc4;" />
        <path d="M3.664,8.698s.2-.061.231.152c.026.209-.213.318-.344.183-.135-.144-.03-.344.113-.335Z" style="fill: #e8c2a2;" />
        <path d="M14.708,3.85s-.601.635-.218.844c.387.209.648-.239.644-.587,0-.348-.296-.405-.426-.257Z" style="fill: #e9837b;" />
        <path d="M15.017,3.65s.196-.522,0-.748-.579-.144-.566.144c.013.292.196.892.566.605Z" style="fill: #e9837b;" />
        <path d="M15.835,3.859s-.126-.518-.609-.383-.657.383-.37.509c.283.122.896.309.979-.126Z" style="fill: #efa19c;" />
        <path d="M13.973,3.493s.583-.352.975.244c0,0-.196.431-.822.318,0,.004-.5-.144-.152-.561Z" style="fill: #efa19c;" />
        <path d="M15.03,3.702s.117.218-.117.296c-.231.083-.413-.165-.287-.348.126-.183.379-.109.405.052Z" style="fill: #e16967;" />
        <path d="M4.321,10.499s-.709.753-.257.996.762-.283.757-.692c-.009-.413-.357-.483-.5-.305Z" style="fill: #e9837b;" />
        <path d="M4.678,10.264s.235-.618,0-.883c-.235-.27-.683-.17-.661.17.017.335.231,1.049.661.714Z" style="fill: #e9837b;" />
        <path d="M5.64,10.508s-.152-.605-.718-.453c-.57.161-.775.453-.435.596.331.148,1.062.37,1.153-.144Z" style="fill: #efa19c;" />
        <path d="M3.451,10.081s.688-.418,1.149.287c0,0-.231.513-.962.374-.009,0-.596-.174-.187-.661Z" style="fill: #efa19c;" />
        <path d="M4.691,10.325s.135.252-.135.352-.483-.196-.339-.409c.148-.213.448-.135.474.057Z" style="fill: #e16967;" />
        <path d="M19.151,10.251s-.657.583-.292.822.666-.183.692-.531-.257-.431-.4-.292Z" style="fill: #e9837b;" />
        <path d="M19.473,10.077s.244-.505.065-.748c-.178-.244-.566-.196-.574.096-.009.287.117.905.509.653Z" style="fill: #e9837b;" />
        <path d="M20.27,10.356s-.078-.527-.574-.431c-.492.096-.688.326-.413.47.27.152.87.392.988-.039Z" style="fill: #efa19c;" />
        <path d="M18.446,9.829s.618-.3.949.331c0,0-.235.413-.844.244,0,.004-.483-.187-.104-.574Z" style="fill: #efa19c;" />
        <path d="M19.482,10.134s.096.226-.139.287c-.235.061-.396-.2-.252-.37.139-.178.383-.083.392.083Z" style="fill: #e16967;" />
        <path d="M11.867,3.815s-.509.2-.37.748c.135.544.701.809,1.062.487.357-.318.527-.931.091-1.097-.44-.165-.313-.305-.783-.139Z" style="fill: none; stroke: #a4a0cb; stroke-miterlimit: 10; stroke-width: 0.766px;" />
        <path d="M12.859,3.01c.135-.435-.292-.883-.748-.94-.017,0-.035-.004-.052-.004-.896-.083-.949.936-.783,1.245.165.309.152.888.779.992.527.083.64-.77.805-1.292Z" style="fill: #99463a;" />
        <path d="M14.295,4.163s.444-.853-.357-1.157c-.801-.305-1.227.113-1.545.701s.091.744.091.744c0,0,1.305.513,1.81-.287Z" style="fill: #8e2e29;" />
        <path d="M13.982,5.808s-.37.831-.844.692-.396-.352-.653-.592c-.131-.122-.583-.84-.466-1.227.122-.387,1.205-.183,1.562-.065.357.113,1.144.805.4,1.192Z" style="fill: #943b35;" />
        <path d="M13.681,5.142s-.718-.77-1.619-.47c0,0-.039.135.104.057.622-.348,1.523.492,1.523.492,0,0,.104.017-.009-.078Z" style="fill: #6d2525;" />
        <path d="M13.207,5.908s.057.078-.039.065c-.096-.013-.753-.748-.844-1.018-.096-.274-.313-.418-.313-.418l.044-.035s.257.248.344.444c.087.196.509.753.809.962Z" style="fill: #6d2525;" />
        <path d="M13.494,5.643s.091.009.044-.048c-.061-.074-.601-.692-.788-.74-.187-.048-.513-.261-.583-.309,0,0-.061,0-.052.039.009.039.474.252.601.309.117.061.722.753.779.748Z" style="fill: #6d2525;" />
        <path d="M11.545,2.771s-.048,1.053.801,1.48c0,0,.122-.07-.035-.113-.688-.196-.718-1.432-.718-1.432,0,0-.061-.083-.048.065Z" style="fill: #87372e;" />
        <path d="M12.367,2.693s.022-.096.07-.013c.048.083-.109,1.053-.257,1.297-.152.244-.126.509-.126.509l-.052-.013s.026-.357.126-.544c.1-.187.265-.862.239-1.236Z" style="fill: #87372e;" />
        <path d="M12.037,2.706s-.057-.07-.061,0c-.009.1-.07.914.026,1.079.1.17.174.548.187.635,0,0,.044.044.061.009s-.152-.518-.196-.644c-.052-.131.017-1.044-.017-1.079Z" style="fill: #87372e;" />
        <path d="M13.494,3.45s-1.04.187-1.271,1.105c0,0,.096.104.104-.061.044-.709,1.24-1.014,1.24-1.014,0,0,.065-.074-.074-.03Z" style="fill: #632121;" />
        <path d="M13.825,3.937s.057-.07-.013-.061c-.096.013-.909.131-1.049.261-.144.131-.5.287-.579.318,0,0-.035.052.004.061.039.013.47-.261.587-.335.113-.065,1.023-.2,1.049-.244Z" style="fill: #632121;" />
        <path d="M10.544,4.842s-1.162-.583-.692-1.327c.47-.744,1.475-.209,1.654.048s.579.766.579.766c0,0-.361.783-1.54.513Z" style="fill: #8e2e29;" />
        <path d="M10.205,4.05s.84.853,1.849.474c0,0,.039-.157-.122-.057-.692.413-1.745-.509-1.745-.509,0,0-.113-.009.017.091Z" style="fill: #632121;" />
        <path d="M10.418,3.519s-.078-.057.013-.07.953.461,1.131.688c.174.226.431.292.431.292l-.026.044s-.326-.152-.47-.305c-.144-.165-.722-.553-1.079-.648Z" style="fill: #632121;" />
        <path d="M10.413,3.776s-.091.013-.035.057c.078.057.757.518.953.518.191,0,.566.126.644.157,0,0,.057-.013.039-.048-.017-.035-.522-.126-.657-.152-.135-.026-.892-.544-.944-.531Z" style="fill: #632121;" />
        <path d="M11.279,4.564s-1.018.3-.923,1.136c.1.835,1.07,1.105,1.623.418.548-.688.722-1.253.261-1.571.004.004-.431-.278-.962.017Z" style="fill: #99463a;" />
        <path d="M11.388,6.039s1.01-.64.862-1.701c0,0-.139-.065-.083.109.257.766-.866,1.593-.866,1.593,0,0-.044.104.087,0Z" style="fill: #87372e;" />
        <path d="M10.77,5.591s-.078.061-.065-.035c.013-.096.709-.783.979-.888.261-.104.4-.335.4-.335l.035.044s-.235.27-.422.366c-.191.091-.731.54-.927.849Z" style="fill: #87372e;" />
        <path d="M10.94,5.869s-.013.091.044.048c.074-.057.722-.566.783-.748s.292-.5.344-.566c0,0,.004-.061-.035-.052-.039.009-.283.461-.348.583-.061.117-.783.679-.788.735Z" style="fill: #87372e;" />
        <path
            d="M12.037,4.024c-.022,0-.048.009-.061.026-.017.017-.044.022-.061-.044-.013-.044-.065-.074-.091-.039-.022.039-.026.078-.074.083-.048.004-.048.078,0,.131s.039.104-.013.126c-.052.022-.096.139-.052.187.044.048.044.131.022.152-.017.017-.004.1.039.096.048-.004.122.026.104.078-.017.052.117.091.152.065.039-.026.161-.004.161.022s.104.144.183.052c.078-.1.022-.126.091-.126s.2-.009.183-.061-.009-.061.035-.091.017-.091-.022-.109c-.044-.017.131-.035.1-.109-.035-.074-.078-.074-.052-.126.022-.052-.009-.131-.065-.117s-.065-.035-.017-.096.009-.139-.022-.122c-.039.017-.135.083-.126.035.004-.052.104-.196,0-.157-.104.048-.135.157-.161.157-.022-.004-.057-.117-.126-.104-.07.026-.057.091-.126.091Z"
            style="fill: #edd6ce;"
        />
        <path d="M11.884,4.316s-.161.244.061.396c.222.157.596.161.583-.239-.013-.405-.396-.457-.644-.157Z" style="fill: #c16130;" />
        <path d="M8.999,4.285s-.235-.278-.548-.07c-.313.2-.357.618-.074.775.278.157.701.126.709-.178,0-.318.117-.27-.087-.527Z" style="fill: none; stroke: #a4a0cb; stroke-miterlimit: 10; stroke-width: 0.51px;" />
        <path d="M9.722,4.729c.305-.009.492-.374.426-.679-.004-.009-.004-.022-.009-.035-.144-.583-.796-.396-.953-.222-.161.174-.527.287-.457.709.061.352.627.244.992.226Z" style="fill: #99463a;" />
        <path d="M9.308,5.887s.631.096.648-.474-.339-.748-.775-.822c-.435-.07-.448.218-.448.218,0,0-.039.94.574,1.079Z" style="fill: #8e2e29;" />
        <path d="M8.203,6.048s-.601-.052-.622-.383c-.013-.331.135-.326.231-.54.048-.109.405-.548.67-.561.274-.009.374.718.383.97.009.248-.261.896-.661.513Z" style="fill: #943b35;" />
        <path d="M8.551,5.712s.331-.622-.057-1.118c0,0-.096.004-.009.078.352.313.017,1.066.017,1.066,0,0,.017.07.048-.026Z" style="fill: #6d2525;" />
        <path d="M7.968,5.582s-.039.057-.048-.009.305-.635.457-.753.191-.287.191-.287l.026.017s-.1.218-.2.313c-.1.096-.361.483-.426.718Z" style="fill: #6d2525;" />
        <path d="M8.199,5.704s.013.061.039.017c.035-.057.305-.531.296-.657-.009-.131.057-.383.07-.431,0,0-.013-.039-.035-.022-.017.013-.057.352-.065.448-.013.078-.318.609-.305.644Z" style="fill: #6d2525;" />
        <path d="M9.587,3.85s-.67.2-.762.827c0,0,.07.061.065-.048-.022-.474.748-.766.748-.766,0,0,.03-.048-.052-.013Z" style="fill: #87372e;" />
        <path d="M9.813,4.355s.065-.004.022.044-.688.165-.875.122c-.183-.044-.348.035-.348.035l-.004-.035s.231-.061.37-.044c.144.017.609-.022.835-.122Z" style="fill: #87372e;" />
        <path d="M9.73,4.146s.035-.052-.013-.039c-.061.013-.592.157-.679.252-.083.1-.309.231-.357.252,0,0-.017.039.009.044.026.004.292-.209.361-.261.074-.057.666-.213.679-.248Z" style="fill: #87372e;" />
        <path d="M9.582,5.229s-.344-.618-.975-.561c0,0-.044.078.061.052.457-.126.909.561.909.561,0,0,.061.022.004-.052Z" style="fill: #632121;" />
        <path d="M9.347,5.543s.057.017.039-.022c-.026-.057-.283-.54-.396-.605-.113-.061-.292-.252-.331-.292,0,0-.039-.009-.039.013s.27.239.339.296c.07.061.352.601.387.609Z" style="fill: #632121;" />
        <path d="M8.059,3.672s.113-.857.688-.722c.57.131.453.883.331,1.053-.122.17-.357.531-.357.531,0,0-.57-.057-.661-.862Z" style="fill: #8e2e29;" />
        <path d="M8.486,3.289s-.352.714.104,1.271c0,0,.104-.009.009-.091-.413-.344-.061-1.21-.061-1.21,0,0-.013-.074-.052.03Z" style="fill: #632121;" />
        <path d="M8.873,3.306s.017-.065.048-.009c.026.057-.078.701-.183.862s-.091.339-.091.339l-.035-.009s.022-.239.091-.361c.065-.126.183-.579.17-.822Z" style="fill: #632121;" />
        <path d="M8.708,3.358s-.026-.052-.044-.009c-.017.061-.161.587-.117.714.044.122.044.383.044.435,0,0,.022.035.039.013.017-.017-.035-.357-.048-.448s.144-.679.126-.705Z" style="fill: #632121;" />
        <path d="M8.399,4.076s-.409-.579-.918-.335-.461.914.091,1.114c.548.196.949.183,1.049-.174-.009-.004.078-.335-.222-.605Z" style="fill: #99463a;" />
        <path d="M7.494,4.464s.627.5,1.262.17c0,0,.009-.104-.083-.026-.426.331-1.192-.196-1.192-.196,0,0-.087-.004.013.052Z" style="fill: #87372e;" />
        <path d="M7.642,3.976s-.057-.039.004-.048c.061-.009.648.278.775.422.126.144.296.178.296.178l-.017.026s-.222-.091-.318-.187c-.109-.096-.5-.335-.74-.392Z" style="fill: #87372e;" />
        <path d="M7.502,4.146s-.061.009-.017.039c.052.039.513.335.64.331.131-.004.374.074.426.096,0,0,.039-.009.022-.035s-.352-.074-.444-.091c-.078-.017-.592-.352-.627-.339Z" style="fill: #87372e;" />
        <path
            d="M8.899,4.433c-.004-.013-.017-.026-.026-.035-.013-.009-.022-.022.013-.048.022-.017.035-.057.004-.065-.026-.004-.057,0-.07-.026s-.061-.013-.083.026c-.022.044-.057.048-.083.017-.022-.026-.109-.026-.131.009-.017.039-.074.057-.091.048s-.065.017-.052.048.009.083-.026.078c-.039,0-.035.096-.009.109.022.017.039.1.017.109-.013.004-.07.096.009.126.078.026.083-.013.1.026.013.044.052.126.074.104s.039-.017.061,0,.061-.009.061-.039c0-.026.052.074.091.039.044-.039.026-.065.065-.061s.078-.035.061-.065c-.017-.035.004-.048.052-.035.048.013.091-.022.07-.044-.017-.017-.083-.065-.048-.074.039-.009.152.022.1-.035s-.126-.052-.131-.065.061-.061.039-.104c-.013-.022-.052.004-.07-.044Z"
            style="fill: #edd6ce;"
        />
        <path d="M8.69,4.403s-.187-.048-.235.122c-.052.174.026.413.278.313.244-.091.196-.344-.044-.435Z" style="fill: #c16130;" />
        <path d="M16.928,4.189s-.218-.252-.509-.065c-.292.187-.331.57-.07.709.252.144.644.117.653-.165.013-.287.117-.239-.074-.479Z" style="fill: none; stroke: #a4a0cb; stroke-miterlimit: 10; stroke-width: 0.469px;" />
        <path d="M17.593,4.603c.283-.009.453-.348.396-.622,0-.009-.004-.017-.009-.035-.131-.535-.727-.361-.879-.2-.144.161-.483.261-.418.648.057.322.574.218.909.209Z" style="fill: #99463a;" />
        <path d="M17.21,5.665s.583.083.596-.435c.013-.522-.309-.688-.714-.753s-.413.196-.413.196c0,0-.03.862.531.992Z" style="fill: #8e2e29;" />
        <path d="M16.201,5.813s-.553-.048-.57-.352c-.013-.3.126-.3.213-.5.044-.1.37-.509.622-.513.248-.009.344.657.348.892-.004.235-.248.827-.614.474Z" style="fill: #943b35;" />
        <path d="M16.519,5.508s.305-.57-.052-1.031c0,0-.083.004-.009.07.326.292.017.983.017.983,0,0,.017.061.044-.022Z" style="fill: #6d2525;" />
        <path d="M15.983,5.382s-.035.052-.044-.009c-.009-.057.283-.583.418-.692s.178-.261.178-.261l.026.017s-.091.196-.187.287c-.096.091-.331.444-.392.657Z" style="fill: #6d2525;" />
        <path d="M16.197,5.495s.013.057.035.013c.026-.052.278-.487.274-.605-.004-.117.052-.348.065-.4,0,0-.013-.035-.035-.022-.017.013-.052.326-.061.409-.013.091-.292.574-.278.605Z" style="fill: #6d2525;" />
        <path d="M17.472,3.793s-.622.183-.701.757c0,0,.065.057.061-.044-.022-.435.688-.701.688-.701,0,0,.03-.048-.048-.013Z" style="fill: #87372e;" />
        <path d="M17.676,4.255s.061-.004.022.039-.631.152-.805.109-.318.026-.318.026l-.004-.035s.213-.057.339-.039c.131.026.553-.009.766-.1Z" style="fill: #87372e;" />
        <path d="M17.606,4.068s.026-.048-.013-.039c-.057.013-.54.139-.622.231-.078.091-.287.213-.331.235,0,0-.013.035.004.039s.27-.191.335-.244c.065-.052.614-.196.627-.222Z" style="fill: #87372e;" />
        <path d="M17.463,5.06s-.313-.566-.892-.513c0,0-.044.074.057.048.418-.117.835.513.835.513,0,0,.052.022,0-.048Z" style="fill: #632121;" />
        <path d="M17.25,5.347s.052.017.035-.017c-.026-.052-.257-.5-.361-.553-.104-.057-.27-.231-.3-.27,0,0-.039-.009-.039.013s.244.222.309.274.322.548.357.553Z" style="fill: #632121;" />
        <path d="M16.07,3.628s.104-.783.631-.661c.522.122.413.814.3.97s-.331.487-.331.487c0,0-.522-.057-.601-.796Z" style="fill: #8e2e29;" />
        <path d="M16.458,3.276s-.326.657.096,1.166c0,0,.096-.009.009-.078-.383-.318-.057-1.11-.057-1.11,0,0-.013-.074-.048.022Z" style="fill: #632121;" />
        <path d="M16.81,3.293s.017-.057.044-.009c.026.052-.074.644-.17.788-.096.144-.078.309-.078.309l-.035-.009s.017-.218.078-.335c.07-.104.178-.518.161-.744Z" style="fill: #632121;" />
        <path d="M16.662,3.337s-.022-.052-.039-.004c-.013.057-.144.54-.109.653.039.113.039.352.039.405,0,0,.017.026.039.013.013-.017-.035-.331-.048-.413-.017-.083.135-.622.117-.653Z" style="fill: #632121;" />
        <path d="M16.375,4.002s-.374-.531-.84-.305-.426.84.083,1.018c.509.183.87.17.962-.161-.004,0,.074-.309-.205-.553Z" style="fill: #99463a;" />
        <path d="M15.548,4.355s.574.457,1.157.161c0,0,.009-.096-.078-.026-.392.3-1.097-.183-1.097-.183,0,0-.074,0,.017.048Z" style="fill: #87372e;" />
        <path d="M15.679,3.911s-.052-.035.004-.048c.057-.013.596.252.709.392.113.131.274.165.274.165l-.017.026s-.2-.078-.296-.174c-.096-.091-.453-.309-.674-.361Z" style="fill: #87372e;" />
        <path d="M15.557,4.063s-.057.009-.017.035c.052.035.47.305.587.305s.348.07.396.083c0,0,.035-.009.022-.026-.009-.017-.326-.07-.405-.083-.083-.013-.553-.322-.583-.313Z" style="fill: #87372e;" />
        <path
            d="M16.841,4.329c-.004-.013-.013-.022-.026-.035-.013-.009-.022-.017.009-.044.022-.013.026-.052.004-.061-.022-.004-.052,0-.061-.022-.013-.022-.057-.009-.074.022-.017.039-.052.044-.074.017s-.1-.026-.117.009-.065.052-.083.044c-.013-.009-.061.017-.048.044.013.022.009.074-.022.074-.035,0-.026.083-.004.1.022.013.035.096.017.1-.013.004-.065.091.009.117s.078-.009.091.026c.009.039.048.113.07.096s.035-.017.057,0,.057-.009.057-.035.048.07.083.039c.039-.035.026-.061.061-.057s.074-.035.057-.061c-.017-.035.004-.048.052-.026.044.013.083-.022.065-.039s-.074-.061-.044-.065c.035-.004.135.017.091-.035s-.117-.048-.122-.061c-.004-.013.057-.057.035-.096-.03-.03-.07-.009-.083-.052Z"
            style="fill: #edd6ce;"
        />
        <path d="M16.64,4.298s-.174-.044-.218.113c-.048.161.022.374.257.292.231-.087.183-.322-.039-.405Z" style="fill: #c16130;" />
        <path d="M4.556,21.474s3.277-.814,7.371-.883c0,0,5.069.057,7.358.923l.013-.257s-2.868-.87-7.376-.866c0,0-3.816.091-7.376.901l.009.183Z" style="fill: #fff; opacity: 0.3;" />
        <path d="M4.404,19.059s3.255-1.075,7.559-.962c0,0,4.573.083,7.472.87,0,0,.017-.135-.039-.248,0,0-4.556-.901-7.428-.827,0,0-3.755-.213-7.563.996-.004,0-.004.139,0,.17Z" style="fill: #fff; opacity: 0.3;" />
    </g>
    <g><text fill="#FFFFFF" font-family="Arial, Helvetica, sans-serif" font-size="68.472222222222px" text-anchor="middle" x="513.54166666667" y="-132.00654380342" transform="translate(0,984.28819444444)">SCAN ME</text></g>
    <script xmlns="" />
</svg>
