<svg xmlns="http://www.w3.org/2000/svg" xmlns:xlink="http://www.w3.org/1999/xlink" xml:space="preserve" width="1041.6666666667" height="1231.9791666667" viewBox="0 0 1041.6666666667 1231.9791666667">
    <rect width="100%" height="100%" fill="#ffffff" x="0" y="0" />
    <g transform="scale(43.402777777778)" fill="#000000">
        <path
            d="M13.651,2.881S12.889.236,12.558.039c-.331-.197-.358,1.191-.358,1.191,0,0-1.686-1.09-2.394-1.108-.709-.018.703.795.765.911.063.116-1.796-.182-2.43-.015-.634.167,1.361.766,1.611.905.25.14,4.455,1.807,3.898.958Z"
            style="fill: #005300;"
        />
        <path d="M13.368,2.33s-.608-1.877-.772-1.772c-.165.105-.009,1.26.062,1.436.071.175-1.313-.928-1.692-1.103-.379-.175.336.727.939,1.114.603.386,1.604.574,1.463.326Z" style="fill: #2fc434;" />
        <path d="M10.317,1.363c-.627-.245-2.425-.337-1.833-.119.592.219,3.099.93,3.47,1.165.371.235-.716-.686-1.637-1.046Z" style="fill: #2fc434;" />
        <path
            d="M19.634,20.114c.237-1,.473-1.593,1.263-2.395.088-.118.696-.795,1.412-.795.192,0,.399.027.616.079.535.13.924.558,1.039,1.147.155.79-.193,1.647-.867,2.133-.515.372-1.027.667-1.43.878.055.012.112.025.169.038.982.225,1.242.357,1.358.448.07.054.283.22.226.459-.056.236-.292.281-.464.315-.049.01-.101.019-.138.031-.073.022-.167.041-.265.057.002.025.001.051-.002.078-.017.128-.104.293-.421.351-.198.037-.418.056-.638.056-.422,0-.816-.071-1.108-.2-.521-.229-.856-.837-.864-1.089,0-.006-.001-.015-.002-.026-.047-.512-.008-1.039.117-1.566Z"
            style="fill: #005300;"
        />
        <path
            d="M21.403,17.584s.354-.567,1.454-.301c1.099.266,1.152,1.985.071,2.765-1.081.78-2.163,1.223-2.163,1.223,0,0,1.932.354,2.251.603s-.053.231-.284.301c-.23.071-.762.106-.762.106,0,0,.585.284.106.372-.479.089-1.134.071-1.578-.124-.443-.195-.691-.727-.691-.833s-.45-2.032,1.595-4.113Z"
            style="fill: #20961c;"
        />
        <path d="M21.264,18.009s.393-.839,1.563-.52c1.081.295.896,1.497.369,2.198-.528.701-2.132,1.317-2.156,1.019-.134-1.716.064-2.54.224-2.696Z" style="fill: #2fc434;" />
        <path d="M21.333,21.512s1.116.242,1.459.365c.343.124.086.175-.415.206-.5.031-1.333-.608-1.044-.571Z" style="fill: #2fc434;" />
        <path d="M21.094,22.208c.526.108,1.076.214.882.338-.194.124-.711.136-1.215-.074-.504-.21-.164-.366.333-.264Z" style="fill: #2fc434;" />
        <path d="M21.956,17.712c.375-.143,1.431-.085,1.469.701.038.786-.613-.083-1.035-.045-.422.038-1.059-.417-.434-.656Z" style="fill: #52e34f;" />
        <path
            d="M4.415,20.047c-.243-1.023-.484-1.63-1.292-2.45-.09-.121-.712-.814-1.444-.814-.196,0-.409.027-.63.081-.548.133-.945.571-1.063,1.173-.159.808.198,1.685.887,2.183.527.38,1.051.683,1.463.899-.057.012-.114.025-.172.039-1.005.23-1.27.366-1.389.458-.072.056-.289.225-.231.47.058.241.299.288.475.322.051.01.103.02.141.032.074.023.17.042.271.058-.002.026-.001.053.002.08.018.131.107.299.431.359.202.037.428.057.653.057.432,0,.834-.073,1.134-.204.533-.235.876-.856.883-1.114,0-.006.001-.015.002-.026.049-.524.008-1.063-.12-1.602Z"
            style="fill: #005300;"
        />
        <path
            d="M2.605,17.459s-.363-.58-1.487-.308c-1.124.272-1.179,2.031-.073,2.829,1.106.798,2.213,1.251,2.213,1.251,0,0-1.977.363-2.303.617s.054.236.29.308c.236.072.78.109.78.109,0,0-.599.29-.109.381.49.091,1.161.073,1.614-.127.453-.2.707-.744.707-.852s.46-2.079-1.632-4.208Z"
            style="fill: #20961c;"
        />
        <path d="M2.747,17.894s-.403-.859-1.599-.532c-1.106.302-.917,1.532-.377,2.248.54.717,2.182,1.347,2.206,1.043.137-1.755-.066-2.599-.229-2.759Z" style="fill: #2fc434;" />
        <path d="M2.677,21.478s-1.142.247-1.493.374c-.351.127-.088.179.424.211.512.031,1.364-.622,1.068-.584Z" style="fill: #2fc434;" />
        <path d="M2.922,22.19c-.538.11-1.101.219-.902.346.198.126.727.139,1.243-.076.515-.215.168-.374-.34-.27Z" style="fill: #2fc434;" />
        <path d="M2.039,17.59c-.384-.146-1.464-.087-1.503.717-.039.804.628-.085,1.059-.046.431.039,1.084-.427.444-.671Z" style="fill: #52e34f;" />
        <path
            d="M19.33,2.71H4.722c-1.084,0-1.967.882-1.967,1.967v14.607c0,1.084.882,1.967,1.967,1.967h14.607c1.084,0,1.967-.882,1.967-1.967V4.677c0-1.085-.882-1.967-1.967-1.967ZM19.013,5.882v12.197c0,.49-.399.888-.888.888H5.928c-.49,0-.888-.399-.888-.888V5.882c0-.49.399-.889.888-.889h12.197c.49,0,.888.399.888.889Z"
            style="fill: #005300;"
        />
        <path
            d="M19.33,3.121H4.722c-.859,0-1.556.697-1.556,1.556v14.607c0,.859.696,1.556,1.556,1.556h14.607c.859,0,1.556-.696,1.556-1.556V4.677c0-.859-.697-1.556-1.556-1.556ZM19.424,18.079c0,.718-.582,1.299-1.299,1.299H5.928c-.718,0-1.299-.582-1.299-1.299V5.882c0-.717.582-1.299,1.299-1.299h12.197c.717,0,1.299.582,1.299,1.299v12.197Z"
            style="fill: #2fc434;"
        />
        <path d="M16.071,19.388H7.981c-.356.434-.626.928-.786,1.462h9.662c-.16-.534-.43-1.027-.786-1.462Z" style="fill: #fff; opacity: 0.87;" />
        <path
            d="M16.933,19.979l-.004.008c-.063.17-.128.353-.205.577l-.049.145c-.016.047-.032.093-.05.14-.04.108-.075.194-.111.273-.047.103-.088.185-.13.259-.049.087-.101.167-.152.235-.014.018-.027.035-.041.051-.002.003-.005.006-.007.008h-.01s-.006.015-.006.015l-.01.008c-.03.025-.065.052-.106.08-.073.051-.154.102-.24.15l-.128.07c-.056.031-.11.069-.165.118-.084.075-.159.161-.237.272-.065.093-.121.19-.172.297-.056.117-.095.222-.124.329-.009.033-.016.064-.022.094-.005.028-.011.065-.013.11h0c-.001.024,0,.047,0,.069.002.026.005.055.016.091.006.023.014.043.023.063.006.013.013.025.02.036.004.006.009.013.013.019.006.008.016.02.023.028l.002.003c.005.006.008.009.01.01h0c.006.006.013.012.018.017.006.005.013.01.018.015.006.005.012.009.018.012.019.013.039.023.061.032.036.015.065.022.089.027.027.006.05.008.066.01.043.004.078.005.107.005.07,0,.13-.006.18-.011.102-.011.209-.027.325-.05.022-.004.043-.009.065-.013.039.068.081.126.129.18.076.085.154.145.244.188.056.027.118.045.178.054l.047.005c.01,0,.02.001.031.001.009,0,.018,0,.028,0,.037-.002.074-.008.11-.018.06-.016.116-.042.174-.078.042-.027.08-.057.12-.096.073-.071.124-.141.16-.195.033-.048.064-.1.095-.158.004,0,.007,0,.011.001.094.01.183.014.271.013.053-.001.102-.005.15-.01.045-.006.105-.015.173-.038.037-.012.071-.027.104-.045.044-.024.083-.052.117-.085.043-.041.08-.093.103-.147.012-.028.022-.057.029-.088.003-.015.005-.029.007-.044l.002-.021c0-.009.001-.018.001-.026.001-.067-.008-.134-.028-.206-.015-.053-.035-.105-.062-.16-.041-.082-.089-.159-.156-.248-.05-.066-.105-.13-.174-.202-.003-.003-.005-.006-.008-.008l.197-.348.157-.281.12-.216c.014-.027.028-.055.042-.083.046-.096.086-.202.128-.332.033-.103.063-.21.091-.329.049-.211.087-.425.119-.654.03-.221-1.784.069-1.784.069Z"
            style="fill: #005300;"
        />
        <path
            d="M15.801,22.192c.377-.223.514-.377.514-.377,0,0,.296-.303.462-1.062.148-.676.161-1.079.161-1.079l2.108-.423s-.368.938-.967,1.948l-.599,1.01s.497.428.497.754-.839.154-.839.154c0,0-.223.599-.514.582-.291-.017-.445-.463-.445-.463,0,0-.805.223-.925.103-.12-.12.171-.925.548-1.147Z"
            style="fill: #2fc434;"
        />
        <path d="M20.042,17.742c.242-.296.667.581.435.884-.231.302-.806-.43-.435-.884Z" style="fill: #20961c;" />
        <path d="M19.743,18.684c.178.153-.059.788-.374.908-.315.12-.327-1.511.374-.908Z" style="fill: #20961c;" />
        <path d="M20.172,19.347c.585.076.195.788-.139.982-.334.194-.484-.343-.344-.639.14-.297.27-.371.483-.343Z" style="fill: #20961c;" />
        <path d="M20.033,10.565c-.269.236-.5-.468-.195-.709.391-.308.463.473.195.709Z" style="fill: #20961c;" />
        <path d="M19.764,9.054c-.232-.111.1-.714.332-.565.157.1-.101.677-.332.565Z" style="fill: #20961c;" />
        <path d="M20.552,9.263c.157.052.096.297-.137.343-.233.046-.141-.436.137-.343Z" style="fill: #20961c;" />
        <path
            d="M16.542,21.949c-.234.532-.764.562-1.009.933-.244.372.35.234.616.074.265-.159.308.074.414.457.106.382.382-.244.52-.531.138-.287.361.042.551.095.19.053-.254-.637-.328-.764-.074-.127.803-1.443.803-1.443.294-.742-1.334.647-1.568,1.179Z"
            style="fill: #52e34f;"
        />
        <path
            d="M7.002,19.973l.004.008c.063.17.128.353.205.577l.049.145c.016.047.032.093.05.14.04.108.075.194.111.273.047.103.088.185.13.259.049.087.101.167.152.235.014.018.027.035.041.051.002.003.005.006.007.008h.01s.006.015.006.015l.01.008c.03.025.065.052.106.08.073.051.154.102.24.15l.128.07c.056.031.11.069.165.118.084.075.159.161.237.272.065.093.121.19.172.297.056.117.095.222.124.329.009.033.016.064.022.094.005.028.011.065.013.11h0c.001.024,0,.047,0,.069-.002.026-.005.055-.016.091-.006.023-.014.043-.023.063-.006.013-.013.025-.02.036-.004.006-.009.013-.013.019-.006.008-.016.02-.023.028l-.002.003c-.005.006-.008.009-.01.01h0c-.006.006-.013.012-.018.017-.006.005-.013.01-.018.015-.006.005-.012.009-.018.012-.019.013-.039.023-.061.032-.036.015-.065.022-.089.027-.027.006-.05.008-.066.01-.043.004-.078.005-.107.005-.07,0-.13-.006-.18-.011-.102-.011-.209-.027-.325-.05-.022-.004-.043-.009-.065-.013-.039.068-.081.126-.129.18-.076.085-.154.145-.244.188-.056.027-.118.045-.178.054l-.047.005c-.01,0-.02.001-.031.001-.009,0-.018,0-.028,0-.037-.002-.074-.008-.11-.018-.06-.016-.116-.042-.174-.078-.042-.027-.08-.057-.12-.096-.073-.071-.124-.141-.16-.195-.033-.048-.064-.1-.095-.158-.004,0-.007,0-.011.001-.094.01-.183.014-.271.013-.053-.001-.102-.005-.15-.01-.045-.006-.105-.015-.173-.038-.037-.012-.071-.027-.104-.045-.044-.024-.083-.052-.117-.085-.043-.041-.08-.093-.103-.147-.012-.028-.022-.057-.029-.088-.003-.015-.005-.029-.007-.044l-.002-.021c0-.009-.001-.018-.001-.026-.001-.067.008-.134.028-.206.015-.053.035-.105.062-.16.041-.082.089-.159.156-.248.05-.066.105-.13.174-.202.003-.003.005-.006.008-.008l-.197-.348-.157-.281-.12-.216c-.014-.027-.028-.055-.042-.083-.046-.096-.086-.202-.128-.332-.033-.103-.063-.21-.091-.329-.049-.211-.087-.425-.119-.654-.03-.221,1.784.069,1.784.069Z"
            style="fill: #005300;"
        />
        <path
            d="M8.135,22.186c-.377-.223-.514-.377-.514-.377,0,0-.296-.303-.462-1.062-.148-.676-.161-1.079-.161-1.079l-2.108-.423s.368.938.967,1.948l.599,1.01s-.497.428-.497.754.839.154.839.154c0,0,.223.599.514.582.291-.017.445-.463.445-.463,0,0,.805.223.925.103.12-.12-.171-.925-.548-1.147Z"
            style="fill: #2fc434;"
        />
        <path d="M4.01,17.742c-.242-.296-.667.581-.435.884.231.302.806-.43.435-.884Z" style="fill: #20961c;" />
        <path d="M4.309,18.684c-.178.153.059.788.374.908.315.12.327-1.511-.374-.908Z" style="fill: #20961c;" />
        <path d="M3.88,19.347c-.585.076-.195.788.139.982.334.194.484-.343.344-.639-.14-.297-.27-.371-.483-.343Z" style="fill: #20961c;" />
        <path d="M4.019,10.565c.269.236.5-.468.195-.709-.391-.308-.463.473-.195.709Z" style="fill: #20961c;" />
        <path d="M4.288,9.054c.232-.111-.1-.714-.332-.565-.157.1.101.677.332.565Z" style="fill: #20961c;" />
        <path d="M3.5,9.263c-.157.052-.096.297.137.343.233.046.141-.436-.137-.343Z" style="fill: #20961c;" />
        <path
            d="M7.393,21.943c.234.532.764.562,1.009.933.244.372-.35.234-.616.074-.265-.159-.308.074-.414.457-.106.382-.382-.244-.52-.531-.138-.287-.361.042-.551.095-.19.053.254-.637.328-.764.074-.127-.803-1.443-.803-1.443-.294-.742,1.334.647,1.568,1.179Z"
            style="fill: #52e34f;"
        />
        <path d="M3.167,13.006c.338.158.814.348,1.462.535v-.527c-.793-.25-1.251-.489-1.462-.616v.608Z" style="fill: #005300;" />
        <path d="M20.886,12.542c-.186.121-.625.363-1.462.609v.518c.656-.176,1.13-.358,1.462-.513v-.614Z" style="fill: #005300;" />
    </g>
    <g fill="#000000">
        <g transform="translate(430.83333333333,270.83333333333) scale(3.4333333333333)"><rect width="6" height="6" /></g>
        <g transform="translate(470.83333333333,270.83333333333) scale(3.4333333333333)"><rect width="6" height="6" /></g>
        <g transform="translate(570.83333333333,270.83333333333) scale(3.4333333333333)"><rect width="6" height="6" /></g>
        <g transform="translate(590.83333333333,270.83333333333) scale(3.4333333333333)"><rect width="6" height="6" /></g>
        <g transform="translate(450.83333333333,290.83333333333) scale(3.4333333333333)"><rect width="6" height="6" /></g>
        <g transform="translate(510.83333333333,290.83333333333) scale(3.4333333333333)"><rect width="6" height="6" /></g>
        <g transform="translate(490.83333333333,310.83333333333) scale(3.4333333333333)"><rect width="6" height="6" /></g>
        <g transform="translate(550.83333333333,310.83333333333) scale(3.4333333333333)"><rect width="6" height="6" /></g>
        <g transform="translate(590.83333333333,310.83333333333) scale(3.4333333333333)"><rect width="6" height="6" /></g>
        <g transform="translate(450.83333333333,330.83333333333) scale(3.4333333333333)"><rect width="6" height="6" /></g>
        <g transform="translate(510.83333333333,330.83333333333) scale(3.4333333333333)"><rect width="6" height="6" /></g>
        <g transform="translate(430.83333333333,350.83333333333) scale(3.4333333333333)"><rect width="6" height="6" /></g>
        <g transform="translate(450.83333333333,350.83333333333) scale(3.4333333333333)"><rect width="6" height="6" /></g>
        <g transform="translate(530.83333333333,350.83333333333) scale(3.4333333333333)"><rect width="6" height="6" /></g>
        <g transform="translate(550.83333333333,350.83333333333) scale(3.4333333333333)"><rect width="6" height="6" /></g>
        <g transform="translate(570.83333333333,350.83333333333) scale(3.4333333333333)"><rect width="6" height="6" /></g>
        <g transform="translate(430.83333333333,370.83333333333) scale(3.4333333333333)"><rect width="6" height="6" /></g>
        <g transform="translate(450.83333333333,370.83333333333) scale(3.4333333333333)"><rect width="6" height="6" /></g>
        <g transform="translate(470.83333333333,370.83333333333) scale(3.4333333333333)"><rect width="6" height="6" /></g>
        <g transform="translate(510.83333333333,370.83333333333) scale(3.4333333333333)"><rect width="6" height="6" /></g>
        <g transform="translate(530.83333333333,370.83333333333) scale(3.4333333333333)"><rect width="6" height="6" /></g>
        <g transform="translate(550.83333333333,370.83333333333) scale(3.4333333333333)"><rect width="6" height="6" /></g>
        <g transform="translate(570.83333333333,370.83333333333) scale(3.4333333333333)"><rect width="6" height="6" /></g>
        <g transform="translate(590.83333333333,370.83333333333) scale(3.4333333333333)"><rect width="6" height="6" /></g>
        <g transform="translate(430.83333333333,390.83333333333) scale(3.4333333333333)"><rect width="6" height="6" /></g>
        <g transform="translate(470.83333333333,390.83333333333) scale(3.4333333333333)"><rect width="6" height="6" /></g>
        <g transform="translate(510.83333333333,390.83333333333) scale(3.4333333333333)"><rect width="6" height="6" /></g>
        <g transform="translate(550.83333333333,390.83333333333) scale(3.4333333333333)"><rect width="6" height="6" /></g>
        <g transform="translate(590.83333333333,390.83333333333) scale(3.4333333333333)"><rect width="6" height="6" /></g>
        <g transform="translate(450.83333333333,410.83333333333) scale(3.4333333333333)"><rect width="6" height="6" /></g>
        <g transform="translate(490.83333333333,410.83333333333) scale(3.4333333333333)"><rect width="6" height="6" /></g>
        <g transform="translate(530.83333333333,410.83333333333) scale(3.4333333333333)"><rect width="6" height="6" /></g>
        <g transform="translate(570.83333333333,410.83333333333) scale(3.4333333333333)"><rect width="6" height="6" /></g>
        <g transform="translate(590.83333333333,410.83333333333) scale(3.4333333333333)"><rect width="6" height="6" /></g>
        <g transform="translate(290.83333333333,430.83333333333) scale(3.4333333333333)"><rect width="6" height="6" /></g>
        <g transform="translate(310.83333333333,430.83333333333) scale(3.4333333333333)"><rect width="6" height="6" /></g>
        <g transform="translate(330.83333333333,430.83333333333) scale(3.4333333333333)"><rect width="6" height="6" /></g>
        <g transform="translate(350.83333333333,430.83333333333) scale(3.4333333333333)"><rect width="6" height="6" /></g>
        <g transform="translate(370.83333333333,430.83333333333) scale(3.4333333333333)"><rect width="6" height="6" /></g>
        <g transform="translate(390.83333333333,430.83333333333) scale(3.4333333333333)"><rect width="6" height="6" /></g>
        <g transform="translate(410.83333333333,430.83333333333) scale(3.4333333333333)"><rect width="6" height="6" /></g>
        <g transform="translate(450.83333333333,430.83333333333) scale(3.4333333333333)"><rect width="6" height="6" /></g>
        <g transform="translate(490.83333333333,430.83333333333) scale(3.4333333333333)"><rect width="6" height="6" /></g>
        <g transform="translate(510.83333333333,430.83333333333) scale(3.4333333333333)"><rect width="6" height="6" /></g>
        <g transform="translate(550.83333333333,430.83333333333) scale(3.4333333333333)"><rect width="6" height="6" /></g>
        <g transform="translate(650.83333333333,430.83333333333) scale(3.4333333333333)"><rect width="6" height="6" /></g>
        <g transform="translate(670.83333333333,430.83333333333) scale(3.4333333333333)"><rect width="6" height="6" /></g>
        <g transform="translate(750.83333333333,430.83333333333) scale(3.4333333333333)"><rect width="6" height="6" /></g>
        <g transform="translate(330.83333333333,450.83333333333) scale(3.4333333333333)"><rect width="6" height="6" /></g>
        <g transform="translate(350.83333333333,450.83333333333) scale(3.4333333333333)"><rect width="6" height="6" /></g>
        <g transform="translate(370.83333333333,450.83333333333) scale(3.4333333333333)"><rect width="6" height="6" /></g>
        <g transform="translate(430.83333333333,450.83333333333) scale(3.4333333333333)"><rect width="6" height="6" /></g>
        <g transform="translate(490.83333333333,450.83333333333) scale(3.4333333333333)"><rect width="6" height="6" /></g>
        <g transform="translate(590.83333333333,450.83333333333) scale(3.4333333333333)"><rect width="6" height="6" /></g>
        <g transform="translate(610.83333333333,450.83333333333) scale(3.4333333333333)"><rect width="6" height="6" /></g>
        <g transform="translate(730.83333333333,450.83333333333) scale(3.4333333333333)"><rect width="6" height="6" /></g>
        <g transform="translate(270.83333333333,470.83333333333) scale(3.4333333333333)"><rect width="6" height="6" /></g>
        <g transform="translate(290.83333333333,470.83333333333) scale(3.4333333333333)"><rect width="6" height="6" /></g>
        <g transform="translate(310.83333333333,470.83333333333) scale(3.4333333333333)"><rect width="6" height="6" /></g>
        <g transform="translate(350.83333333333,470.83333333333) scale(3.4333333333333)"><rect width="6" height="6" /></g>
        <g transform="translate(370.83333333333,470.83333333333) scale(3.4333333333333)"><rect width="6" height="6" /></g>
        <g transform="translate(390.83333333333,470.83333333333) scale(3.4333333333333)"><rect width="6" height="6" /></g>
        <g transform="translate(410.83333333333,470.83333333333) scale(3.4333333333333)"><rect width="6" height="6" /></g>
        <g transform="translate(450.83333333333,470.83333333333) scale(3.4333333333333)"><rect width="6" height="6" /></g>
        <g transform="translate(490.83333333333,470.83333333333) scale(3.4333333333333)"><rect width="6" height="6" /></g>
        <g transform="translate(570.83333333333,470.83333333333) scale(3.4333333333333)"><rect width="6" height="6" /></g>
        <g transform="translate(590.83333333333,470.83333333333) scale(3.4333333333333)"><rect width="6" height="6" /></g>
        <g transform="translate(610.83333333333,470.83333333333) scale(3.4333333333333)"><rect width="6" height="6" /></g>
        <g transform="translate(630.83333333333,470.83333333333) scale(3.4333333333333)"><rect width="6" height="6" /></g>
        <g transform="translate(650.83333333333,470.83333333333) scale(3.4333333333333)"><rect width="6" height="6" /></g>
        <g transform="translate(670.83333333333,470.83333333333) scale(3.4333333333333)"><rect width="6" height="6" /></g>
        <g transform="translate(690.83333333333,470.83333333333) scale(3.4333333333333)"><rect width="6" height="6" /></g>
        <g transform="translate(730.83333333333,470.83333333333) scale(3.4333333333333)"><rect width="6" height="6" /></g>
        <g transform="translate(750.83333333333,470.83333333333) scale(3.4333333333333)"><rect width="6" height="6" /></g>
        <g transform="translate(270.83333333333,490.83333333333) scale(3.4333333333333)"><rect width="6" height="6" /></g>
        <g transform="translate(310.83333333333,490.83333333333) scale(3.4333333333333)"><rect width="6" height="6" /></g>
        <g transform="translate(350.83333333333,490.83333333333) scale(3.4333333333333)"><rect width="6" height="6" /></g>
        <g transform="translate(430.83333333333,490.83333333333) scale(3.4333333333333)"><rect width="6" height="6" /></g>
        <g transform="translate(450.83333333333,490.83333333333) scale(3.4333333333333)"><rect width="6" height="6" /></g>
        <g transform="translate(490.83333333333,490.83333333333) scale(3.4333333333333)"><rect width="6" height="6" /></g>
        <g transform="translate(550.83333333333,490.83333333333) scale(3.4333333333333)"><rect width="6" height="6" /></g>
        <g transform="translate(590.83333333333,490.83333333333) scale(3.4333333333333)"><rect width="6" height="6" /></g>
        <g transform="translate(630.83333333333,490.83333333333) scale(3.4333333333333)"><rect width="6" height="6" /></g>
        <g transform="translate(750.83333333333,490.83333333333) scale(3.4333333333333)"><rect width="6" height="6" /></g>
        <g transform="translate(390.83333333333,510.83333333333) scale(3.4333333333333)"><rect width="6" height="6" /></g>
        <g transform="translate(410.83333333333,510.83333333333) scale(3.4333333333333)"><rect width="6" height="6" /></g>
        <g transform="translate(450.83333333333,510.83333333333) scale(3.4333333333333)"><rect width="6" height="6" /></g>
        <g transform="translate(470.83333333333,510.83333333333) scale(3.4333333333333)"><rect width="6" height="6" /></g>
        <g transform="translate(610.83333333333,510.83333333333) scale(3.4333333333333)"><rect width="6" height="6" /></g>
        <g transform="translate(630.83333333333,510.83333333333) scale(3.4333333333333)"><rect width="6" height="6" /></g>
        <g transform="translate(650.83333333333,510.83333333333) scale(3.4333333333333)"><rect width="6" height="6" /></g>
        <g transform="translate(670.83333333333,510.83333333333) scale(3.4333333333333)"><rect width="6" height="6" /></g>
        <g transform="translate(710.83333333333,510.83333333333) scale(3.4333333333333)"><rect width="6" height="6" /></g>
        <g transform="translate(730.83333333333,510.83333333333) scale(3.4333333333333)"><rect width="6" height="6" /></g>
        <g transform="translate(750.83333333333,510.83333333333) scale(3.4333333333333)"><rect width="6" height="6" /></g>
        <g transform="translate(270.83333333333,530.83333333333) scale(3.4333333333333)"><rect width="6" height="6" /></g>
        <g transform="translate(290.83333333333,530.83333333333) scale(3.4333333333333)"><rect width="6" height="6" /></g>
        <g transform="translate(310.83333333333,530.83333333333) scale(3.4333333333333)"><rect width="6" height="6" /></g>
        <g transform="translate(330.83333333333,530.83333333333) scale(3.4333333333333)"><rect width="6" height="6" /></g>
        <g transform="translate(350.83333333333,530.83333333333) scale(3.4333333333333)"><rect width="6" height="6" /></g>
        <g transform="translate(410.83333333333,530.83333333333) scale(3.4333333333333)"><rect width="6" height="6" /></g>
        <g transform="translate(470.83333333333,530.83333333333) scale(3.4333333333333)"><rect width="6" height="6" /></g>
        <g transform="translate(490.83333333333,530.83333333333) scale(3.4333333333333)"><rect width="6" height="6" /></g>
        <g transform="translate(510.83333333333,530.83333333333) scale(3.4333333333333)"><rect width="6" height="6" /></g>
        <g transform="translate(550.83333333333,530.83333333333) scale(3.4333333333333)"><rect width="6" height="6" /></g>
        <g transform="translate(590.83333333333,530.83333333333) scale(3.4333333333333)"><rect width="6" height="6" /></g>
        <g transform="translate(610.83333333333,530.83333333333) scale(3.4333333333333)"><rect width="6" height="6" /></g>
        <g transform="translate(690.83333333333,530.83333333333) scale(3.4333333333333)"><rect width="6" height="6" /></g>
        <g transform="translate(730.83333333333,530.83333333333) scale(3.4333333333333)"><rect width="6" height="6" /></g>
        <g transform="translate(270.83333333333,550.83333333333) scale(3.4333333333333)"><rect width="6" height="6" /></g>
        <g transform="translate(310.83333333333,550.83333333333) scale(3.4333333333333)"><rect width="6" height="6" /></g>
        <g transform="translate(370.83333333333,550.83333333333) scale(3.4333333333333)"><rect width="6" height="6" /></g>
        <g transform="translate(390.83333333333,550.83333333333) scale(3.4333333333333)"><rect width="6" height="6" /></g>
        <g transform="translate(450.83333333333,550.83333333333) scale(3.4333333333333)"><rect width="6" height="6" /></g>
        <g transform="translate(470.83333333333,550.83333333333) scale(3.4333333333333)"><rect width="6" height="6" /></g>
        <g transform="translate(570.83333333333,550.83333333333) scale(3.4333333333333)"><rect width="6" height="6" /></g>
        <g transform="translate(590.83333333333,550.83333333333) scale(3.4333333333333)"><rect width="6" height="6" /></g>
        <g transform="translate(630.83333333333,550.83333333333) scale(3.4333333333333)"><rect width="6" height="6" /></g>
        <g transform="translate(650.83333333333,550.83333333333) scale(3.4333333333333)"><rect width="6" height="6" /></g>
        <g transform="translate(670.83333333333,550.83333333333) scale(3.4333333333333)"><rect width="6" height="6" /></g>
        <g transform="translate(690.83333333333,550.83333333333) scale(3.4333333333333)"><rect width="6" height="6" /></g>
        <g transform="translate(730.83333333333,550.83333333333) scale(3.4333333333333)"><rect width="6" height="6" /></g>
        <g transform="translate(750.83333333333,550.83333333333) scale(3.4333333333333)"><rect width="6" height="6" /></g>
        <g transform="translate(270.83333333333,570.83333333333) scale(3.4333333333333)"><rect width="6" height="6" /></g>
        <g transform="translate(310.83333333333,570.83333333333) scale(3.4333333333333)"><rect width="6" height="6" /></g>
        <g transform="translate(370.83333333333,570.83333333333) scale(3.4333333333333)"><rect width="6" height="6" /></g>
        <g transform="translate(410.83333333333,570.83333333333) scale(3.4333333333333)"><rect width="6" height="6" /></g>
        <g transform="translate(430.83333333333,570.83333333333) scale(3.4333333333333)"><rect width="6" height="6" /></g>
        <g transform="translate(450.83333333333,570.83333333333) scale(3.4333333333333)"><rect width="6" height="6" /></g>
        <g transform="translate(490.83333333333,570.83333333333) scale(3.4333333333333)"><rect width="6" height="6" /></g>
        <g transform="translate(550.83333333333,570.83333333333) scale(3.4333333333333)"><rect width="6" height="6" /></g>
        <g transform="translate(610.83333333333,570.83333333333) scale(3.4333333333333)"><rect width="6" height="6" /></g>
        <g transform="translate(630.83333333333,570.83333333333) scale(3.4333333333333)"><rect width="6" height="6" /></g>
        <g transform="translate(650.83333333333,570.83333333333) scale(3.4333333333333)"><rect width="6" height="6" /></g>
        <g transform="translate(670.83333333333,570.83333333333) scale(3.4333333333333)"><rect width="6" height="6" /></g>
        <g transform="translate(750.83333333333,570.83333333333) scale(3.4333333333333)"><rect width="6" height="6" /></g>
        <g transform="translate(270.83333333333,590.83333333333) scale(3.4333333333333)"><rect width="6" height="6" /></g>
        <g transform="translate(330.83333333333,590.83333333333) scale(3.4333333333333)"><rect width="6" height="6" /></g>
        <g transform="translate(350.83333333333,590.83333333333) scale(3.4333333333333)"><rect width="6" height="6" /></g>
        <g transform="translate(370.83333333333,590.83333333333) scale(3.4333333333333)"><rect width="6" height="6" /></g>
        <g transform="translate(390.83333333333,590.83333333333) scale(3.4333333333333)"><rect width="6" height="6" /></g>
        <g transform="translate(450.83333333333,590.83333333333) scale(3.4333333333333)"><rect width="6" height="6" /></g>
        <g transform="translate(470.83333333333,590.83333333333) scale(3.4333333333333)"><rect width="6" height="6" /></g>
        <g transform="translate(490.83333333333,590.83333333333) scale(3.4333333333333)"><rect width="6" height="6" /></g>
        <g transform="translate(510.83333333333,590.83333333333) scale(3.4333333333333)"><rect width="6" height="6" /></g>
        <g transform="translate(530.83333333333,590.83333333333) scale(3.4333333333333)"><rect width="6" height="6" /></g>
        <g transform="translate(570.83333333333,590.83333333333) scale(3.4333333333333)"><rect width="6" height="6" /></g>
        <g transform="translate(590.83333333333,590.83333333333) scale(3.4333333333333)"><rect width="6" height="6" /></g>
        <g transform="translate(610.83333333333,590.83333333333) scale(3.4333333333333)"><rect width="6" height="6" /></g>
        <g transform="translate(630.83333333333,590.83333333333) scale(3.4333333333333)"><rect width="6" height="6" /></g>
        <g transform="translate(650.83333333333,590.83333333333) scale(3.4333333333333)"><rect width="6" height="6" /></g>
        <g transform="translate(670.83333333333,590.83333333333) scale(3.4333333333333)"><rect width="6" height="6" /></g>
        <g transform="translate(710.83333333333,590.83333333333) scale(3.4333333333333)"><rect width="6" height="6" /></g>
        <g transform="translate(430.83333333333,610.83333333333) scale(3.4333333333333)"><rect width="6" height="6" /></g>
        <g transform="translate(470.83333333333,610.83333333333) scale(3.4333333333333)"><rect width="6" height="6" /></g>
        <g transform="translate(490.83333333333,610.83333333333) scale(3.4333333333333)"><rect width="6" height="6" /></g>
        <g transform="translate(510.83333333333,610.83333333333) scale(3.4333333333333)"><rect width="6" height="6" /></g>
        <g transform="translate(570.83333333333,610.83333333333) scale(3.4333333333333)"><rect width="6" height="6" /></g>
        <g transform="translate(590.83333333333,610.83333333333) scale(3.4333333333333)"><rect width="6" height="6" /></g>
        <g transform="translate(670.83333333333,610.83333333333) scale(3.4333333333333)"><rect width="6" height="6" /></g>
        <g transform="translate(690.83333333333,610.83333333333) scale(3.4333333333333)"><rect width="6" height="6" /></g>
        <g transform="translate(430.83333333333,630.83333333333) scale(3.4333333333333)"><rect width="6" height="6" /></g>
        <g transform="translate(450.83333333333,630.83333333333) scale(3.4333333333333)"><rect width="6" height="6" /></g>
        <g transform="translate(470.83333333333,630.83333333333) scale(3.4333333333333)"><rect width="6" height="6" /></g>
        <g transform="translate(490.83333333333,630.83333333333) scale(3.4333333333333)"><rect width="6" height="6" /></g>
        <g transform="translate(590.83333333333,630.83333333333) scale(3.4333333333333)"><rect width="6" height="6" /></g>
        <g transform="translate(630.83333333333,630.83333333333) scale(3.4333333333333)"><rect width="6" height="6" /></g>
        <g transform="translate(670.83333333333,630.83333333333) scale(3.4333333333333)"><rect width="6" height="6" /></g>
        <g transform="translate(710.83333333333,630.83333333333) scale(3.4333333333333)"><rect width="6" height="6" /></g>
        <g transform="translate(730.83333333333,630.83333333333) scale(3.4333333333333)"><rect width="6" height="6" /></g>
        <g transform="translate(750.83333333333,630.83333333333) scale(3.4333333333333)"><rect width="6" height="6" /></g>
        <g transform="translate(430.83333333333,650.83333333333) scale(3.4333333333333)"><rect width="6" height="6" /></g>
        <g transform="translate(450.83333333333,650.83333333333) scale(3.4333333333333)"><rect width="6" height="6" /></g>
        <g transform="translate(490.83333333333,650.83333333333) scale(3.4333333333333)"><rect width="6" height="6" /></g>
        <g transform="translate(550.83333333333,650.83333333333) scale(3.4333333333333)"><rect width="6" height="6" /></g>
        <g transform="translate(590.83333333333,650.83333333333) scale(3.4333333333333)"><rect width="6" height="6" /></g>
        <g transform="translate(670.83333333333,650.83333333333) scale(3.4333333333333)"><rect width="6" height="6" /></g>
        <g transform="translate(690.83333333333,650.83333333333) scale(3.4333333333333)"><rect width="6" height="6" /></g>
        <g transform="translate(750.83333333333,650.83333333333) scale(3.4333333333333)"><rect width="6" height="6" /></g>
        <g transform="translate(430.83333333333,670.83333333333) scale(3.4333333333333)"><rect width="6" height="6" /></g>
        <g transform="translate(450.83333333333,670.83333333333) scale(3.4333333333333)"><rect width="6" height="6" /></g>
        <g transform="translate(470.83333333333,670.83333333333) scale(3.4333333333333)"><rect width="6" height="6" /></g>
        <g transform="translate(510.83333333333,670.83333333333) scale(3.4333333333333)"><rect width="6" height="6" /></g>
        <g transform="translate(530.83333333333,670.83333333333) scale(3.4333333333333)"><rect width="6" height="6" /></g>
        <g transform="translate(550.83333333333,670.83333333333) scale(3.4333333333333)"><rect width="6" height="6" /></g>
        <g transform="translate(570.83333333333,670.83333333333) scale(3.4333333333333)"><rect width="6" height="6" /></g>
        <g transform="translate(590.83333333333,670.83333333333) scale(3.4333333333333)"><rect width="6" height="6" /></g>
        <g transform="translate(610.83333333333,670.83333333333) scale(3.4333333333333)"><rect width="6" height="6" /></g>
        <g transform="translate(630.83333333333,670.83333333333) scale(3.4333333333333)"><rect width="6" height="6" /></g>
        <g transform="translate(650.83333333333,670.83333333333) scale(3.4333333333333)"><rect width="6" height="6" /></g>
        <g transform="translate(670.83333333333,670.83333333333) scale(3.4333333333333)"><rect width="6" height="6" /></g>
        <g transform="translate(710.83333333333,670.83333333333) scale(3.4333333333333)"><rect width="6" height="6" /></g>
        <g transform="translate(750.83333333333,670.83333333333) scale(3.4333333333333)"><rect width="6" height="6" /></g>
        <g transform="translate(430.83333333333,690.83333333333) scale(3.4333333333333)"><rect width="6" height="6" /></g>
        <g transform="translate(450.83333333333,690.83333333333) scale(3.4333333333333)"><rect width="6" height="6" /></g>
        <g transform="translate(530.83333333333,690.83333333333) scale(3.4333333333333)"><rect width="6" height="6" /></g>
        <g transform="translate(550.83333333333,690.83333333333) scale(3.4333333333333)"><rect width="6" height="6" /></g>
        <g transform="translate(570.83333333333,690.83333333333) scale(3.4333333333333)"><rect width="6" height="6" /></g>
        <g transform="translate(590.83333333333,690.83333333333) scale(3.4333333333333)"><rect width="6" height="6" /></g>
        <g transform="translate(610.83333333333,690.83333333333) scale(3.4333333333333)"><rect width="6" height="6" /></g>
        <g transform="translate(630.83333333333,690.83333333333) scale(3.4333333333333)"><rect width="6" height="6" /></g>
        <g transform="translate(670.83333333333,690.83333333333) scale(3.4333333333333)"><rect width="6" height="6" /></g>
        <g transform="translate(690.83333333333,690.83333333333) scale(3.4333333333333)"><rect width="6" height="6" /></g>
        <g transform="translate(710.83333333333,690.83333333333) scale(3.4333333333333)"><rect width="6" height="6" /></g>
        <g transform="translate(730.83333333333,690.83333333333) scale(3.4333333333333)"><rect width="6" height="6" /></g>
        <g transform="translate(750.83333333333,690.83333333333) scale(3.4333333333333)"><rect width="6" height="6" /></g>
        <g transform="translate(430.83333333333,710.83333333333) scale(3.4333333333333)"><rect width="6" height="6" /></g>
        <g transform="translate(450.83333333333,710.83333333333) scale(3.4333333333333)"><rect width="6" height="6" /></g>
        <g transform="translate(550.83333333333,710.83333333333) scale(3.4333333333333)"><rect width="6" height="6" /></g>
        <g transform="translate(590.83333333333,710.83333333333) scale(3.4333333333333)"><rect width="6" height="6" /></g>
        <g transform="translate(610.83333333333,710.83333333333) scale(3.4333333333333)"><rect width="6" height="6" /></g>
        <g transform="translate(690.83333333333,710.83333333333) scale(3.4333333333333)"><rect width="6" height="6" /></g>
        <g transform="translate(710.83333333333,710.83333333333) scale(3.4333333333333)"><rect width="6" height="6" /></g>
        <g transform="translate(750.83333333333,710.83333333333) scale(3.4333333333333)"><rect width="6" height="6" /></g>
        <g transform="translate(430.83333333333,730.83333333333) scale(3.4333333333333)"><rect width="6" height="6" /></g>
        <g transform="translate(450.83333333333,730.83333333333) scale(3.4333333333333)"><rect width="6" height="6" /></g>
        <g transform="translate(470.83333333333,730.83333333333) scale(3.4333333333333)"><rect width="6" height="6" /></g>
        <g transform="translate(530.83333333333,730.83333333333) scale(3.4333333333333)"><rect width="6" height="6" /></g>
        <g transform="translate(570.83333333333,730.83333333333) scale(3.4333333333333)"><rect width="6" height="6" /></g>
        <g transform="translate(590.83333333333,730.83333333333) scale(3.4333333333333)"><rect width="6" height="6" /></g>
        <g transform="translate(630.83333333333,730.83333333333) scale(3.4333333333333)"><rect width="6" height="6" /></g>
        <g transform="translate(650.83333333333,730.83333333333) scale(3.4333333333333)"><rect width="6" height="6" /></g>
        <g transform="translate(670.83333333333,730.83333333333) scale(3.4333333333333)"><rect width="6" height="6" /></g>
        <g transform="translate(690.83333333333,730.83333333333) scale(3.4333333333333)"><rect width="6" height="6" /></g>
        <g transform="translate(750.83333333333,730.83333333333) scale(3.4333333333333)"><rect width="6" height="6" /></g>
        <g transform="translate(450.83333333333,750.83333333333) scale(3.4333333333333)"><rect width="6" height="6" /></g>
        <g transform="translate(510.83333333333,750.83333333333) scale(3.4333333333333)"><rect width="6" height="6" /></g>
        <g transform="translate(530.83333333333,750.83333333333) scale(3.4333333333333)"><rect width="6" height="6" /></g>
        <g transform="translate(570.83333333333,750.83333333333) scale(3.4333333333333)"><rect width="6" height="6" /></g>
        <g transform="translate(650.83333333333,750.83333333333) scale(3.4333333333333)"><rect width="6" height="6" /></g>
        <g transform="translate(670.83333333333,750.83333333333) scale(3.4333333333333)"><rect width="6" height="6" /></g>
        <g transform="translate(690.83333333333,750.83333333333) scale(3.4333333333333)"><rect width="6" height="6" /></g>
        <g transform="translate(710.83333333333,750.83333333333) scale(3.4333333333333)"><rect width="6" height="6" /></g>
        <g transform="translate(730.83333333333,750.83333333333) scale(3.4333333333333)"><rect width="6" height="6" /></g>
        <g transform="translate(750.83333333333,750.83333333333) scale(3.4333333333333)"><rect width="6" height="6" /></g>
        <g transform="translate(270.83333333333,270.83333333333)">
            <g transform="scale(10)"><path d="M0,0v14h14V0H0z M12,12H2V2h10V12z" /></g>
        </g>
        <g transform="translate(630.83333333333,270.83333333333)">
            <g transform="scale(10)"><path d="M0,0v14h14V0H0z M12,12H2V2h10V12z" /></g>
        </g>
        <g transform="translate(270.83333333333,630.83333333333)">
            <g transform="scale(10)"><path d="M0,0v14h14V0H0z M12,12H2V2h10V12z" /></g>
        </g>
        <g transform="translate(310.83333333333,310.83333333333)">
            <g transform="scale(10)"><rect width="6" height="6" /></g>
        </g>
        <g transform="translate(670.83333333333,310.83333333333)">
            <g transform="scale(10)"><rect width="6" height="6" /></g>
        </g>
        <g transform="translate(310.83333333333,670.83333333333)">
            <g transform="scale(10)"><rect width="6" height="6" /></g>
        </g>
    </g>
    <g><text fill="#000000" font-family="Arial, Helvetica, sans-serif" font-size="108.50694444444px" text-anchor="middle" x="520.83333333333" y="117.68830128205" transform="translate(0,1041.6666666667)">SCAN ME</text></g>
    <script xmlns="" />
</svg>
